<svg width="129" height="128" viewBox="0 0 129 128" fill="none" xmlns="http://www.w3.org/2000/svg">
<rect width="129" height="128" fill="#F5F5F5"/>
<rect width="1280" height="832" transform="translate(-255 -86)" fill="white"/>
<rect x="-255" y="-86" width="640" height="832" fill="#B00101"/>
<g clip-path="url(#clip0_0_1)">
<path d="M71.4811 0.103325C71.0537 0.198334 70.6175 0.250301 70.1794 0.258426C66.7564 0.692226 63.398 1.52528 60.1747 2.74005L58.9255 3.24671C57.1239 3.96692 55.3707 4.79926 53.6764 5.73868C53.3863 5.92162 53.0719 6.06428 52.7421 6.16262C52.4797 6.22466 52.2697 6.34874 52.2697 6.42112C52.2697 6.4935 52.1227 6.5969 51.9653 6.66928C51.6623 6.78952 51.3736 6.94209 51.1044 7.12425C50.8015 7.32012 50.4859 7.49628 50.1596 7.65159C49.8036 7.81496 49.4688 8.01977 49.1623 8.26166C48.9531 8.44042 48.7199 8.59003 48.4694 8.70628C45.7455 10.3588 43.1521 12.2115 40.7113 14.2486C39.3477 15.4547 38.0904 16.7726 36.9531 18.1881C36.8589 18.3841 36.731 18.5625 36.5751 18.7155C35.5984 19.9927 34.7211 21.3407 33.9506 22.7481C33.7616 23.1824 33.3627 23.9579 33.1108 24.4853C32.2272 26.322 31.8368 28.3513 31.977 30.3791C31.9512 31.2872 32.1255 32.1901 32.488 33.0255C32.8504 33.8609 33.3924 34.609 34.0766 35.2183C34.853 35.9895 35.7794 36.5986 36.8004 37.009C37.8214 37.4194 38.9159 37.6227 40.0185 37.6068C41.7046 37.7132 43.3965 37.5241 45.0156 37.0485C45.5929 36.883 46.3803 36.6969 46.7582 36.5832C47.0959 36.5118 47.4237 36.4007 47.7345 36.2523C48.144 36.0455 50.443 35.0218 50.548 35.0218C53.1647 33.6715 55.6895 32.1552 58.1066 30.4825C60.3952 28.9729 62.4108 27.6597 62.5893 27.5666C62.7677 27.4736 63.8386 26.8325 64.9933 26.15C66.1481 25.4676 67.5759 24.6714 68.1428 24.3819L70.0114 23.4099C70.4628 23.2031 71.2922 22.8205 71.8801 22.6034C72.4679 22.3862 73.2028 22.076 73.4863 21.9519C73.7697 21.8279 74.2211 21.6417 74.4626 21.5383C75.695 21.1553 76.9722 20.9295 78.2629 20.8662C79.7255 20.6753 81.2098 20.9961 82.4569 21.7728C83.7039 22.5494 84.6346 23.7326 85.0866 25.116C85.4257 26.2241 85.5399 27.3871 85.4225 28.5386C85.5411 30.4407 85.2403 32.3455 84.5407 34.1222L84.0893 35.1562C82.7938 37.951 81.1733 40.5882 79.2602 43.0147C76.5313 46.3961 73.48 49.5124 70.1479 52.3208L67.7438 54.2854C66.988 54.8955 66.1166 55.5055 65.1613 56.1466C64.7624 56.3845 64.1115 56.8084 63.7336 57.0876C61.9037 58.2087 59.9993 59.207 58.0331 60.0759L56.5739 60.7066C56.2827 60.8598 55.9665 60.9613 55.6396 61.0065C55.3317 61.036 55.0286 61.102 54.7367 61.2029C54.4799 61.3038 54.2021 61.3415 53.9271 61.3127C53.6522 61.284 53.3886 61.1896 53.159 61.0379C52.9295 60.8861 52.7409 60.6815 52.6098 60.4418C52.4786 60.2021 52.4087 59.9346 52.4062 59.6623C52.4062 58.225 53.099 57.3047 57.4767 53.0239C62.2114 48.4019 62.7258 47.7091 62.7258 45.9616C62.7258 44.2142 61.8544 42.9216 59.8913 41.9393C59.0714 41.5086 58.1362 41.3388 57.2143 41.4534C55.7973 41.3765 54.3915 41.7381 53.1935 42.4874C52.9101 42.6632 52.4587 42.8906 52.2172 43.0147C52.0279 43.1029 51.8485 43.2104 51.6818 43.3353C51.6818 43.3353 51.2724 43.6455 50.8735 43.9453C49.5686 45.0108 48.3826 46.2101 47.3356 47.523C46.5002 48.6687 45.7661 49.883 45.1415 51.1524C44.0975 53.2652 43.484 55.5592 43.3359 57.9044C43.3359 61.6786 45.3305 64.6979 48.4169 65.5561C50.4105 65.8055 52.4282 65.8055 54.4218 65.5561C56.0694 65.1931 57.6871 64.7092 59.2614 64.1085C59.3855 64.0148 59.5356 63.9606 59.6918 63.9534C62.3114 62.8807 64.8421 61.6084 67.2609 60.1482C67.6703 59.8794 68.1323 59.5795 68.3107 59.4761C68.4892 59.3727 69.3605 58.8868 70.1794 58.3594C70.9982 57.8321 71.7856 57.3254 71.8381 57.3254C72.2647 56.9816 72.7098 56.6606 73.1713 56.3638L74.956 55.154C75.2604 54.9368 76.0898 54.3061 76.8246 53.7271C80.9071 50.6143 84.6348 47.0745 87.9421 43.1698C88.3305 42.7045 88.6874 42.2599 88.7399 42.2082C89.5249 41.212 90.2572 40.1766 90.934 39.1062C91.3915 38.4148 91.812 37.7004 92.1938 36.9658C92.5297 36.335 93.0021 35.4768 93.2436 35.0322C93.485 34.5875 93.9679 33.4605 94.3564 32.4885C94.7448 31.5165 95.1122 30.5756 95.1752 30.4205C95.9092 28.2201 96.4467 25.9609 96.7814 23.6684C97.1311 20.5844 96.9142 17.4636 96.141 14.4554C95.8654 13.5795 95.5142 12.7285 95.0912 11.9117C93.688 8.90251 91.518 6.30214 88.7924 4.36344C88.4252 4.13227 88.0744 3.87662 87.7426 3.59828C85.9396 2.49949 83.9985 1.63742 81.9687 1.03393C80.8647 0.721004 79.743 0.472411 78.6093 0.289446C77.465 0.113665 75.3969 -7.63312e-05 73.7697 -7.63312e-05H72.9404C72.4516 -0.0149223 71.9627 0.0197266 71.4811 0.103325ZM38.2653 95.894C37.6771 96.0367 37.0813 96.1472 36.4806 96.2248C35.8088 96.3076 34.5595 96.4833 33.7197 96.6074C33.158 96.6642 32.6028 96.7715 32.061 96.928C31.9035 97.0624 31.8825 126.914 32.061 127.131C33.2994 127.294 34.55 127.35 35.7983 127.297C39.4306 127.297 39.4516 127.297 39.5461 126.894C39.5461 126.676 39.6091 119.593 39.5461 111.156C39.5461 95.9456 39.5461 95.8009 39.1366 95.7699C38.8343 95.7619 38.5326 95.8038 38.2443 95.894H38.2653ZM33.8981 83.2273C32.9355 83.5947 32.1133 84.249 31.5466 85.0989C30.9797 85.9571 30.9587 86.0295 30.9587 87.8183V89.6796L31.641 90.5895C32.2163 91.4929 33.1097 92.1556 34.1501 92.4507C34.9061 92.7075 35.7138 92.7814 36.5049 92.6663C37.296 92.5511 38.0474 92.2502 38.6957 91.7889C40.5959 90.5895 41.2573 87.5392 40.1025 85.2954C39.7064 84.5088 39.0616 83.8701 38.2653 83.4755C36.8984 82.834 35.3309 82.7449 33.8981 83.2273ZM99.091 101.157C99.8364 101.343 101.401 102.594 101.401 102.977C101.453 103.218 101.545 103.448 101.674 103.659C102.083 104.456 102.398 107.051 102.114 107.382C101.831 107.713 101.243 107.64 97.6423 107.64H93.4325L93.3276 107.206C93.2286 105.724 93.5951 104.247 94.3774 102.977C94.9612 102.081 95.8512 101.421 96.8864 101.116C97.2905 100.985 97.7108 100.908 98.1357 100.888C98.2407 100.888 98.6711 101.054 99.0805 101.157H99.091ZM95.2592 95.5734C94.8347 95.6194 94.4202 95.7311 94.0309 95.9043C93.9105 96.0056 93.7588 96.0639 93.6005 96.0697C93.1096 96.1967 92.6369 96.3843 92.1938 96.6281C90.4529 97.624 88.9607 98.9914 87.8266 100.63C87.0659 101.822 86.4526 103.099 85.9999 104.435C85.9321 104.731 85.8409 105.021 85.727 105.303C85.664 105.5 85.4435 106.255 85.2651 106.979C84.7932 110.205 84.7932 113.482 85.2651 116.709C85.6113 118.147 86.1404 119.537 86.8398 120.845C86.8633 120.847 86.886 120.854 86.9067 120.866C86.9274 120.877 86.9456 120.892 86.9602 120.91C86.9749 120.929 86.9857 120.95 86.9921 120.972C86.9984 120.994 87.0002 121.018 86.9972 121.041C86.9972 121.703 89.0969 124.35 90.6086 125.549C91.6025 126.236 92.6868 126.785 93.8315 127.183C95.4609 127.659 97.1418 127.944 98.839 128.031C101.369 128.031 105.925 126.997 107.437 125.963C107.767 125.755 108.119 125.581 108.487 125.446C109.172 125.193 109.799 124.81 110.334 124.319C109.867 122.808 109.158 121.381 108.235 120.09C107.979 120.151 107.741 120.271 107.542 120.441C107.344 120.613 107.106 120.734 106.849 120.793C106.635 120.825 106.433 120.911 106.261 121.041C105.579 121.353 104.878 121.622 104.162 121.848C102.826 122.357 101.389 122.559 99.9623 122.437C97.7577 122.437 97.3798 122.437 96.6659 122.075C94.1779 120.896 92.7502 117.939 92.7502 113.937C92.7151 113.404 92.7151 112.868 92.7502 112.335C92.7502 112.335 96.7184 112.252 101.516 112.2L110.24 112.107V110.349C110.135 106.916 109.19 102.284 108.403 101.229C108.329 101.126 108.088 100.692 107.857 100.195C106.673 98.147 104.745 96.6171 102.461 95.9146C100.065 95.2853 97.5639 95.148 95.1122 95.5114L95.2592 95.5734ZM56.5214 95.5734C53.0577 96.3524 49.8705 98.0345 47.2936 100.444L46.5483 101.116V127.028C46.5483 127.307 46.8107 127.328 50.4325 127.286H54.2958L54.3483 115.064V102.853L55.0307 102.325C55.6776 101.779 56.4368 101.377 57.2563 101.147C58.7683 100.678 60.3584 100.502 61.9384 100.63C62.4316 100.704 62.9319 100.721 63.4291 100.681C63.7567 100.286 64.006 99.8336 64.164 99.3475C64.4264 98.6444 64.8569 97.7345 65.0668 97.2795C65.6547 96.1731 65.6022 95.894 64.8149 95.7182L63.2822 95.3666C61.0517 95.0765 58.7893 95.1253 56.5739 95.5114L56.5214 95.5734ZM17.3322 112.035C17.5049 113.611 17.5645 115.197 17.5107 116.781C17.5107 121.765 17.5842 121.455 16.2614 122.137C15.3759 122.457 14.4273 122.57 13.4899 122.468H11.3273L10.4455 121.868C9.96904 121.559 9.54707 121.174 9.19622 120.731C8.54647 119.671 8.21626 118.451 8.24415 117.213C8.27203 115.976 8.65686 114.771 9.35369 113.741C9.9994 113.078 10.7694 112.544 11.6213 112.169C11.7933 112.169 11.9599 112.11 12.0937 112.004C12.3456 111.745 13.1435 111.673 15.2431 111.704C16.7338 111.704 17.1957 111.776 17.3427 111.993L17.3322 112.035ZM12.0832 95.1288C10.2029 95.3799 8.35295 95.8164 6.56121 96.4316C6.36174 96.5144 6.00481 96.6384 5.75286 96.7108C4.55802 97.1201 3.42184 97.6797 2.37248 98.3756C2.45889 98.6875 2.57125 98.9918 2.70842 99.2855C3.1821 100.481 3.75441 101.636 4.4196 102.739C4.56347 102.709 4.70163 102.656 4.82903 102.584C5.7599 102.126 6.72504 101.739 7.71599 101.426C8.25139 101.271 8.89177 101.064 9.14372 100.971C10.7388 100.581 12.391 100.469 14.0253 100.64C16.4399 101.023 17.3322 102.129 17.4792 104.952C17.5527 106.513 17.5527 106.555 17.1432 106.658C15.9324 106.768 14.7161 106.81 13.5004 106.782C9.3012 106.782 7.96794 107.02 5.22795 108.343C4.02634 108.944 2.96618 109.786 2.11619 110.815C1.2662 111.845 0.645343 113.039 0.293871 114.32C-0.130097 116.176 -0.0940889 118.105 0.398851 119.945C1.99455 124.722 5.81584 127.504 11.1174 127.783C15.7677 128.104 20.3833 126.792 24.1454 124.081L25.3002 123.15L25.3527 113.844C25.4052 103.091 25.3527 102.718 24.0719 100.092C23.1568 98.5761 21.8488 97.3271 20.2822 96.473C19.7153 96.2145 19.0854 95.9457 18.8859 95.8629C16.6872 95.1906 14.3776 94.9413 12.0832 95.1288ZM73.8012 87.2083C69.8434 87.7873 68.5522 88.0355 68.3632 88.2423C68.1742 88.4491 68.2372 93.9604 68.2372 104.662C68.3212 119.614 68.3527 120.958 68.6467 121.682C69.0134 122.89 69.681 123.988 70.5888 124.877C72.4575 126.718 74.788 127.473 78.7563 127.473C80.9294 127.473 81.2338 127.473 81.3808 127.152C81.5906 125.783 81.6329 124.395 81.5068 123.016C81.3913 122.571 81.3283 122.561 79.9846 122.447C79.3105 122.476 78.6415 122.321 78.0507 122C77.46 121.679 76.9704 121.204 76.6357 120.627L76.1948 119.842L76.1318 110.753C76.1318 103.98 76.1318 101.591 76.2997 101.447C76.4677 101.302 77.0661 101.209 78.9662 101.209C81.9057 101.209 81.6537 101.488 81.5908 98.1067V95.8216L79.0922 95.7388C78.1849 95.7293 77.2796 95.6532 76.3837 95.5114C76.2053 95.408 76.1528 94.3326 76.1528 91.1582V86.9394H75.7643C75.5334 86.9394 74.7145 87.0635 73.8432 87.1876L73.8012 87.2083ZM123.142 86.8567C123.142 86.8567 122.271 87.0532 121.294 87.2083C120.318 87.3634 118.712 87.6115 117.736 87.7873L115.951 88.0872V104.228C115.951 121.806 115.951 121.01 117.001 123.202C117.389 123.994 117.939 124.698 118.617 125.27C120.507 126.976 122.271 127.504 126.029 127.514C129.231 127.514 129.105 127.638 129.042 124.732V122.664L127.667 122.54C125.231 122.334 124.055 121.362 123.782 119.366C123.709 118.766 123.656 111.259 123.677 102.698C123.677 87.8804 123.677 86.4534 123.226 86.8774L123.142 86.8567Z" fill="white"/>
</g>
<defs>
<clipPath id="clip0_0_1">
<rect width="129" height="128" fill="white"/>
</clipPath>
</defs>
</svg>
