<svg width="500" height="500" viewBox="0 0 500 500" fill="none" xmlns="http://www.w3.org/2000/svg">
<path d="M449.9 398.49H416.78V398.74H449.9V398.49Z" fill="#EBEBEB"/>
<path d="M331.22 401.21H322.53V401.46H331.22V401.21Z" fill="#EBEBEB"/>
<path d="M415.78 389.21H396.59V389.46H415.78V389.21Z" fill="#EBEBEB"/>
<path d="M95.65 390.89H52.46V391.14H95.65V390.89Z" fill="#EBEBEB"/>
<path d="M110.89 390.89H104.56V391.14H110.89V390.89Z" fill="#EBEBEB"/>
<path d="M225.15 395.11H131.47V395.36H225.15V395.11Z" fill="#EBEBEB"/>
<path d="M237 337.8H43.91C42.3973 337.797 40.9475 337.195 39.8788 336.124C38.8102 335.053 38.21 333.603 38.21 332.09V60.66C38.2231 59.156 38.8292 57.718 39.8964 56.6582C40.9637 55.5985 42.4059 55.0026 43.91 55H237C238.514 55 239.967 55.6016 241.038 56.6724C242.108 57.7433 242.71 59.1956 242.71 60.71V332.09C242.71 333.604 242.108 335.057 241.038 336.128C239.967 337.198 238.514 337.8 237 337.8ZM43.91 55.2C42.4636 55.2026 41.0774 55.7791 40.0556 56.8027C39.0338 57.8264 38.46 59.2136 38.46 60.66V332.09C38.46 333.536 39.0338 334.924 40.0556 335.947C41.0774 336.971 42.4636 337.547 43.91 337.55H237C238.447 337.547 239.834 336.971 240.858 335.948C241.881 334.924 242.457 333.537 242.46 332.09V60.66C242.457 59.2127 241.881 57.8255 240.858 56.8021C239.834 55.7787 238.447 55.2026 237 55.2H43.91Z" fill="#EBEBEB"/>
<path d="M453.31 337.8H260.21C258.696 337.797 257.246 337.195 256.175 336.125C255.105 335.054 254.503 333.604 254.5 332.09V60.66C254.516 59.1551 255.124 57.7171 256.193 56.6576C257.262 55.5981 258.705 55.0025 260.21 55H453.31C454.812 55.0052 456.252 55.6022 457.317 56.6617C458.382 57.7212 458.987 59.1578 459 60.66V332.09C459 333.601 458.401 335.05 457.335 336.121C456.268 337.191 454.821 337.795 453.31 337.8ZM260.21 55.2C258.763 55.2026 257.375 55.7787 256.352 56.8021C255.329 57.8255 254.753 59.2127 254.75 60.66V332.09C254.753 333.537 255.329 334.924 256.352 335.948C257.375 336.971 258.763 337.547 260.21 337.55H453.31C454.757 337.547 456.145 336.971 457.168 335.948C458.191 334.924 458.767 333.537 458.77 332.09V60.66C458.767 59.2127 458.191 57.8255 457.168 56.8021C456.145 55.7787 454.757 55.2026 453.31 55.2H260.21Z" fill="#EBEBEB"/>
<path d="M500 382.4H0V382.65H500V382.4Z" fill="#EBEBEB"/>
<path d="M303.33 187.39H271.7C270.385 187.39 269.32 188.455 269.32 189.77V211.78C269.32 213.094 270.385 214.16 271.7 214.16H303.33C304.644 214.16 305.71 213.094 305.71 211.78V189.77C305.71 188.455 304.644 187.39 303.33 187.39Z" fill="#E0E0E0"/>
<path d="M288.36 189.7H271.99V198.78H288.36V189.7Z" fill="#EBEBEB"/>
<path d="M275.09 201.53H271.99V203.24H275.09V201.53Z" fill="#EBEBEB"/>
<path d="M275.09 204.4H271.99V206.11H275.09V204.4Z" fill="#EBEBEB"/>
<path d="M275.09 207.27H271.99V208.98H275.09V207.27Z" fill="#EBEBEB"/>
<path d="M275.09 210.14H271.99V211.85H275.09V210.14Z" fill="#EBEBEB"/>
<path d="M279.52 201.53H276.42V203.24H279.52V201.53Z" fill="#EBEBEB"/>
<path d="M279.52 204.4H276.42V206.11H279.52V204.4Z" fill="#EBEBEB"/>
<path d="M279.52 207.27H276.42V208.98H279.52V207.27Z" fill="#EBEBEB"/>
<path d="M279.52 210.14H276.42V211.85H279.52V210.14Z" fill="#EBEBEB"/>
<path d="M283.94 201.53H280.84V203.24H283.94V201.53Z" fill="#EBEBEB"/>
<path d="M283.94 204.4H280.84V206.11H283.94V204.4Z" fill="#EBEBEB"/>
<path d="M283.94 207.27H280.84V208.98H283.94V207.27Z" fill="#EBEBEB"/>
<path d="M283.94 210.14H280.84V211.85H283.94V210.14Z" fill="#EBEBEB"/>
<path d="M288.36 201.53H285.26V203.24H288.36V201.53Z" fill="#EBEBEB"/>
<path d="M288.36 204.4H285.26V206.11H288.36V204.4Z" fill="#EBEBEB"/>
<path d="M288.36 207.27H285.26V208.98H288.36V207.27Z" fill="#EBEBEB"/>
<path d="M288.36 210.14H285.26V211.85H288.36V210.14Z" fill="#EBEBEB"/>
<path d="M303.15 187.39H294.23V211.85H303.15V187.39Z" fill="#F0F0F0"/>
<path d="M303.15 194.24H294.23V204.41H303.15V194.24Z" fill="#E6E6E6"/>
<path d="M294.23 204.4L295.93 198.78H301.91L303.15 204.4H294.23Z" fill="#E0E0E0"/>
<path d="M443.89 80.54V383H379.59L379.71 382.5H434.32V89.09H320.81V382.5H355.94L379.59 383H312.26V80.54H443.89Z" fill="#EBEBEB"/>
<path d="M434.32 89.0901V382.5H379.71L379.59 383L355.94 382.5H320.81V89.0901H434.32Z" fill="#F0F0F0" fill-opacity="0.75"/>
<path opacity="0.7" d="M434.32 89.0901V168.29L379.71 382.5L379.59 383L355.94 382.5L431.72 89.0901H434.32Z" fill="white"/>
<path d="M334.12 204.82H320.81V248.63H334.12V204.82Z" fill="white"/>
<path opacity="0.7" d="M396.59 89.0901L320.81 382.51L344.45 383L419.38 89.0901H396.59Z" fill="white"/>
<path d="M261.21 343.63C261.173 343.631 261.135 343.625 261.1 343.612C261.065 343.598 261.033 343.578 261.006 343.552C260.979 343.526 260.957 343.494 260.942 343.46C260.928 343.425 260.92 343.388 260.92 343.35C260.04 317.29 267.98 307.35 268.06 307.25C268.109 307.19 268.18 307.153 268.257 307.145C268.334 307.138 268.41 307.161 268.47 307.21C268.53 307.259 268.568 307.33 268.575 307.407C268.583 307.484 268.559 307.56 268.51 307.62C268.43 307.71 260.63 317.52 261.51 343.33C261.513 343.368 261.508 343.407 261.495 343.443C261.482 343.48 261.462 343.513 261.436 343.541C261.409 343.569 261.377 343.592 261.342 343.607C261.307 343.622 261.269 343.63 261.23 343.63H261.21Z" fill="#E0E0E0"/>
<path d="M264.92 343.63C264.882 343.626 264.845 343.615 264.811 343.597C264.777 343.579 264.747 343.554 264.723 343.524C264.699 343.495 264.681 343.46 264.67 343.424C264.659 343.387 264.656 343.348 264.66 343.31C265.36 335.69 268.09 329.87 272.79 326.01C280.11 320.01 289.79 320.92 289.88 320.93C289.918 320.934 289.955 320.945 289.989 320.963C290.023 320.981 290.053 321.006 290.077 321.036C290.101 321.066 290.119 321.1 290.13 321.137C290.141 321.173 290.144 321.212 290.14 321.25C290.136 321.288 290.125 321.325 290.107 321.359C290.089 321.393 290.064 321.423 290.034 321.447C290.004 321.471 289.97 321.489 289.933 321.5C289.897 321.511 289.858 321.514 289.82 321.51C289.73 321.51 280.29 320.6 273.15 326.46C268.58 330.22 265.92 335.91 265.24 343.37C265.238 343.409 265.227 343.447 265.209 343.481C265.192 343.515 265.167 343.546 265.137 343.57C265.107 343.595 265.072 343.613 265.035 343.623C264.997 343.633 264.958 343.636 264.92 343.63Z" fill="#E0E0E0"/>
<path d="M283.8 321.09C282.39 318.25 270.69 316.31 277.39 310.15C284.09 303.99 284.06 317.2 287.04 317.15C291.21 317.08 290.4 299.41 297.28 303.97C304.16 308.53 290.49 315.74 292.68 318.97C294.68 321.97 306.83 312.27 307.1 318.2C307.37 324.13 294.17 319.74 293.32 323.31C292.67 326.1 305.68 328.63 299.91 332.67C294.14 336.71 292.29 324.46 289.11 325.25C286.7 325.85 289.92 335.91 285.06 334.34C280.2 332.77 285.29 324.08 283.8 321.09Z" fill="#F0F0F0"/>
<path d="M256.78 346.88C256.707 346.878 256.637 346.849 256.584 346.8C256.531 346.75 256.497 346.683 256.49 346.61C254.17 324 244 310.1 243.87 310C243.818 309.944 243.789 309.871 243.789 309.795C243.789 309.719 243.818 309.646 243.87 309.59C243.901 309.567 243.936 309.55 243.973 309.54C244.011 309.53 244.049 309.528 244.088 309.534C244.126 309.539 244.163 309.553 244.196 309.572C244.229 309.592 244.257 309.619 244.28 309.65C244.39 309.79 254.68 323.76 257.02 346.59C257.024 346.628 257.021 346.667 257.01 346.703C256.999 346.74 256.981 346.774 256.957 346.804C256.933 346.834 256.903 346.859 256.869 346.877C256.835 346.895 256.798 346.906 256.76 346.91L256.78 346.88Z" fill="#E0E0E0"/>
<path d="M246.61 318.56C243.08 321.5 244.25 338.62 233.34 331.25C222.43 323.88 241 319.5 240 315.32C238.51 309.46 213.9 316.5 218 305.32C222.1 294.14 236.84 310.97 240.71 306.79C244.26 302.96 226.55 289.09 234.81 286.73C243.07 284.37 241.29 304.43 246.61 304.43C250.75 304.43 249.98 285.26 257.61 292.04C265.24 298.82 248.61 305.51 250.76 309.72C252.42 312.92 265.51 305.02 264.92 312.4C264.33 319.78 250.32 315.48 246.61 318.56Z" fill="#E6E6E6"/>
<path d="M274.18 369.13L276.57 341H242.5L244.9 369.15C245.211 372.819 246.888 376.237 249.599 378.728C252.31 381.219 255.858 382.601 259.54 382.6C263.225 382.6 266.775 381.215 269.487 378.72C272.199 376.225 273.874 372.802 274.18 369.13Z" fill="#F5F5F5"/>
<path d="M265.93 316.2C269.46 319.14 268.29 336.26 279.2 328.89C290.11 321.52 271.5 317.14 272.57 312.96C274.06 307.1 298.67 314.14 294.57 302.96C290.47 291.78 275.73 308.61 271.86 304.43C268.3 300.6 286.02 286.73 277.76 284.37C269.5 282.01 271.28 302.07 265.96 302.07C261.82 302.07 262.59 282.9 254.96 289.68C247.33 296.46 263.96 303.15 261.81 307.36C260.15 310.56 247.06 302.66 247.65 310.04C248.24 317.42 262.22 313.12 265.93 316.2Z" fill="#F5F5F5"/>
<path d="M176.55 244H38.8999V381.65H176.55V244Z" fill="#EBEBEB"/>
<path d="M167.09 254.53H49.4302V381.4H167.09V254.53Z" fill="#FAFAFA" fill-opacity="0.5"/>
<path d="M60.5 307.27H56.52V321.69H60.5V307.27Z" fill="#E6E6E6"/>
<path d="M58.5098 300.57H54.5298V328.9H58.5098V300.57Z" fill="white"/>
<path d="M60.4898 300.57H54.5298V304.87H60.4898V300.57Z" fill="white"/>
<path d="M60.4898 324.59H54.5298V328.89H60.4898V324.59Z" fill="white"/>
<path d="M250 427.01C357.082 427.01 443.89 421.942 443.89 415.69C443.89 409.438 357.082 404.37 250 404.37C142.917 404.37 56.1099 409.438 56.1099 415.69C56.1099 421.942 142.917 427.01 250 427.01Z" fill="#F5F5F5"/>
<path d="M412.49 171.39C411.97 172.941 411.074 174.338 409.882 175.459C408.69 176.579 407.24 177.387 405.66 177.81H405.61C404.23 178.155 402.831 178.415 401.42 178.59L400.73 178.68C395.95 179.24 391.05 179.13 386.26 179.82L385.54 179.93C383.162 180.411 380.752 180.726 378.33 180.87C377.789 180.88 377.249 180.86 376.71 180.81C374.568 180.703 372.517 179.911 370.86 178.55C368.75 176.67 367.86 173.87 367.31 171.05C368.75 170.61 370.347 170.107 372.1 169.54C384.82 165.36 370.94 158.36 375.44 147.18C381.73 131.54 407.44 132.64 407 143.31C415.05 145.32 416.2 160.73 412.49 171.39Z" fill="#263238"/>
<path d="M377.07 152.65C376.48 155.09 376.29 157.65 375.41 159.99C374.53 162.33 372.76 164.57 370.3 165.07C374 166.71 378.58 164.9 381.08 161.72C383.58 158.54 384.38 154.31 384.46 150.25C384.46 149.31 384.63 148.18 383.97 147.52C379.24 142.82 377.65 150.21 377.07 152.65Z" fill="#263238"/>
<path d="M373.51 194.41L372.51 195.31L371.72 196.01C371.14 196.53 370.57 197.01 369.98 197.47C368.81 198.4 367.63 199.33 366.42 200.19C366.17 200.36 365.92 200.54 365.68 200.69C365.442 200.869 365.195 201.036 364.94 201.19L364.35 201.59C362.53 202.79 360.69 203.91 358.8 204.97C357.427 205.723 356.037 206.423 354.63 207.07C353.31 207.69 351.96 208.26 350.63 208.78L348.49 209.55C347.76 209.8 347.03 210 346.32 210.24L345.22 210.57L344.03 210.87C343.25 211.05 342.46 211.23 341.7 211.35C335.758 212.21 329.728 212.27 323.77 211.53C320.87 211.22 317.99 210.79 315.15 210.3C313.15 209.95 311.15 209.54 309.15 209.05C308.32 208.86 307.48 208.64 306.64 208.41L307.51 203.93L309.91 204.14C311.91 204.3 313.86 204.45 315.82 204.54C318.59 204.67 321.36 204.82 324.12 204.82C329.465 204.933 334.806 204.467 340.05 203.43C340.66 203.29 341.26 203.12 341.85 202.95L342.71 202.67L343.63 202.32C344.23 202.08 344.83 201.9 345.47 201.61L347.24 200.81C349.634 199.702 351.97 198.474 354.24 197.13C355.81 196.2 357.36 195.2 358.88 194.13L359.79 193.49C359.97 193.37 360.16 193.24 360.34 193.1L360.92 192.69L361.1 192.56C362.1 191.83 363.1 191.05 364.1 190.27L365.62 189.01L367.03 187.79L371.77 192.67L373.51 194.41Z" fill="#FFC3BD"/>
<path d="M310.93 204.45L302 201.68L303.63 210.56C303.63 210.56 308.41 210.56 310.69 207.77L310.93 204.45Z" fill="#FFC3BD"/>
<path d="M295.77 203.5L297.47 209.28L303.65 210.56L302.02 201.68L295.77 203.5Z" fill="#FFC3BD"/>
<path d="M302.8 204.18C301.85 202.616 301.329 200.829 301.29 199C301.38 196.62 302.73 196.79 302.73 196.79C302.73 196.79 302.48 199.62 306.18 204.39L306.27 204.52L302.8 204.18Z" fill="#FFC3BD"/>
<path d="M380 192C379.23 194.32 376.34 196.49 373.31 198.2C370.993 199.489 368.587 200.612 366.11 201.56L365.3 201.86L364.94 201.24L360.39 193.19L359.64 191.86L360.3 191.19C363.359 188.123 366.708 185.36 370.3 182.94C372.18 181.8 373.92 181.11 375.11 181.39C380.56 182.58 381.54 187.44 380 192Z" fill="white"/>
<path opacity="0.3" d="M380 192C379.23 194.32 376.34 196.49 373.31 198.2C370.993 199.489 368.587 200.612 366.11 201.56L365.3 201.86L364.94 201.24L360.39 193.19L359.64 191.86L360.3 191.19C363.359 188.123 366.708 185.36 370.3 182.94C372.18 181.8 373.92 181.11 375.11 181.39C380.56 182.58 381.54 187.44 380 192Z" fill="black"/>
<path d="M366.14 201.51C366.192 201.686 366.181 201.874 366.108 202.043C366.034 202.211 365.904 202.348 365.74 202.43C365.563 202.523 365.357 202.546 365.163 202.496C364.969 202.447 364.801 202.327 364.69 202.16L364.38 201.59L359.87 193.53L359.07 192.1C359.019 192.008 358.986 191.907 358.974 191.802C358.961 191.698 358.97 191.592 358.999 191.491C359.028 191.389 359.076 191.295 359.141 191.212C359.207 191.13 359.288 191.061 359.38 191.01C359.443 190.975 359.51 190.948 359.58 190.93C359.711 190.902 359.847 190.906 359.976 190.943C360.105 190.979 360.223 191.047 360.32 191.14C360.375 191.193 360.422 191.254 360.46 191.32L361.17 192.6L365.7 200.69L366.08 201.37C366.095 201.418 366.116 201.465 366.14 201.51Z" fill="white"/>
<path d="M415 180.33C418.19 181.8 418.58 182.64 418.08 184.95C417.08 189.42 416.3 193.38 415.64 196.95C415.48 197.81 415.33 198.65 415.18 199.46C415.18 199.61 415.13 199.76 415.1 199.92C415.1 200.08 415.04 200.22 415.01 200.37C414.98 200.52 414.93 200.85 414.88 201.08C411.73 208.34 410.44 217.17 411.25 230.18C411.32 231.18 411.33 232.18 411.38 233.18H408.12H397.42H395.79L383.29 233.26H381.67H378.12C378.03 232.7 377.94 232.17 377.85 231.63C376.93 226.19 376.17 221.32 375.53 217C375.17 214.53 374.84 212.23 374.53 210.1C374.53 210.1 369.19 203.51 371.14 199.47C372.29 197.1 372.82 182.6 373.02 181.97C373.22 181.34 373.39 181.35 373.39 181.35C374.39 181.14 375.39 180.93 376.34 180.75C379.254 180.157 382.18 179.663 385.12 179.27C386.12 179.13 387.17 179 388.2 178.89C392.245 178.572 396.305 178.478 400.36 178.61C400.62 178.61 400.86 178.61 401.12 178.61C402.12 178.61 403.12 178.69 404.12 178.75C405.3 178.81 406.48 178.91 407.65 179.01C409.221 179.093 410.786 179.256 412.34 179.5L415 180.33Z" fill="white"/>
<path d="M398.57 161.14C397.73 166.29 397.05 175.7 400.75 178.99C400.75 178.99 398.85 190.09 389.49 191.77C384.97 190.63 384.85 179.54 384.85 179.54C390.47 177.97 388.59 172.35 388.99 166.66L398.57 161.14Z" fill="#FFC3BD"/>
<path opacity="0.2" d="M387.89 161.14C388.89 165.22 389.89 172.06 388.45 176.43C391.45 175.8 395.89 173.43 396.51 170.78C396.692 168.989 396.729 167.187 396.62 165.39L387.89 161.14Z" fill="black"/>
<path d="M405.35 154.41C404.22 162.9 403.93 166.52 399.35 170.59C392.41 176.72 382.23 173.48 380.79 164.84C379.49 157.04 381.54 144.47 390.13 141.66C392.02 141.037 394.037 140.905 395.992 141.279C397.946 141.653 399.773 142.519 401.3 143.795C402.827 145.071 404.002 146.716 404.716 148.573C405.43 150.431 405.659 152.44 405.38 154.41H405.35Z" fill="#FFC3BD"/>
<path d="M403.31 144.24C398.08 149.97 381.47 151.04 378.95 149.46C384.05 142.35 391.95 138.33 396.4 139.26C399.245 139.997 401.711 141.774 403.31 144.24Z" fill="#263238"/>
<path d="M406.87 143.3H406.8L406.66 143.49L406.87 143.3Z" fill="#263238"/>
<path d="M407 143.17L406.85 143.3C406.884 143.293 406.916 143.278 406.942 143.255C406.969 143.232 406.989 143.203 407 143.17Z" fill="#263238"/>
<path d="M406.8 143.3V143.24L406.66 143.3C406.66 143.3 406.77 143.3 406.8 143.3Z" fill="#263238"/>
<path d="M407.37 137.68C407.79 138.569 407.963 139.554 407.87 140.533C407.776 141.511 407.421 142.447 406.84 143.24C407.376 143.026 407.843 142.668 408.189 142.206C408.535 141.745 408.747 141.196 408.802 140.622C408.856 140.047 408.752 139.469 408.499 138.95C408.247 138.431 407.856 137.991 407.37 137.68Z" fill="#263238"/>
<path d="M407.84 162.78C407.383 163.469 406.794 164.06 406.108 164.52C405.421 164.98 404.651 165.3 403.84 165.46C401.68 165.87 400.78 163.91 401.53 161.97C402.2 160.21 404.14 157.97 406.22 158.34C406.947 158.516 407.575 158.972 407.966 159.609C408.358 160.246 408.482 161.012 408.31 161.74C408.225 162.115 408.065 162.468 407.84 162.78Z" fill="#FFC3BD"/>
<path d="M400.18 144.9C398.9 146.41 399.03 148.57 399.06 150.55C399.14 156.35 399.83 163.63 395.4 166.17C400.64 164.71 404.83 162.24 407.5 157.5C409.61 153.75 409.5 151.5 407.9 147.5C406.7 144.48 403.09 141.5 400.18 144.9Z" fill="#263238"/>
<path opacity="0.1" d="M407.76 186.13C407.76 186.13 407.4 201.72 408.76 208.63C410.12 215.54 411.19 213.82 411.19 213.82C411.19 213.82 411.86 203.09 413.19 200.1C414.52 197.11 407.76 186.13 407.76 186.13Z" fill="black"/>
<path d="M422.93 199.08C422.84 200.14 422.78 201.43 422.72 202.62C422.66 203.81 422.63 205.06 422.63 206.28C422.63 208.73 422.63 211.19 422.82 213.62C423.107 218.434 423.854 223.209 425.05 227.88C425.37 228.99 425.7 230.16 426.05 231.23C426.4 232.3 426.88 233.41 427.35 234.52C428.35 236.74 429.42 239 430.56 241.24C432.85 245.73 435.28 250.24 437.69 254.74L433.85 257.44C430.39 253.468 427.177 249.287 424.23 244.92C422.74 242.74 421.32 240.5 420 238.1C419.34 236.9 418.7 235.68 418.12 234.34C417.54 233 417.12 231.72 416.62 230.4C414.921 225.181 413.84 219.781 413.4 214.31C413.14 211.611 413.02 208.901 413.04 206.19C413.04 204.83 413.04 203.5 413.14 202.14C413.24 200.78 413.29 199.48 413.46 197.98L422.93 199.08Z" fill="#FFC3BD"/>
<path d="M436.46 253.77L442.96 258.32L435 263.4C435 263.4 431.47 258.6 433.05 253.72L436.46 253.77Z" fill="#FFC3BD"/>
<path d="M445.17 265.81L438.35 269.41L435.03 263.41L442.96 258.32L445.17 265.81Z" fill="#FFC3BD"/>
<path d="M424.47 187.53C425.97 198.8 422.59 200.63 422.59 200.63L412.04 201.63C412.04 201.63 406.85 185.92 409.91 182.08C413.1 178.08 423.74 182.06 424.47 187.53Z" fill="white"/>
<path opacity="0.3" d="M424.47 187.53C425.97 198.8 422.59 200.63 422.59 200.63L412.04 201.63C412.04 201.63 406.85 185.92 409.91 182.08C413.1 178.08 423.74 182.06 424.47 187.53Z" fill="black"/>
<path d="M423.59 200.47C423.609 200.687 423.543 200.903 423.404 201.072C423.266 201.24 423.067 201.347 422.85 201.37L412.13 202.37C411.914 202.389 411.699 202.323 411.532 202.184C411.365 202.045 411.26 201.846 411.24 201.63C411.217 201.417 411.281 201.203 411.416 201.036C411.551 200.869 411.746 200.763 411.96 200.74L422.68 199.74C422.897 199.718 423.114 199.782 423.285 199.918C423.455 200.055 423.565 200.253 423.59 200.47Z" fill="white"/>
<path d="M377.82 231.69L376.36 234.88C376.24 235.13 376.51 235.38 376.94 235.35L411.35 233.79C411.67 233.79 411.93 233.61 411.94 233.42L412.15 230.28C412.15 230.06 411.88 229.88 411.53 229.89L378.39 231.38C378.277 231.378 378.164 231.406 378.064 231.46C377.965 231.514 377.88 231.594 377.82 231.69Z" fill="#263238"/>
<path d="M382.74 235.47H381.8C381.61 235.47 381.46 235.39 381.47 235.28L381.77 231.19C381.77 231.08 381.94 230.97 382.13 230.96H383.08C383.26 230.96 383.42 231.05 383.4 231.16L383.11 235.25C383.08 235.322 383.028 235.382 382.962 235.421C382.895 235.461 382.817 235.478 382.74 235.47Z" fill="white"/>
<path d="M408.9 234.52H407.96C407.77 234.52 407.62 234.44 407.62 234.32L407.92 230.23C407.92 230.12 408.09 230 408.28 230H409.28C409.316 229.988 409.354 229.984 409.391 229.988C409.428 229.992 409.464 230.005 409.496 230.025C409.527 230.046 409.554 230.073 409.574 230.105C409.594 230.137 409.606 230.173 409.61 230.21L409.32 234.3C409.26 234.41 409.09 234.51 408.9 234.52Z" fill="white"/>
<path d="M396.9 235H395.95C395.915 235.012 395.878 235.017 395.841 235.012C395.804 235.008 395.769 234.995 395.738 234.975C395.707 234.954 395.681 234.927 395.662 234.895C395.643 234.863 395.632 234.827 395.63 234.79L395.92 230.71C395.92 230.6 396.1 230.49 396.29 230.48H397.23C397.42 230.48 397.57 230.57 397.56 230.69L397.26 234.78C397.25 234.9 397.06 235 396.9 235Z" fill="white"/>
<path d="M392.25 155.89C392.2 156.58 391.78 157.1 391.34 157.08C390.9 157.06 390.55 156.47 390.6 155.77C390.65 155.07 391.06 154.56 391.51 154.58C391.96 154.6 392.29 155.2 392.25 155.89Z" fill="#263238"/>
<path d="M384.4 155.34C384.34 156.03 383.94 156.56 383.49 156.54C383.04 156.52 382.7 155.92 382.76 155.22C382.82 154.52 383.21 154 383.66 154.02C384.11 154.04 384.48 154.63 384.4 155.34Z" fill="#263238"/>
<path d="M383.86 154.07L382.24 153.52C382.24 153.52 383 154.8 383.86 154.07Z" fill="#263238"/>
<path d="M386.39 156.68C385.658 158.218 384.723 159.651 383.61 160.94C383.945 161.214 384.336 161.413 384.756 161.521C385.175 161.63 385.613 161.647 386.04 161.57L386.39 156.68Z" fill="#ED847E"/>
<path d="M389.58 164.41C389.154 164.45 388.726 164.45 388.3 164.41C388.278 164.409 388.256 164.403 388.236 164.393C388.215 164.384 388.197 164.37 388.183 164.353C388.168 164.337 388.156 164.317 388.149 164.296C388.142 164.275 388.139 164.252 388.14 164.23C388.145 164.186 388.166 164.145 388.199 164.115C388.232 164.086 388.275 164.07 388.32 164.07C389.189 164.153 390.066 164.029 390.878 163.707C391.689 163.385 392.413 162.876 392.99 162.22C392.999 162.201 393.013 162.183 393.029 162.169C393.045 162.155 393.064 162.145 393.085 162.138C393.106 162.132 393.127 162.129 393.149 162.131C393.17 162.133 393.191 162.14 393.21 162.15C393.23 162.156 393.247 162.167 393.262 162.181C393.278 162.195 393.289 162.212 393.297 162.231C393.305 162.25 393.308 162.271 393.307 162.291C393.305 162.312 393.3 162.332 393.29 162.35C392.373 163.498 391.04 164.239 389.58 164.41Z" fill="#263238"/>
<path d="M395.48 151.19C395.422 151.194 395.364 151.185 395.31 151.162C395.256 151.14 395.208 151.105 395.17 151.06C394.86 150.636 394.451 150.293 393.979 150.061C393.507 149.83 392.986 149.716 392.46 149.73C392.369 149.736 392.279 149.705 392.21 149.645C392.141 149.586 392.098 149.501 392.09 149.41C392.086 149.366 392.091 149.321 392.105 149.279C392.118 149.237 392.14 149.198 392.169 149.164C392.198 149.131 392.233 149.103 392.273 149.084C392.313 149.064 392.356 149.053 392.4 149.05C393.038 149.026 393.672 149.159 394.247 149.436C394.823 149.713 395.321 150.126 395.7 150.64C395.728 150.674 395.749 150.713 395.762 150.755C395.775 150.798 395.779 150.842 395.774 150.886C395.77 150.929 395.756 150.972 395.735 151.01C395.714 151.049 395.685 151.083 395.65 151.11C395.601 151.151 395.543 151.178 395.48 151.19Z" fill="#263238"/>
<path d="M381.58 150.41C381.523 150.425 381.463 150.425 381.405 150.412C381.347 150.398 381.294 150.37 381.25 150.33C381.187 150.266 381.151 150.18 381.151 150.09C381.151 150 381.187 149.914 381.25 149.85C381.679 149.377 382.215 149.016 382.815 148.796C383.414 148.577 384.057 148.506 384.69 148.59C384.776 148.603 384.854 148.648 384.906 148.718C384.958 148.787 384.981 148.874 384.97 148.96C384.963 149.004 384.947 149.045 384.923 149.082C384.899 149.119 384.868 149.151 384.832 149.175C384.795 149.2 384.754 149.216 384.711 149.224C384.667 149.232 384.623 149.23 384.58 149.22C384.059 149.162 383.531 149.229 383.041 149.415C382.551 149.601 382.112 149.901 381.76 150.29C381.713 150.347 381.65 150.388 381.58 150.41Z" fill="#263238"/>
<path d="M362 408.71C361.76 408.64 361.05 408.45 360.24 408.28C358.93 408.02 357.34 407.82 356.86 408.28C356.784 408.349 356.73 408.439 356.705 408.539C356.68 408.638 356.685 408.743 356.72 408.84C356.755 409.024 356.832 409.197 356.945 409.346C357.057 409.495 357.203 409.616 357.37 409.7C358.023 409.966 358.743 410.022 359.43 409.86C360.174 409.714 360.904 409.5 361.61 409.22C361.745 409.156 361.875 409.083 362 409C362.032 408.989 362.06 408.967 362.078 408.938C362.096 408.909 362.104 408.874 362.1 408.84C362.096 408.811 362.085 408.784 362.068 408.761C362.05 408.738 362.027 408.721 362 408.71ZM357.52 409.37C357.394 409.312 357.284 409.224 357.198 409.115C357.113 409.005 357.055 408.877 357.03 408.74C357.016 408.698 357.014 408.654 357.025 408.611C357.035 408.569 357.058 408.53 357.09 408.5C357.198 408.412 357.331 408.359 357.47 408.35C358.821 408.299 360.172 408.468 361.47 408.85C360.42 409.27 358.46 409.86 357.53 409.37H357.52Z" fill="white"/>
<path d="M372.95 410.95L364.68 411.42L362.93 390.68L371.19 390.2L372.95 410.95Z" fill="#FFC3BD"/>
<path d="M429.76 396.82L421.74 399.91L414.85 381.05L422.87 377.97L429.76 396.82Z" fill="#FFC3BD"/>
<path d="M421.46 399.18L429.01 393.12C429.136 393.01 429.298 392.949 429.465 392.949C429.633 392.949 429.794 393.01 429.92 393.12L436.38 398.97C436.638 399.229 436.784 399.579 436.784 399.945C436.784 400.311 436.638 400.661 436.38 400.92C436.345 400.962 436.305 400.999 436.26 401.03C433.6 403.1 432.2 403.96 428.91 406.64C426.91 408.32 421.91 413.13 419.04 415.39C416.17 417.65 412.99 414.39 414.04 413.23C418.41 407.85 420.14 403.39 420.72 400.48C420.814 399.976 421.074 399.518 421.46 399.18Z" fill="#263238"/>
<path d="M363.61 407.43L373.7 405.76C373.888 405.73 374.081 405.762 374.249 405.853C374.418 405.943 374.551 406.086 374.63 406.26L378.15 413.89C378.291 414.197 378.306 414.547 378.192 414.865C378.078 415.182 377.844 415.443 377.54 415.59C377.426 415.643 377.305 415.677 377.18 415.69C373.63 416.31 371.94 416.54 367.5 417.3C364.76 417.75 356.91 420.36 353.11 419.93C349.31 419.5 349.04 415.67 350.62 415.51C357.68 414.75 360.52 410.57 362.3 408.23C362.619 407.806 363.087 407.52 363.61 407.43Z" fill="#263238"/>
<path opacity="0.2" d="M362.92 390.69L363.83 401.38L372.17 401.75L371.19 390.21L362.92 390.69Z" fill="black"/>
<path opacity="0.2" d="M423.7 380.2L415.68 383.28L419.24 393L427.25 389.92L423.7 380.2Z" fill="black"/>
<path d="M377.41 234.91C377.41 234.91 357.11 280.13 356.24 317.78C355.66 343 360 395.29 360 395.29L374.57 398.36C374.57 398.36 375.35 344.78 377.21 324.09C380.4 288.68 403.09 234 403.09 234L377.41 234.91Z" fill="white"/>
<path opacity="0.4" d="M377.41 234.91C377.41 234.91 357.11 280.13 356.24 317.78C355.66 343 360 395.29 360 395.29L374.57 398.36C374.57 398.36 375.35 344.78 377.21 324.09C380.4 288.68 403.09 234 403.09 234L377.41 234.91Z" fill="white"/>
<path opacity="0.2" d="M389.85 251.64L392.57 262C388.081 274.88 384.24 287.976 381.06 301.24C377.9 281.54 386.07 260.48 389.85 251.64Z" fill="black"/>
<path d="M357.28 397.64L375.78 399.06L376.04 392.02L356.59 391.22L357.28 397.64Z" fill="white"/>
<path d="M385.07 234.72C385.07 234.72 380.93 286.14 388.53 319.05C394.67 345.63 416.66 388.96 416.66 388.96L426.66 382.57C426.66 382.57 418.82 348.74 413.81 330.86C401.52 287 423.66 262.02 412.41 233.62L385.07 234.72Z" fill="white"/>
<path opacity="0.4" d="M385.07 234.72C385.07 234.72 380.93 286.14 388.53 319.05C394.67 345.63 416.66 388.96 416.66 388.96L426.66 382.57C426.66 382.57 418.82 348.74 413.81 330.86C401.52 287 423.66 262.02 412.41 233.62L385.07 234.72Z" fill="white"/>
<path d="M414.73 390.7L428.76 385.65L427.53 379.79L411.95 385.93L414.73 390.7Z" fill="white"/>
<path d="M421.46 400.34H421.41H421.3L420.71 400.53C420.45 400.63 420.13 400.74 419.8 400.88C418.88 401.27 417.88 401.81 417.71 402.39C417.681 402.505 417.682 402.625 417.714 402.739C417.745 402.853 417.806 402.957 417.89 403.04C418.061 403.252 418.296 403.403 418.56 403.47H418.87C419.392 403.342 419.854 403.038 420.18 402.61C420.689 402.02 421.123 401.368 421.47 400.67C421.472 400.647 421.472 400.623 421.47 400.6C421.475 400.584 421.475 400.566 421.47 400.55C421.484 400.536 421.495 400.52 421.503 400.501C421.51 400.483 421.513 400.463 421.512 400.443C421.511 400.423 421.506 400.404 421.497 400.386C421.488 400.368 421.475 400.353 421.46 400.34ZM420.98 400.78C420.808 401.104 420.618 401.418 420.41 401.72C420.068 402.358 419.512 402.854 418.84 403.12C418.702 403.131 418.563 403.107 418.437 403.049C418.311 402.991 418.202 402.902 418.12 402.79C418.077 402.75 418.045 402.699 418.028 402.643C418.01 402.587 418.007 402.528 418.02 402.47C418.18 401.91 419.58 401.28 420.61 400.91L420.98 400.78Z" fill="white"/>
<path d="M421.44 400.33H421.39C421.234 400.191 421.066 400.064 420.89 399.95C420.144 399.32 419.214 398.949 418.24 398.89C418.091 398.911 417.949 398.962 417.821 399.041C417.694 399.121 417.584 399.226 417.5 399.35C417.403 399.472 417.35 399.624 417.35 399.78C417.35 399.936 417.403 400.088 417.5 400.21C417.816 400.516 418.223 400.709 418.66 400.76C419.032 400.832 419.411 400.869 419.79 400.87C420.07 400.885 420.35 400.885 420.63 400.87C420.89 400.87 421.15 400.77 421.4 400.71H421.46C421.462 400.687 421.462 400.663 421.46 400.64C421.465 400.624 421.465 400.606 421.46 400.59C421.478 400.573 421.492 400.552 421.5 400.528C421.509 400.505 421.513 400.48 421.511 400.455C421.509 400.431 421.501 400.407 421.489 400.385C421.477 400.363 421.46 400.345 421.44 400.33ZM417.76 399.97C417.71 399.9 417.63 399.77 417.76 399.52C417.816 399.432 417.891 399.358 417.979 399.302C418.067 399.247 418.166 399.212 418.27 399.2C418.426 399.18 418.584 399.18 418.74 399.2C419.461 399.411 420.139 399.749 420.74 400.2L420.95 400.36C420.863 400.365 420.777 400.365 420.69 400.36C419.69 400.58 418.15 400.45 417.76 400V399.97Z" fill="white"/>
<path d="M362.21 408.82C362.172 408.721 362.129 408.624 362.08 408.53C361.67 407.67 360.39 405.25 358.75 405.75C358.27 405.89 358.15 406.16 358.16 406.36C358.16 406.93 359.16 407.7 360.16 408.27C360.573 408.5 361.001 408.704 361.44 408.88L361.71 408.97L361.95 409.04H362.03L362.15 408.98C362.171 408.959 362.188 408.934 362.198 408.907C362.209 408.879 362.213 408.849 362.21 408.82ZM358.51 406.35C358.51 406.35 358.51 406.18 358.83 406.09H358.98C360.25 405.9 361.33 407.88 361.72 408.67C360.42 408.19 358.53 407 358.51 406.35Z" fill="white"/>
<path d="M391.71 154.62L390.08 154.06C390.08 154.06 390.84 155.39 391.71 154.62Z" fill="#263238"/>
<path d="M72.61 90.1899L73.27 97.7399H55.69L57.23 115.32H49.68L47.48 90.1899H72.61Z" fill="white"/>
<path d="M95.4198 356.85L94.7598 349.3H77.1798L75.6398 331.71H68.0898L70.2898 356.85H95.4198Z" fill="white"/>
<path d="M248.31 356.85L247.65 349.3H265.23L263.69 331.72H271.24L273.44 356.85H248.31Z" fill="white"/>
<path d="M224.49 90.8L225.15 98.35H242.74L244.28 115.94H251.82L249.63 90.8H224.49Z" fill="white"/>
<path d="M190.35 115L192.83 115.45L190.78 113.87C190.24 113.45 189.68 113.03 189.13 112.63L189 112.53H188.84C176.17 110 160.75 105.57 143 99.1999L142.85 99.1399H142.69C142.1 99.2199 141.51 99.3199 140.93 99.4299L138.71 99.8599L140.93 100.67C160.27 107.71 176.9 112.51 190.35 115Z" fill="white"/>
<path d="M199.48 123.07L201.48 123.54L200 122C199.62 121.6 199.23 121.22 198.83 120.83L198.69 120.7H198.5C180.82 116.5 158.44 110.34 132.01 102.41L131.77 102.34L131.56 102.43L130.41 102.98L128.98 103.69L130.6 104.18C158.22 112.45 181.39 118.82 199.48 123.07Z" fill="white"/>
<path d="M207.88 132.68L209.88 133.38L208.59 131.71C208.4 131.46 208.2 131.22 208.01 130.98L207.75 130.66V130.41L207.31 130.25C192.02 124.85 165.11 116.5 123.7 107.35L123.42 107.29L123.2 107.45C122.9 107.67 122.6 107.88 122.3 108.12L121.23 108.96L122.64 109.27C165 118.62 192.4 127.16 207.88 132.68Z" fill="white"/>
<path d="M215.62 143.82L217.62 144.82L216.41 142.92L215.54 141.55L215.43 141.38L215.25 141.3C196.84 132.02 164.77 119.66 116.52 113.42H116.22L116.02 113.62L115.24 114.4L114.36 115.33L115.71 115.5C164.86 121.75 197.17 134.35 215.62 143.82Z" fill="white"/>
<path d="M202.62 144.4C209.466 147.769 216.077 151.594 222.41 155.85L224.41 157.17L223.36 155.08C223.15 154.66 222.93 154.26 222.72 153.85L222.62 153.67V153.46L222.33 153.27C216.295 149.298 210.02 145.704 203.54 142.51C184.54 133.09 152.92 121.61 110.28 120.36H109.97L109.79 120.59L109.13 121.42L108.27 122.42H109.68C152.18 123.59 183.68 135 202.62 144.4Z" fill="white"/>
<path d="M113.9 140.13L114.54 140.19V138.05L113.89 137.99C108.694 137.578 103.466 138.055 98.4298 139.4L98.1698 139.47L98.0598 139.72C97.8998 140.06 97.7498 140.4 97.5998 140.72L97.0498 142.03L98.4298 141.63C103.456 140.212 108.695 139.704 113.9 140.13Z" fill="white"/>
<path d="M203.33 151.42C212.079 156.278 220.39 161.886 228.17 168.18L230 169.7L229.11 167.51C228.89 166.96 228.65 166.42 228.41 165.89L228.34 165.73L228.2 165.61C193.256 137.833 149.067 124.365 104.57 127.93H104.27L104.12 128.17C103.93 128.46 103.75 128.76 103.57 129.06L104.11 129.46L103.55 129.1L102.87 130.22L104.22 130.11C138.641 127.194 173.15 134.613 203.33 151.42Z" fill="white"/>
<path d="M136.68 136C159.61 138.53 194.68 147.54 231.39 176.09L233.1 177.42L232.36 175.42C232.23 175.06 232.09 174.7 231.95 174.33L231.83 174.02V173.8L231.58 173.61C194.74 145.34 159.66 136.39 136.71 133.86C124.888 132.528 112.952 132.569 101.14 133.98H100.84L99.6201 136.33L100.93 136.16C112.799 134.698 124.799 134.645 136.68 136Z" fill="white"/>
<path d="M94.9397 218.93L92.9397 218.09L92.7297 218.67C89.7099 228.441 87.683 238.492 86.6797 248.67V248.77V248.87C86.8697 249.77 87.0797 250.67 87.2997 251.57L88.2397 255.47L88.5697 251.58C89.4549 240.696 91.5306 229.942 94.7597 219.51L94.9397 218.93Z" fill="white"/>
<path d="M91.5799 182.65V182L89.4199 181.87V182.52C89.7899 196.01 88.2499 212.39 84.4199 235.64V235.83C84.5399 236.83 84.6799 237.83 84.8299 238.77L85.4399 242.84L86.0999 238.84C90.2699 214.1 91.9999 196.76 91.5799 182.65Z" fill="white"/>
<path d="M97.4499 212.12L100.22 203.44L98.1499 202.64L95.3999 211.32L97.4499 212.12Z" fill="white"/>
<path d="M91.92 177C92.4996 172.869 94.3562 169.023 97.23 166L97.7 165.57L96.14 164L95.7 164.41C92.4751 167.729 90.4 171.994 89.78 176.58L89.71 177.2L91.85 177.65L91.92 177Z" fill="white"/>
<path d="M92.77 194.66L94.93 194.92V194.28C95.13 188.45 100.93 180.28 101.22 179.96L101.58 179.46L99.81 178.12L99.44 178.61C99.2 179 93 187.36 92.79 194L92.77 194.66Z" fill="white"/>
<path d="M105.36 184.38L105.82 183.94L104.18 182.36L103.75 182.82C102.98 183.65 96.1199 191.33 92.4799 207.06L92.3398 207.67L94.4498 208.32L94.5898 207.71C98.2698 191.8 105.3 184.45 105.36 184.38Z" fill="white"/>
<path d="M106.6 192.53L104.74 191.29L100.04 198.94L101.91 200.18L106.6 192.53Z" fill="white"/>
<path d="M107.8 166.19L108.39 166.01L107.59 163.95L106.99 164.14C106.53 164.29 95.7699 167.81 92.7899 178.93L92.6299 179.54L94.7099 180.25L94.8699 179.65C97.5899 169.53 107.38 166.33 107.8 166.19Z" fill="white"/>
<path d="M111 152.13L111.64 152.04L111.13 149.92L110.51 150.01C100.32 151.49 94.51 155.16 91.45 158.01L91.24 158.22V158.4L90 162.82L91.9 160.76C94.2 158.23 99.79 153.76 111 152.13Z" fill="white"/>
<path d="M139.71 144C162.58 144.89 197.58 152.69 234.5 184.81L236.23 186.31L235.51 184.18C235.34 183.69 235.18 183.18 235 182.72V182.51L234.77 182.32C197.67 150.47 162.52 142.74 139.57 141.86C116.04 140.95 99.29 146.76 94.72 148.56L94.49 148.65L94.4 148.88C94.28 149.18 94.17 149.49 94.07 149.79L93.48 151.45L94.89 150.87C98 149.5 115 143 139.71 144Z" fill="white"/>
<path d="M142.43 149.74C116.3 150.74 98.7001 161.32 97.9501 161.74L97.4102 162.06L98.6802 163.9L99.2102 163.58C99.9302 163.14 117.15 152.79 142.73 151.84C165.42 150.98 200.25 157.51 237.29 193.49L238.99 195.14L238.34 192.91C238.18 192.37 238.01 191.83 237.84 191.3L237.79 191.12L237.65 190.99C200.38 155.35 165.3 148.89 142.43 149.74Z" fill="white"/>
<path d="M190.81 164.12C176.433 158.131 160.764 155.914 145.29 157.68C119.39 160.75 102.45 174.49 102.29 174.63L101.83 175.02L103.27 176.71L103.74 176.32C116.09 167.303 130.555 161.62 145.74 159.82C168.18 157.15 202.74 162.38 239.74 202.35L241.45 204.19L240.82 201.82C240.66 201.24 240.51 200.67 240.35 200.1V199.93L240.23 199.81C224.43 183 207.8 171 190.81 164.12Z" fill="white"/>
<path d="M170 164.4C133 161.04 107 187.18 106.72 187.4L106.28 187.84L107.9 189.39L108.33 188.96C108.58 188.7 134 163.21 169.99 166.49C194.83 168.75 219.06 183.77 241.99 211.13L243.73 213.2L243.1 210.64C242.96 210.06 242.82 209.5 242.69 208.92V208.74L242.55 208.57C219.44 181.57 195 166.69 170 164.4Z" fill="white"/>
<path d="M108 204.69C125.84 179.1 161.81 162.31 202 182.49C222.89 192.98 231.63 205.44 241.75 219.86C242.71 221.227 243.69 222.613 244.69 224.02L246.33 226.32L245.84 223.62C245.72 222.97 245.61 222.33 245.49 221.75V221.56L245.38 221.41C244.74 220.51 244.11 219.62 243.49 218.72C233.17 204.04 224.26 191.36 202.85 180.59C161.54 159.83 124.56 177.07 106.23 203.36C89.4901 227.36 90.6801 255.01 92.8901 269.36V269.5C93.4101 270.87 93.8901 272.24 94.4701 273.58L95.7001 273.32C90.7501 248 95.2401 223 108 204.69Z" fill="white"/>
<path d="M195.64 273.43C191.85 263.67 190.05 262.64 188.64 262.98C185.14 263.82 188.38 276.55 188.41 276.68C190.21 283.57 218.69 299.38 230.85 305.85L231.4 306.15L232.4 304.33L231.78 304C212.64 293.79 191.78 281.15 190.48 276.31C189.06 270.87 189.02 266.6 189.32 265.31C189.87 265.92 191.21 267.89 193.59 274.02C199.26 288.63 221.12 297.13 233.65 300.89L234.14 301.04L234.37 300.61L234.78 299.8L235.12 299.1L234.33 298.86C222.16 295.17 200.88 286.93 195.64 273.43Z" fill="white"/>
<path d="M198.55 270C194.71 261.14 191.69 257.25 188.77 257.44C185.85 257.63 183.77 261.92 182.33 271.52C180.33 284.4 216.72 304.79 227.92 310.74L228.42 311.01L228.72 310.57C228.89 310.33 229.04 310.08 229.19 309.84L229.55 309.26L228.9 308.91C206.51 297 183.08 281 184.46 272C186.17 260.88 188.25 259.59 189.11 259.55C189.73 259.55 192.11 260.35 196.58 270.66C201.05 280.97 214.12 290.09 235.39 297.37L235.93 297.56L236.14 297.07C236.2 296.94 236.26 296.82 236.31 296.7C236.36 296.58 236.44 296.44 236.5 296.3L236.79 295.64L236.06 295.4C215.67 288.45 202.7 279.66 198.55 270Z" fill="white"/>
<path d="M201.46 266.55C196.61 256.39 192.14 251.43 187.74 251.39C183.34 251.35 179.62 256.39 176.27 266.62C170.19 285.2 211.78 308.72 224.67 315.48L225.16 315.74L226.4 314.04L225.69 313.67C216.79 308.97 172.69 284.67 178.32 267.44C181.32 258.34 184.62 253.53 187.96 253.53C191.3 253.53 195.23 258.35 199.52 267.34C204.28 277.34 216.52 285.97 236.93 293.83L237.46 294.04L237.7 293.56C237.831 293.293 237.948 293.019 238.05 292.74L238.29 292.12L237.63 291.87C217.76 284.22 205.93 275.93 201.46 266.55Z" fill="white"/>
<path d="M204.36 263.12C198.12 251.27 191.99 245.12 186.14 245C180.29 244.88 175 250.5 170.2 261.81C165.4 273.12 173.07 286.92 192.3 301.81C201.396 308.676 211.038 314.786 221.13 320.08L221.6 320.32L221.9 319.95L222.45 319.29L222.93 318.68L222.19 318.3C212.14 313.05 162.51 285.73 172.19 262.81C176.63 252.3 181.36 247.04 186.26 247.17C191.16 247.3 196.67 253 202.47 264C209.07 276.53 226.12 285 238.38 290.25L238.98 290.51L239.3 289.68C239.36 289.5 239.43 289.33 239.49 289.15L239.7 288.57L239.09 288.31C227.17 283.16 210.61 275 204.36 263.12Z" fill="white"/>
<path d="M207.26 259.68C199.1 245.59 191.52 238.68 184.08 238.4C176.88 238.19 170.19 244.46 164.08 257.04C161.08 263.32 160.89 270.13 163.64 277.26C172.51 300.31 209.84 320.63 217.23 324.47L217.67 324.69L217.98 324.37L218.57 323.73L219.12 323.12L218.33 322.71C211.04 318.94 174.25 299 165.64 276.64C163.12 270.1 163.25 263.86 166.04 258.1C171.67 246.45 177.68 240.55 183.92 240.55H184.17C190.74 240.75 197.68 247.31 205.39 260.62C212.15 272.3 227.26 280.62 239.67 286.56L240.29 286.85L240.52 286.25C240.62 285.99 240.71 285.72 240.8 285.45L240.99 284.89L240.42 284.62C228.36 278.82 213.66 270.75 207.26 259.68Z" fill="white"/>
<path d="M210.16 256.24C203 245 193.27 232 181.73 231.68H181.38C173.06 231.68 165.2 238.61 158.02 252.29C153.84 260.29 153.38 268.78 156.65 277.6C166.17 303.32 205.28 324.67 213.02 328.69L213.43 328.9L213.74 328.62C213.96 328.42 214.18 328.22 214.39 328.01L215.03 327.4L214.18 326.96C206.54 323 168 302.15 158.66 277C155.66 268.78 156.05 260.84 159.96 253.4C166.87 240.21 174.24 233.59 181.88 233.81C192.3 234.06 201.51 246.47 208.37 257.26C215.37 268.26 228.74 276.32 240.93 282.79L241.59 283.14L241.81 282.48C241.9 282.2 241.98 281.92 242.06 281.65L242.19 281.14L241.7 280.87C229.82 274.55 216.79 266.67 210.16 256.24Z" fill="white"/>
<path d="M213.05 252.78L212.88 252.54C205.71 242.25 193.71 225.02 179.14 224.85H178.94C169.35 224.85 160.26 232.48 151.94 247.53C149.294 252.108 147.702 257.219 147.282 262.49C146.862 267.762 147.623 273.06 149.51 278C159.29 305.26 197.02 326.75 208.35 332.69L208.73 332.89L209.11 332.59C209.33 332.42 209.55 332.25 209.76 332.07L210.47 331.46L209.58 331C201.58 326.85 161.34 304.79 151.52 277.44C149.748 272.78 149.036 267.783 149.438 262.813C149.839 257.843 151.343 253.025 153.84 248.71C161.84 234.21 170.44 226.9 179.31 227.02C192.71 227.18 204.26 243.78 211.15 253.69L211.32 253.93C218.58 264.36 231.56 272.79 242.05 278.93L242.75 279.35L243.33 277.29L242.86 277.02C232.65 271 220 262.81 213.05 252.78Z" fill="white"/>
<path d="M216 249.36C215.64 248.89 215.26 248.36 214.87 247.85L213.92 246.6C205.92 235.93 192.63 218.07 176.56 218.03C165.71 218.03 155.4 226.36 145.89 242.79C139.27 254.25 138.1 266.26 142.41 278.49C152.65 307.58 191.53 330.16 203.2 336.39L203.55 336.57L205.55 335.26L204.55 334.74C192.99 328.64 154.55 306.51 144.46 277.95C140.37 266.33 141.46 254.95 147.8 243.95C156.93 228.15 166.68 220.15 176.8 220.15C191.67 220.15 204.55 237.44 212.25 247.75C212.99 248.75 213.69 249.68 214.34 250.53C221.95 260.53 233.72 268.81 243.12 274.91L243.86 275.39L244.07 274.59L244.28 273.73L244.37 273.28L243.96 273.01C234.77 267.1 223.33 259 216 249.36Z" fill="white"/>
<path d="M222.67 247.22C203.56 218.64 186.5 212.53 175.54 212.44C162.54 212.39 151.22 220.44 143.54 235.34C134.54 252.9 133.32 270.14 140.02 286.57C151.61 314.97 183.77 333.31 197.02 339.87L197.31 340.01L197.58 339.89C197.91 339.74 198.23 339.57 198.58 339.4L199.65 338.83L198.48 338.25C188.2 333.25 153.75 314.66 142.02 285.91C135.56 270.1 136.73 253.45 145.48 236.44C152.73 222.35 163.38 214.59 175.48 214.59H175.7C186.1 214.67 202.37 220.59 220.91 248.3C226.59 256.8 236.75 264.49 244.27 269.44L245.05 269.95L245.24 269.01C245.3 268.74 245.35 268.47 245.4 268.21L245.48 267.78L245.09 267.52C237.86 262.73 228.09 255.31 222.67 247.22Z" fill="white"/>
<path d="M225.28 242.64C217.42 231 209.8 222.76 201.28 216.71C189.82 208.56 178.07 205.31 167.28 207.29C155.56 209.46 145.28 217.8 138.2 230.77C122.61 259.45 130.66 283.46 140.2 298.54C154.91 322.11 181.87 336.66 192.78 341.82L193.05 341.94L193.3 341.84C193.66 341.7 194 341.56 194.3 341.4L195.55 340.84L194.23 340.23C183.38 335.23 156.56 320.93 141.94 297.53C132.76 282.95 124.94 259.73 140.1 231.91C146.87 219.45 156.72 211.46 167.84 209.4C178 207.52 189.16 210.64 200.1 218.4C208.35 224.26 215.78 232.3 223.48 243.7C227.92 250.28 235.17 257.33 245.03 264.7L245.84 265.3L246.02 264.37C246.09 264.06 246.14 263.75 246.18 263.43L246.24 263.03L245.9 262.78C236.47 255.69 229.51 248.92 225.28 242.64Z" fill="white"/>
<path d="M227.89 238.07C219.14 225.22 211.25 217.07 201.53 210.68C188.96 202.47 176.11 199.35 164.35 201.68C151.66 204.17 140.49 212.88 132.89 226.19C119.89 248.92 120.15 275.05 133.5 297.89C148.29 323.18 176.5 338.21 187.89 343.5L188.12 343.6L188.34 343.54C188.72 343.44 189.09 343.32 189.46 343.2L191.09 342.67L189.54 341.97C178.14 336.8 150.04 322.06 135.35 296.97C127.74 283.97 117.55 257.61 134.79 227.4C142.11 214.58 152.79 206.2 164.94 203.81C176.14 201.6 188.42 204.6 200.46 212.47C209.91 218.65 217.59 226.64 226.14 239.19C230.46 245.54 237.06 252.4 245.76 259.6L246.63 260.32L246.78 259.26C246.83 258.93 246.87 258.6 246.9 258.26V257.91L246.61 257.67C238.34 250.73 232 244.14 227.89 238.07Z" fill="white"/>
<path d="M230.5 233.49C223.55 223.37 215.25 212.87 201.77 204.65C167.11 183.51 140.13 200.58 127.56 221.65C113.78 244.71 113.56 272.97 126.82 297.26C140.88 322.94 167.49 338.08 182.1 344.83L182.29 344.92H182.49C182.97 344.84 183.49 344.76 183.93 344.66L185.84 344.29L183.98 343.45C169.34 336.84 142.68 321.95 128.69 296.45C115.75 272.85 116.03 245.37 129.43 222.95C141.52 202.7 167.43 186.25 200.77 206.56C213.84 214.56 221.95 224.8 228.77 234.7C233.852 241.77 239.716 248.245 246.25 254L247.2 254.87L247.31 253.66C247.31 253.31 247.36 252.96 247.38 252.66L246.74 252.55L247.38 252.64V252.32L247.13 252.09C240.917 246.523 235.34 240.285 230.5 233.49Z" fill="white"/>
<path d="M233.11 228.91C224.51 216.52 215.94 206.63 202.02 198.64C186.02 189.41 169.61 186.88 154.68 191.32C141.68 195.21 130.13 204.32 122.21 217.06C107.43 240.75 106.66 270.48 120.13 296.58C133.72 322.91 160.13 338.46 174.73 345.39L174.87 345.45H175C175.64 345.45 176.27 345.45 176.91 345.45L179.41 345.31L177.05 344.23C162.34 337.45 135.63 322.16 122.05 295.78C108.94 270.37 109.7 241.42 124.05 218.34C137.19 197.25 165.25 179.93 201.05 200.51C214.58 208.29 222.95 217.95 231.34 230.06C235.866 236.482 240.934 242.504 246.49 248.06L247.49 249.13V247.71C247.49 247.32 247.49 246.94 247.49 246.55V246.27L247.29 246.07C242.1 240.749 237.358 235.01 233.11 228.91Z" fill="white"/>
<path d="M235.72 224.34C228.03 213.34 219.11 201.81 202.28 192.62C185.09 183.23 167.51 180.85 151.45 185.75C137.6 189.97 125.32 199.47 116.87 212.49C98.3 241.12 102.93 274.37 113.45 295.94C125.45 320.43 147.71 335.83 164.33 344.44L164.49 344.52H164.59C165.44 344.68 166.32 344.81 167.21 344.92L170.84 345.38L167.48 343.71C150.38 335.24 127.48 319.93 115.38 295.14C105.11 274.14 100.59 241.68 118.71 213.77C134.08 190.07 165.6 174.92 201.37 194.47C217.77 203.47 226.47 214.69 233.98 225.47C237.83 230.98 241.997 236.263 246.46 241.29L247.62 242.6L247.57 240.76C247.57 240.38 247.57 240 247.57 239.59V239.36L247.41 239.18C243.246 234.449 239.344 229.495 235.72 224.34Z" fill="white"/>
<path d="M246.93 231.61V231.42L246.81 231.26C243.57 227.12 240.72 223.12 238.35 219.76C229.87 207.76 220.75 196.11 202.55 186.61C163.39 166.13 128.63 182.56 111.55 207.93C91.7599 237.33 96.6099 273.37 106.79 295.29C113.96 310.83 125.9 324.52 142.2 335.92L142.38 336.05C144.758 337.473 147.219 338.752 149.75 339.88L150.27 338.76C130.73 326.76 116.75 311.9 108.73 294.54C98.7899 273.13 94.0399 237.94 113.37 209.23C129.95 184.59 163.69 168.62 201.69 188.48C219.39 197.74 228.32 209.09 236.63 220.88C239.04 224.32 242.29 228.88 245.97 233.51L247.28 235.18L247.1 233.18C247.033 232.646 246.977 232.123 246.93 231.61Z" fill="white"/>
<path d="M159.55 99.2698C158.175 99.1371 156.789 99.164 155.42 99.3498C163.696 102.269 172.117 104.759 180.65 106.81C176.54 103.82 164.61 99.6998 159.55 99.2698Z" fill="white"/>
</svg>
