<svg width="140" height="258" viewBox="0 0 140 258" fill="none" xmlns="http://www.w3.org/2000/svg">
<path d="M55.8802 0.570068H49.4902V1.60007H55.8802V0.570068Z" fill="white"/>
<path d="M138.598 41.3367L137.825 58.4993L138.854 58.5456L139.627 41.3831L138.598 41.3367Z" fill="white"/>
<path opacity="0.56" d="M133.09 8.57007H15.0899L4.10986 254.29H122.11L133.09 8.57007Z" fill="#FAFAFA"/>
<path opacity="0.07" d="M129.57 11.9402H11.5701L0.580078 257.66H118.58L129.57 11.9402Z" fill="white"/>
<path d="M116.14 119.11H15.4201L14.5801 137.91H115.3L116.14 119.11Z" fill="white"/>
<path d="M70.8102 105.39H16.0302L15.6602 113.8H70.4402L70.8102 105.39Z" fill="white"/>
<path d="M113.87 169.85H13.1501L12.3101 188.65H113.03L113.87 169.85Z" fill="white"/>
<path opacity="0.47" d="M95.4001 214.04H27.6702L26.6602 236.57H94.3902L95.4001 214.04Z" fill="white"/>
<path d="M90.8699 240.07H23.1399C23.1104 240.078 23.0794 240.078 23.0499 240.07C23.04 240.041 23.04 240.009 23.0499 239.98L24.0499 217.44C24.0498 217.425 24.053 217.41 24.0591 217.396C24.0653 217.382 24.0743 217.369 24.0856 217.359C24.0969 217.348 24.1102 217.34 24.1247 217.336C24.1393 217.331 24.1546 217.329 24.1699 217.33H91.8999C91.9123 217.324 91.926 217.321 91.9399 217.321C91.9538 217.321 91.9675 217.324 91.9799 217.33C91.9869 217.342 91.9906 217.356 91.9906 217.37C91.9906 217.384 91.9869 217.398 91.9799 217.41L90.9999 240C90.9879 240.024 90.969 240.043 90.9458 240.055C90.9226 240.068 90.8961 240.073 90.8699 240.07ZM23.2599 239.83H90.7499L91.7499 217.53H24.2599L23.2599 239.83Z" fill="white"/>
<path d="M58.9801 156.13H13.7601L13.3901 164.55H58.6001L58.9801 156.13Z" fill="white"/>
<path d="M94.1101 58.3801C93.8516 63.8515 91.9059 69.1087 88.5401 73.4301C86.0485 76.6942 82.8422 79.3441 79.1673 81.1764C75.4923 83.0087 71.4464 83.9746 67.3401 84.0001C64.0218 84.0254 60.7334 83.3711 57.6775 82.0774C54.6217 80.7837 51.863 78.8781 49.5715 76.4779C47.28 74.0777 45.5042 71.2338 44.3534 68.1213C43.2026 65.0088 42.7012 61.6937 42.8801 58.3801C43.2318 51.5041 46.197 45.0222 51.1693 40.2599C56.1416 35.4977 62.7453 32.8149 69.6301 32.7601C72.9509 32.7291 76.2428 33.3795 79.3024 34.6709C82.362 35.9624 85.1242 37.8675 87.4185 40.2686C89.7127 42.6697 91.4902 45.5157 92.6412 48.6309C93.7921 51.746 94.2921 55.0641 94.1101 58.3801Z" fill="white"/>
<path d="M96.5202 38.1201C96.455 39.5749 95.9377 40.9732 95.0403 42.1201C94.3762 42.9871 93.5229 43.6909 92.5455 44.1779C91.568 44.6649 90.4923 44.9221 89.4002 44.9301C88.3422 44.9365 87.2987 44.6838 86.3609 44.1939C85.4231 43.7041 84.6195 42.9921 84.0202 42.1201C83.2268 40.9418 82.8341 39.5391 82.9002 38.1201C82.9969 36.2945 83.7864 34.5745 85.1076 33.311C86.4287 32.0474 88.1822 31.3354 90.0103 31.3201C90.8922 31.312 91.7664 31.4847 92.5791 31.8273C93.3918 32.17 94.1256 32.6754 94.7355 33.3125C95.3455 33.9496 95.8184 34.7048 96.1254 35.5316C96.4323 36.3584 96.5667 37.2394 96.5202 38.1201Z" fill="#E9E9E9"/>
<path d="M26.2703 128.51C26.2223 129.316 25.8705 130.074 25.2859 130.63C24.7014 131.187 23.9275 131.501 23.1203 131.51C22.7305 131.515 22.344 131.439 21.9845 131.289C21.625 131.138 21.3003 130.915 21.0304 130.634C20.7604 130.353 20.5511 130.019 20.4152 129.654C20.2793 129.289 20.2197 128.899 20.2403 128.51C20.2836 127.703 20.634 126.942 21.2195 126.385C21.8051 125.827 22.5816 125.514 23.3903 125.51C23.7796 125.507 24.1655 125.583 24.5243 125.734C24.8831 125.886 25.2073 126.109 25.4769 126.389C25.7465 126.67 25.956 127.003 26.0924 127.368C26.2288 127.733 26.2894 128.121 26.2703 128.51Z" fill="#263238"/>
<path d="M39.75 128.51C39.7043 129.317 39.3533 130.076 38.7682 130.633C38.1832 131.19 37.408 131.504 36.6 131.51C36.2111 131.513 35.8257 131.437 35.4674 131.286C35.1091 131.134 34.7856 130.911 34.5167 130.63C34.2478 130.349 34.0394 130.016 33.9041 129.651C33.7688 129.287 33.7095 128.898 33.73 128.51C33.7733 127.704 34.1222 126.945 34.7056 126.388C35.2891 125.83 36.0631 125.516 36.87 125.51C37.2598 125.505 37.6463 125.581 38.0058 125.731C38.3653 125.882 38.69 126.105 38.9599 126.386C39.2299 126.667 39.4393 127.001 39.5752 127.366C39.7111 127.731 39.7706 128.121 39.75 128.51Z" fill="#263238"/>
<path d="M53.24 128.51C53.1943 129.317 52.8432 130.076 52.2582 130.633C51.6731 131.19 50.8979 131.504 50.09 131.51C49.7006 131.513 49.3147 131.437 48.9559 131.286C48.5972 131.134 48.273 130.912 48.0034 130.631C47.7337 130.35 47.5243 130.017 47.3879 129.652C47.2514 129.288 47.1909 128.899 47.21 128.51C47.2557 127.703 47.6067 126.944 48.1918 126.387C48.7768 125.83 49.5521 125.516 50.36 125.51C50.7497 125.505 51.1363 125.581 51.4957 125.731C51.8552 125.882 52.18 126.105 52.4499 126.386C52.7198 126.667 52.9292 127.001 53.0651 127.366C53.201 127.731 53.2605 128.121 53.24 128.51Z" fill="#263238"/>
<path d="M24.0002 179.25C23.9522 180.056 23.6004 180.814 23.0159 181.37C22.4313 181.927 21.6574 182.241 20.8502 182.25C20.4609 182.253 20.075 182.177 19.7162 182.026C19.3574 181.875 19.0333 181.652 18.7636 181.371C18.494 181.09 18.2845 180.757 18.1481 180.392C18.0117 180.028 17.9512 179.639 17.9702 179.25C18.0159 178.443 18.367 177.684 18.952 177.127C19.5371 176.57 20.3123 176.256 21.1202 176.25C21.5096 176.247 21.8955 176.323 22.2543 176.474C22.6131 176.626 22.9372 176.848 23.2068 177.129C23.4765 177.41 23.6859 177.743 23.8223 178.108C23.9588 178.473 24.0193 178.861 24.0002 179.25Z" fill="#263238"/>
<path d="M37.48 179.25C37.4344 180.055 37.0848 180.813 36.5019 181.37C35.9189 181.927 35.1462 182.241 34.34 182.25C33.9503 182.255 33.5637 182.179 33.2042 182.029C32.8448 181.878 32.52 181.655 32.2501 181.374C31.9802 181.093 31.7708 180.759 31.6349 180.394C31.499 180.029 31.4395 179.639 31.46 179.25C31.5057 178.443 31.8568 177.684 32.4418 177.127C33.0269 176.57 33.8021 176.256 34.61 176.25C34.9989 176.247 35.3844 176.323 35.7427 176.474C36.101 176.626 36.4245 176.849 36.6933 177.13C36.9622 177.411 37.1707 177.744 37.306 178.109C37.4413 178.473 37.5005 178.862 37.48 179.25Z" fill="#263238"/>
<path d="M51.0002 179.25C50.9545 180.057 50.6035 180.816 50.0184 181.373C49.4334 181.93 48.6582 182.244 47.8502 182.25C47.4613 182.252 47.0761 182.175 46.7179 182.023C46.3598 181.871 46.0363 181.648 45.7669 181.368C45.4976 181.087 45.288 180.755 45.1511 180.391C45.0141 180.027 44.9526 179.639 44.9702 179.25C45.0183 178.444 45.37 177.687 45.9546 177.13C46.5391 176.573 47.313 176.259 48.1202 176.25C48.51 176.246 48.8965 176.321 49.256 176.472C49.6155 176.622 49.9402 176.845 50.2101 177.126C50.4801 177.407 50.6895 177.741 50.8254 178.106C50.9613 178.472 51.0208 178.861 51.0002 179.25Z" fill="#263238"/>
<path d="M64.4602 179.25C64.4122 180.056 64.0604 180.814 63.4758 181.37C62.8913 181.927 62.1174 182.241 61.3102 182.25C60.9213 182.252 60.5361 182.175 60.1779 182.023C59.8198 181.871 59.4962 181.648 59.2269 181.368C58.9575 181.087 58.748 180.755 58.6111 180.391C58.4741 180.027 58.4126 179.639 58.4302 179.25C58.4782 178.444 58.83 177.687 59.4146 177.13C59.9991 176.573 60.773 176.259 61.5802 176.25C61.9695 176.247 62.3554 176.323 62.7142 176.474C63.073 176.626 63.3972 176.848 63.6668 177.129C63.9364 177.41 64.1459 177.743 64.2823 178.108C64.4187 178.473 64.4793 178.861 64.4602 179.25Z" fill="#263238"/>
<path d="M78.0003 179.25C77.9522 180.056 77.6005 180.814 77.0159 181.37C76.4314 181.927 75.6575 182.241 74.8503 182.25C74.4605 182.255 74.074 182.179 73.7145 182.029C73.355 181.878 73.0303 181.655 72.7603 181.374C72.4904 181.093 72.281 180.759 72.1451 180.394C72.0092 180.029 71.9497 179.639 71.9703 179.25C72.016 178.443 72.367 177.684 72.9521 177.127C73.5371 176.57 74.3123 176.256 75.1203 176.25C75.5096 176.247 75.8955 176.323 76.2543 176.474C76.6131 176.626 76.9372 176.848 77.2069 177.129C77.4765 177.41 77.686 177.743 77.8224 178.108C77.9588 178.473 78.0193 178.861 78.0003 179.25Z" fill="#263238"/>
<path d="M75.9536 57.0456C80.1391 52.9526 80.3612 46.3919 76.4497 42.3919C72.5381 38.392 65.9741 38.4675 61.7885 42.5605C57.603 46.6536 57.3809 53.2143 61.2925 57.2142C65.2041 61.2142 71.7681 61.1387 75.9536 57.0456Z" fill="white"/>
<path d="M88.5401 73.4302C86.0485 76.6943 82.8422 79.3442 79.1673 81.1765C75.4923 83.0088 71.4464 83.9747 67.3401 84.0002C63.3582 84.034 59.4291 83.0874 55.8994 81.2441C52.3697 79.4008 49.3478 76.7172 47.1001 73.4302C51.9601 68.5902 59.6501 65.4302 68.1701 65.4302C76.6901 65.4302 84.1101 68.5902 88.5401 73.4302Z" fill="white"/>
<path opacity="0.1" d="M75.9536 57.0456C80.1391 52.9526 80.3612 46.3919 76.4497 42.3919C72.5381 38.392 65.9741 38.4675 61.7885 42.5605C57.603 46.6536 57.3809 53.2143 61.2925 57.2142C65.2041 61.2142 71.7681 61.1387 75.9536 57.0456Z" fill="#8E8E8E"/>
<path opacity="0.1" d="M88.5401 73.4302C86.0485 76.6943 82.8422 79.3442 79.1673 81.1765C75.4923 83.0088 71.4464 83.9747 67.3401 84.0002C63.3582 84.034 59.4291 83.0874 55.8994 81.2441C52.3697 79.4008 49.3478 76.7172 47.1001 73.4302C51.9601 68.5902 59.6501 65.4302 68.1701 65.4302C76.6901 65.4302 84.1101 68.5902 88.5401 73.4302Z" fill="#8E8E8E"/>
</svg>
