<svg width="500" height="500" viewBox="0 0 500 500" fill="none" xmlns="http://www.w3.org/2000/svg">
<path d="M402.12 428.84C417.894 418.593 431.002 404.738 440.36 388.42C497.52 289 484.61 142.26 374.53 79.3601C323.65 50.2901 250.41 31.8901 195.43 61.7501C150.83 85.9701 123.49 131.56 100.88 173.05C86.6498 199.14 74.9398 227.22 57.4298 251.63C34.6998 283.29 9.68979 325.57 34.9398 362.35C69.3498 412.45 134.34 435.35 193.28 450.35C257.22 466.69 329.11 469.01 388.17 437.14C392.95 434.587 397.6 431.82 402.12 428.84Z" fill="white" fill-opacity="0.44"/>
<path d="M338.24 85.8699C380.24 86.5199 415.36 102.47 442.99 134.37C443.877 135.335 444.559 136.47 444.995 137.706C445.432 138.942 445.613 140.254 445.529 141.562C445.445 142.87 445.097 144.148 444.506 145.318C443.915 146.488 443.093 147.526 442.09 148.37C441.116 149.2 439.985 149.826 438.764 150.212C437.544 150.597 436.259 150.735 434.985 150.615C433.71 150.496 432.473 150.123 431.345 149.517C430.218 148.912 429.223 148.086 428.42 147.09C418.558 135.439 406.568 125.774 393.09 118.61C372.371 107.603 348.823 103.075 325.5 105.614C302.177 108.154 280.154 117.642 262.29 132.85C257.21 137.14 252.69 142.13 248.11 146.98C244.11 151.19 238.3 151.86 234.11 148.25C229.92 144.64 229.66 138.61 233.44 134.25C256.58 107.417 285.706 91.5666 320.82 86.6999C323.57 86.3199 326.34 86.0299 329.12 85.8999C332.15 85.7599 335.2 85.8699 338.24 85.8699Z" fill="#F6F6F6"/>
<path d="M341.71 124.85C368.28 125.54 393.27 136.85 412.92 159.61C416.8 164.09 416.35 169.87 412.04 173.61C407.95 177.13 402.04 176.66 398.23 172.28C387.97 160.4 375.54 151.69 360.38 147.6C329.49 139.26 302.78 146.86 280.38 169.73C279.55 170.58 278.78 171.49 277.99 172.38C276.303 174.327 273.912 175.523 271.343 175.707C268.773 175.891 266.236 175.047 264.29 173.36C262.343 171.673 261.146 169.282 260.962 166.713C260.778 164.144 261.623 161.607 263.31 159.66C271.952 149.405 282.618 141.044 294.64 135.1C308.43 128.23 323 124.92 341.71 124.85Z" fill="#F6F6F6"/>
<path d="M385.43 191.34C385.435 193.305 384.845 195.226 383.736 196.849C382.627 198.472 381.053 199.72 379.22 200.43C377.357 201.164 375.311 201.297 373.368 200.809C371.426 200.321 369.685 199.237 368.39 197.71C364.34 192.967 359.266 189.205 353.55 186.71C337.55 179.95 320 184.15 308.13 197.55C305.32 200.73 301.81 201.88 297.75 200.65C296.202 200.179 294.796 199.328 293.66 198.175C292.524 197.023 291.695 195.604 291.246 194.049C290.798 192.494 290.746 190.852 291.094 189.271C291.442 187.691 292.18 186.223 293.24 185C313.56 160.5 350.94 157 375.39 177.46C378.186 179.787 380.76 182.368 383.08 185.17C384.43 186.81 385.01 189.08 385.94 191.07L385.43 191.34Z" fill="#F6F6F6"/>
<path d="M338.2 242.38C334.333 242.392 330.55 241.254 327.331 239.112C324.112 236.97 321.602 233.919 320.12 230.348C318.638 226.776 318.251 222.845 319.008 219.053C319.764 215.261 321.63 211.779 324.37 209.05C327.109 206.32 330.597 204.467 334.392 203.724C338.187 202.981 342.117 203.382 345.683 204.877C349.249 206.372 352.29 208.893 354.421 212.119C356.552 215.346 357.676 219.133 357.65 223C357.639 228.149 355.585 233.083 351.937 236.717C348.29 240.351 343.349 242.388 338.2 242.38Z" fill="#F6F6F6"/>
<path d="M221.268 335.795C230.348 326.716 230.348 311.994 221.268 302.915C212.189 293.835 197.468 293.835 188.388 302.915C179.308 311.994 179.308 326.716 188.388 335.795C197.468 344.875 212.189 344.875 221.268 335.795Z" stroke="#313131" stroke-width="2" stroke-linecap="round" stroke-linejoin="round"/>
<path d="M204.83 342.61C211.181 342.61 216.33 332.2 216.33 319.36C216.33 306.519 211.181 296.11 204.83 296.11C198.479 296.11 193.33 306.519 193.33 319.36C193.33 332.2 198.479 342.61 204.83 342.61Z" stroke="#313131" stroke-width="2" stroke-linecap="round" stroke-linejoin="round"/>
<path d="M188.83 302.91C193.188 307.044 198.976 309.33 204.982 309.291C210.989 309.252 216.747 306.89 221.05 302.7" stroke="#313131" stroke-width="2" stroke-linecap="round" stroke-linejoin="round"/>
<path d="M220.89 335.87C216.525 331.694 210.706 329.381 204.665 329.422C198.625 329.463 192.837 331.855 188.53 336.09" stroke="#313131" stroke-width="2" stroke-linecap="round" stroke-linejoin="round"/>
<path d="M181.58 319.36H228.08" stroke="#313131" stroke-width="2" stroke-linecap="round" stroke-linejoin="round"/>
<path d="M204.83 296.11V342.61" stroke="#313131" stroke-width="2" stroke-linecap="round" stroke-linejoin="round"/>
<path d="M204.94 288.76V286.26" stroke="white" stroke-linecap="round" stroke-linejoin="round"/>
<path d="M204.94 281.18V30.01" stroke="white" stroke-linecap="round" stroke-linejoin="round" stroke-dasharray="5.07 5.07"/>
<path d="M204.94 27.48V24.98" stroke="white" stroke-linecap="round" stroke-linejoin="round"/>
<path d="M167.43 153.23C163.601 153.235 159.931 154.76 157.225 157.469C154.52 160.179 153 163.851 153 167.68C153 175.68 167.45 191.97 167.45 191.97C167.45 191.97 181.89 175.66 181.89 167.68C181.891 165.781 181.518 163.901 180.792 162.146C180.065 160.392 179 158.798 177.657 157.456C176.314 156.114 174.719 155.05 172.964 154.324C171.209 153.599 169.329 153.227 167.43 153.23ZM167.43 174.23C166.13 174.232 164.858 173.848 163.776 173.127C162.694 172.406 161.851 171.38 161.352 170.179C160.854 168.978 160.723 167.656 160.976 166.381C161.229 165.105 161.855 163.934 162.774 163.014C163.694 162.095 164.865 161.469 166.141 161.216C167.416 160.963 168.738 161.094 169.939 161.592C171.14 162.091 172.166 162.934 172.887 164.016C173.608 165.098 173.992 166.37 173.99 167.67C173.99 169.411 173.299 171.08 172.069 172.312C170.839 173.544 169.171 174.237 167.43 174.24V174.23Z" fill="white" stroke="#313131" stroke-linecap="round" stroke-linejoin="round"/>
<path d="M167.43 153.23V150.73" stroke="white" stroke-linecap="round" stroke-linejoin="round"/>
<path d="M167.43 145.8V29.9399" stroke="white" stroke-linecap="round" stroke-linejoin="round" stroke-dasharray="4.93 4.93"/>
<path d="M167.43 27.48V24.98" stroke="white" stroke-linecap="round" stroke-linejoin="round"/>
<path d="M133.27 271.76H104.64C102.402 271.76 100.255 272.649 98.6722 274.232C97.0894 275.815 96.2002 277.962 96.2002 280.2V293.2C96.2002 295.438 97.0894 297.585 98.6722 299.168C100.255 300.751 102.402 301.64 104.64 301.64L104.93 314.74L113.93 301.64H133.29C135.529 301.64 137.675 300.751 139.258 299.168C140.841 297.585 141.73 295.438 141.73 293.2V280.2C141.73 279.09 141.511 277.991 141.086 276.966C140.66 275.94 140.037 275.009 139.251 274.225C138.465 273.441 137.532 272.82 136.506 272.397C135.48 271.974 134.38 271.757 133.27 271.76Z" fill="white" stroke="#313131" stroke-linecap="round" stroke-linejoin="round"/>
<path d="M122.47 278.79H146C147.838 278.803 149.596 279.538 150.897 280.837C152.197 282.135 152.935 283.893 152.95 285.73V296.45C152.935 298.288 152.197 300.045 150.897 301.344C149.596 302.642 147.838 303.377 146 303.39L145.77 314.15L138.39 303.39H122.47C120.63 303.39 118.864 302.659 117.563 301.357C116.261 300.056 115.53 298.291 115.53 296.45V285.73C115.53 283.889 116.261 282.124 117.563 280.823C118.864 279.521 120.63 278.79 122.47 278.79Z" fill="#313131" stroke="#313131" stroke-linecap="round" stroke-linejoin="round"/>
<path d="M129.5 291.08C129.5 290.568 129.348 290.066 129.063 289.64C128.778 289.214 128.373 288.882 127.899 288.686C127.425 288.491 126.904 288.44 126.401 288.541C125.899 288.641 125.437 288.889 125.075 289.252C124.714 289.616 124.468 290.078 124.369 290.581C124.27 291.084 124.323 291.605 124.52 292.078C124.718 292.551 125.051 292.955 125.479 293.239C125.906 293.522 126.408 293.672 126.92 293.67C127.605 293.668 128.262 293.394 128.745 292.908C129.229 292.423 129.5 291.765 129.5 291.08Z" fill="white"/>
<path d="M134.93 293.67C136.361 293.67 137.52 292.511 137.52 291.08C137.52 289.65 136.361 288.49 134.93 288.49C133.5 288.49 132.34 289.65 132.34 291.08C132.34 292.511 133.5 293.67 134.93 293.67Z" fill="white"/>
<path d="M142.94 293.67C144.371 293.67 145.53 292.511 145.53 291.08C145.53 289.65 144.371 288.49 142.94 288.49C141.51 288.49 140.35 289.65 140.35 291.08C140.35 292.511 141.51 293.67 142.94 293.67Z" fill="white"/>
<path d="M127.51 262.61V260.11" stroke="white" stroke-linecap="round" stroke-linejoin="round"/>
<path d="M127.51 255.18V30.8401" stroke="white" stroke-linecap="round" stroke-linejoin="round" stroke-dasharray="4.93 4.93"/>
<path d="M127.51 28.3701V25.8701" stroke="white" stroke-linecap="round" stroke-linejoin="round"/>
<path d="M116.83 189.15H66.27V218.7H116.83V189.15Z" fill="white" stroke="#313131" stroke-linecap="round" stroke-linejoin="round"/>
<path d="M66.27 218.7L91.16 195.72L116.84 218.7H66.27Z" fill="white" stroke="#313131" stroke-linecap="round" stroke-linejoin="round"/>
<path d="M66.27 189.15L91.56 203.93L116.84 189.15H66.27Z" fill="white" stroke="#313131" stroke-linecap="round" stroke-linejoin="round"/>
<path d="M91.1099 187.8V185.3" stroke="white" stroke-linecap="round" stroke-linejoin="round"/>
<path d="M91.1099 180.61V145.4" stroke="white" stroke-linecap="round" stroke-linejoin="round" stroke-dasharray="4.69 4.69"/>
<path d="M91.1099 143.06V140.56" stroke="white" stroke-linecap="round" stroke-linejoin="round"/>
<path d="M104.63 97.88C102.157 92.9184 98.2371 88.8239 93.3879 86.1376C88.5386 83.4513 82.9883 82.2997 77.4706 82.835C71.9529 83.3703 66.7275 85.5673 62.485 89.1356C58.2425 92.7039 55.1827 97.4756 53.7098 102.82C53.2698 102.82 52.8298 102.75 52.3898 102.75C48.1263 102.661 43.9926 104.219 40.8476 107.099C37.7027 109.979 35.7884 113.96 35.5026 118.215C35.2168 122.47 36.5815 126.671 39.313 129.946C42.0445 133.221 45.9327 135.318 50.1698 135.8V136H101.32C106.188 136.115 110.917 134.37 114.545 131.122C118.173 127.873 120.427 123.365 120.848 118.514C121.27 113.662 119.828 108.833 116.815 105.007C113.802 101.181 109.445 98.6471 104.63 97.92V97.88Z" fill="white" stroke="#313131" stroke-linecap="round" stroke-linejoin="round"/>
<path d="M80.0801 82.71V80.21" stroke="white" stroke-linecap="round" stroke-linejoin="round"/>
<path d="M80.0801 75.33V28.99" stroke="white" stroke-linecap="round" stroke-linejoin="round" stroke-dasharray="4.88 4.88"/>
<path d="M80.0801 26.55V24.05" stroke="white" stroke-linecap="round" stroke-linejoin="round"/>
<path d="M47.582 261.6L48.0802 261.598V261.587C48.6594 261.649 49.2237 261.817 49.7443 262.085C50.4141 262.429 50.9925 262.928 51.4317 263.539C51.8709 264.151 52.1584 264.858 52.2705 265.603C52.3826 266.347 52.3161 267.108 52.0763 267.822C51.8366 268.536 51.4306 269.182 50.8918 269.709C50.353 270.235 49.6969 270.625 48.9775 270.848C48.2581 271.07 47.4961 271.119 46.7544 270.989C46.0127 270.859 45.3124 270.555 44.7114 270.101L44.4112 269.874L44.1102 270.1L31.5202 279.54L31.2167 279.767L31.3541 280.121C31.5645 280.662 31.6717 281.238 31.6702 281.819L31.6702 281.819C31.6691 282.89 31.3063 283.929 30.6406 284.768C29.9748 285.607 29.0453 286.196 28.0026 286.44C26.96 286.684 25.8655 286.568 24.8967 286.112C23.9279 285.656 23.1417 284.886 22.6656 283.927C22.1894 282.968 22.0513 281.876 22.2737 280.828C22.4961 279.781 23.0658 278.839 23.8906 278.156C24.7153 277.473 25.7466 277.089 26.8171 277.066C27.8877 277.043 28.9347 277.382 29.7883 278.028L30.0886 278.256L30.3901 278.03L42.9801 268.59L43.2823 268.363L43.1469 268.011C42.9398 267.471 42.8325 266.898 42.8302 266.32C42.8331 265.738 42.9406 265.162 43.1475 264.618L43.2813 264.266L42.9801 264.04L30.3901 254.6L30.0883 254.374L29.7879 254.602C28.9313 255.252 27.8797 255.593 26.8046 255.569C25.7295 255.545 24.6942 255.157 23.8673 254.47C23.0403 253.782 22.4706 252.835 22.2508 251.783C22.0311 250.73 22.1743 249.634 22.657 248.673C23.1398 247.712 23.9338 246.943 24.9095 246.491C25.8853 246.039 26.9853 245.93 28.0305 246.183C29.0757 246.437 30.0044 247.036 30.6653 247.884C31.3262 248.733 31.6804 249.78 31.6702 250.855L31.6701 250.855L31.6702 250.862C31.6727 251.439 31.5657 252.01 31.3548 252.547L31.2156 252.901L31.52 253.13L44.11 262.58L44.413 262.807L44.7139 262.577C45.5377 261.947 46.545 261.604 47.582 261.6Z" fill="white" stroke="#313131"/>
<path d="M39.8403 88.78V86.28" stroke="white" stroke-linecap="round" stroke-linejoin="round"/>
<path d="M39.8403 80.9099V29.9099" stroke="white" stroke-linecap="round" stroke-linejoin="round" stroke-dasharray="5.37 5.37"/>
<path d="M39.8403 27.23V24.73" stroke="white" stroke-linecap="round" stroke-linejoin="round"/>
<path d="M39.8403 249.98V247.48" stroke="white" stroke-linecap="round" stroke-linejoin="round"/>
<path d="M39.8403 242.47V144.64" stroke="white" stroke-linecap="round" stroke-linejoin="round" stroke-dasharray="5.02 5.02"/>
<path d="M39.8403 142.13V139.63" stroke="white" stroke-linecap="round" stroke-linejoin="round"/>
<path d="M93.39 405.19C100.393 405.19 106.07 390.299 106.07 371.93C106.07 353.561 100.393 338.67 93.39 338.67C86.387 338.67 80.71 353.561 80.71 371.93C80.71 390.299 86.387 405.19 93.39 405.19Z" fill="white" stroke="#313131" stroke-miterlimit="10"/>
<path d="M132.788 351.437C136.752 338.963 135.562 327.451 130.13 325.724C124.698 323.998 117.081 332.711 113.117 345.186C109.153 357.66 110.342 369.172 115.774 370.898C121.206 372.624 128.823 363.911 132.788 351.437Z" fill="white" stroke="#313131" stroke-miterlimit="10"/>
<path d="M39.7499 426.65C26.8399 424.46 17.1499 418.13 18.0999 412.52C19.0499 406.91 30.2899 404.12 43.1899 406.3C56.0899 408.48 65.7899 414.82 64.8399 420.43C63.8899 426.04 52.6499 428.83 39.7499 426.65Z" fill="white" stroke="#313131" stroke-miterlimit="10"/>
<path d="M144.73 395.9C133.95 406.59 121.21 411.23 116.28 406.25C111.35 401.27 116.09 388.58 126.87 377.89C137.65 367.2 150.39 362.56 155.32 367.54C160.25 372.52 155.51 385.21 144.73 395.9Z" fill="white" stroke="#313131" stroke-miterlimit="10"/>
<path d="M70.44 366.57C80.87 381.7 84 397.64 77.38 402.18C70.76 406.72 57 398.15 46.57 383C36.14 367.85 33 352 39.63 347.41C46.26 342.82 60 351.45 70.44 366.57Z" fill="white" stroke="#313131" stroke-miterlimit="10"/>
<path d="M94.2798 403.53L95.2598 449.26" stroke="#313131" stroke-miterlimit="10" stroke-linecap="round"/>
<path d="M93.1001 359.56L94.2801 403.53" stroke="#313131" stroke-miterlimit="10" stroke-linecap="round"/>
<path d="M93.1801 352.39L93.1001 355.76" stroke="#313131" stroke-miterlimit="10" stroke-linecap="round"/>
<path d="M77.3301 400C84.6055 415.027 88.8625 431.335 89.8601 448" stroke="#313131" stroke-miterlimit="10" stroke-linecap="round"/>
<path d="M55.5498 366.7C64.2507 376.788 71.5746 387.985 77.3298 400" stroke="#313131" stroke-miterlimit="10" stroke-linecap="round"/>
<path d="M48.6997 359.45C48.6997 359.45 50.0097 360.66 52.1697 362.95" stroke="#313131" stroke-miterlimit="10" stroke-linecap="round"/>
<path d="M117.07 404.72C108.175 417.188 101.242 430.944 96.5098 445.51" stroke="#313131" stroke-miterlimit="10" stroke-linecap="round"/>
<path d="M131.65 388C126.281 393.123 121.4 398.734 117.07 404.76" stroke="#313131" stroke-miterlimit="10" stroke-linecap="round"/>
<path d="M147.23 376.08C143.266 378.333 139.543 380.987 136.12 384" stroke="#313131" stroke-miterlimit="10" stroke-linecap="round"/>
<path d="M116.53 367.79C109.53 389.9 100.08 422.56 95.6802 450.92" stroke="#313131" stroke-miterlimit="10" stroke-linecap="round"/>
<path d="M120.81 354.68C119.56 358.41 118.11 362.83 116.53 367.79" stroke="#313131" stroke-miterlimit="10" stroke-linecap="round"/>
<path d="M125.2 342C125.2 342 123.97 345.39 121.99 351.19" stroke="#313131" stroke-miterlimit="10" stroke-linecap="round"/>
<path d="M64.1899 417.37C72.9699 420.7 81.5299 427.12 85.6999 439.28" stroke="#313131" stroke-miterlimit="10" stroke-linecap="round"/>
<path d="M48 414.07C53.5378 414.354 59.0019 415.466 64.21 417.37" stroke="#313131" stroke-miterlimit="10" stroke-linecap="round"/>
<path d="M37.4697 414.33C37.4697 414.33 39.0297 414.11 41.6097 414.01" stroke="#313131" stroke-miterlimit="10" stroke-linecap="round"/>
<path d="M150.2 426.65C163.11 424.46 172.8 418.13 171.85 412.52C170.9 406.91 159.66 404.12 146.75 406.3C133.84 408.48 124.16 414.82 125.11 420.43C126.06 426.04 137.29 428.83 150.2 426.65Z" fill="white" stroke="#313131" stroke-miterlimit="10"/>
<path d="M126 417.27C117.12 420.56 108.42 426.99 104.21 439.27" stroke="#313131" stroke-miterlimit="10" stroke-linecap="round"/>
<path d="M143.33 414C137.417 414.168 131.568 415.272 126 417.27" stroke="#313131" stroke-miterlimit="10" stroke-linecap="round"/>
<path d="M152.47 414.33C152.47 414.33 151.47 414.19 149.68 414.08" stroke="#313131" stroke-miterlimit="10" stroke-linecap="round"/>
<path d="M125.85 478.14C129.755 469.962 131.804 461.022 131.85 451.96C131.856 446.537 131.047 441.143 129.45 435.96H61.9099C60.3081 441.142 59.4989 446.536 59.5099 451.96C59.5609 461.022 61.6095 469.961 65.5099 478.14H125.85Z" fill="#E6E6E6"/>
<path d="M60.1697 443.44C59.9797 444.67 59.8297 445.91 59.7197 447.18H131.63C131.52 445.91 131.37 444.67 131.18 443.44H60.1697Z" fill="#313131"/>
<path d="M130.87 462.56C131.09 461.32 131.29 460.07 131.44 458.82H59.9199C60.0699 460.07 60.2599 461.32 60.4899 462.56H130.87Z" fill="#313131"/>
<path d="M68.2399 452.17C68.2399 452.746 68.0693 453.308 67.7495 453.787C67.4297 454.265 66.9753 454.638 66.4435 454.858C65.9118 455.079 65.3267 455.136 64.7622 455.024C64.1977 454.912 63.6792 454.635 63.2722 454.228C62.8653 453.821 62.5881 453.302 62.4758 452.738C62.3636 452.173 62.4212 451.588 62.6414 451.056C62.8617 450.525 63.2347 450.07 63.7132 449.75C64.1918 449.431 64.7544 449.26 65.3299 449.26C66.1009 449.263 66.8395 449.57 67.3847 450.115C67.9298 450.66 68.2373 451.399 68.2399 452.17Z" fill="#838383"/>
<path d="M82.7897 452.17C82.7897 452.746 82.6191 453.308 82.2993 453.787C81.9795 454.265 81.5251 454.638 80.9933 454.858C80.4616 455.079 79.8765 455.136 79.312 455.024C78.7475 454.912 78.229 454.635 77.822 454.228C77.4151 453.821 77.1379 453.302 77.0256 452.738C76.9134 452.173 76.971 451.588 77.1912 451.056C77.4115 450.525 77.7845 450.07 78.263 449.75C78.7416 449.431 79.3042 449.26 79.8797 449.26C80.6515 449.26 81.3917 449.567 81.9374 450.112C82.4831 450.658 82.7897 451.398 82.7897 452.17Z" fill="#838383"/>
<path d="M97.34 452.17C97.34 452.746 97.1694 453.308 96.8496 453.787C96.5298 454.265 96.0754 454.638 95.5436 454.858C95.0119 455.079 94.4268 455.136 93.8623 455.024C93.2978 454.912 92.7793 454.635 92.3723 454.228C91.9654 453.821 91.6882 453.302 91.5759 452.738C91.4637 452.173 91.5213 451.588 91.7415 451.056C91.9618 450.525 92.3348 450.07 92.8133 449.75C93.2919 449.431 93.8545 449.26 94.43 449.26C95.2018 449.26 95.942 449.567 96.4877 450.112C97.0334 450.658 97.34 451.398 97.34 452.17Z" fill="#838383"/>
<path d="M108.98 455.08C110.587 455.08 111.89 453.777 111.89 452.17C111.89 450.563 110.587 449.26 108.98 449.26C107.373 449.26 106.07 450.563 106.07 452.17C106.07 453.777 107.373 455.08 108.98 455.08Z" fill="#838383"/>
<path d="M126.44 452.17C126.44 452.746 126.269 453.308 125.95 453.787C125.63 454.265 125.175 454.638 124.644 454.858C124.112 455.079 123.527 455.136 122.962 455.024C122.398 454.912 121.879 454.635 121.472 454.228C121.065 453.821 120.788 453.302 120.676 452.738C120.564 452.173 120.621 451.588 120.842 451.056C121.062 450.525 121.435 450.07 121.913 449.75C122.392 449.431 122.955 449.26 123.53 449.26C124.302 449.26 125.042 449.567 125.588 450.112C126.134 450.658 126.44 451.398 126.44 452.17Z" fill="#838383"/>
<path d="M443.65 250.08C442.641 249.964 441.626 250.251 440.827 250.878C440.027 251.505 439.508 252.422 439.38 253.43L420 403.17L432.62 404.59L447.07 254.3C447.166 253.289 446.861 252.281 446.222 251.492C445.582 250.703 444.659 250.196 443.65 250.08Z" fill="#B00101" stroke="#313131" stroke-linecap="round" stroke-linejoin="round"/>
<path d="M248.77 250.08C249.779 249.964 250.794 250.251 251.593 250.878C252.392 251.505 252.912 252.422 253.04 253.43L272.44 403.17L259.82 404.59L245.35 254.3C245.254 253.289 245.559 252.281 246.198 251.492C246.838 250.703 247.761 250.196 248.77 250.08Z" fill="#B00101" stroke="#313131" stroke-linecap="round" stroke-linejoin="round"/>
<path d="M465.94 400.15H268.67C266.135 400.15 264.08 402.205 264.08 404.74V473.54C264.08 476.075 266.135 478.13 268.67 478.13H465.94C468.475 478.13 470.53 476.075 470.53 473.54V404.74C470.53 402.205 468.475 400.15 465.94 400.15Z" fill="white" stroke="#313131" stroke-linecap="round" stroke-linejoin="round"/>
<path d="M470.73 409.77H263.88C261.577 409.77 259.71 411.637 259.71 413.94V464.36C259.71 466.663 261.577 468.53 263.88 468.53H470.73C473.033 468.53 474.9 466.663 474.9 464.36V413.94C474.9 411.637 473.033 409.77 470.73 409.77Z" fill="white" stroke="#313131" stroke-linecap="round" stroke-linejoin="round"/>
<path d="M357.67 400.15H160.4C157.865 400.15 155.81 402.205 155.81 404.74V473.54C155.81 476.075 157.865 478.13 160.4 478.13H357.67C360.205 478.13 362.26 476.075 362.26 473.54V404.74C362.26 402.205 360.205 400.15 357.67 400.15Z" fill="white" stroke="#313131" stroke-linecap="round" stroke-linejoin="round"/>
<path d="M362.46 409.77H155.61C153.307 409.77 151.44 411.637 151.44 413.94V464.36C151.44 466.663 153.307 468.53 155.61 468.53H362.46C364.763 468.53 366.63 466.663 366.63 464.36V413.94C366.63 411.637 364.763 409.77 362.46 409.77Z" fill="white" stroke="#313131" stroke-linecap="round" stroke-linejoin="round"/>
<path d="M345.37 422.65H174.55C171.783 422.65 169.54 424.893 169.54 427.66V449.22C169.54 451.987 171.783 454.23 174.55 454.23H345.37C348.137 454.23 350.38 451.987 350.38 449.22V427.66C350.38 424.893 348.137 422.65 345.37 422.65Z" fill="#313131" stroke="#313131" stroke-linecap="round" stroke-linejoin="round"/>
<path d="M185.59 431.25C183.786 431.972 182.289 433.297 181.353 435C180.418 436.703 180.102 438.678 180.461 440.588C180.82 442.498 181.83 444.223 183.319 445.471C184.809 446.719 186.685 447.411 188.628 447.429C190.571 447.447 192.46 446.791 193.973 445.571C195.485 444.352 196.528 442.645 196.922 440.743C197.317 438.84 197.039 436.86 196.135 435.139C195.232 433.419 193.76 432.066 191.97 431.31" stroke="white" stroke-width="3" stroke-miterlimit="10" stroke-linecap="round"/>
<path d="M188.79 428V434.21" stroke="white" stroke-width="3" stroke-miterlimit="10" stroke-linecap="round"/>
<path d="M280.67 447.23C280.67 447.23 272.5 449.8 270.77 450.13C269.04 450.46 263.77 449.13 263.56 451.13C263.35 453.13 266.62 455.06 271.75 457.13C276.88 459.2 282.51 460.89 286.33 460.72C290.15 460.55 289.42 453.02 289.63 451.72C289.84 450.42 280.67 447.23 280.67 447.23Z" fill="white" stroke="#313131" stroke-linecap="round" stroke-linejoin="round"/>
<path d="M274.43 455.31C268.04 452.67 265.06 451.31 263.76 450.66C263.641 450.805 263.571 450.983 263.56 451.17C263.4 453.26 266.62 455.1 271.75 457.17C276.88 459.24 282.51 460.93 286.33 460.76C287.76 460.69 288.55 459.6 288.99 458.19C283.992 458.227 279.038 457.247 274.43 455.31Z" fill="white" stroke="#313131" stroke-linecap="round" stroke-linejoin="round"/>
<path d="M330.32 370.55L328.18 371.72V374.83C328.18 374.83 283.55 382.27 282.97 386.16C282.39 390.05 280.62 447.92 280.62 447.92C280.62 447.92 287.82 455.67 289.37 453.92C290.92 452.17 291.32 446.56 291.32 446.56L298.72 395.3C298.72 395.3 348.99 399.92 356.58 397.58C364.17 395.24 367.86 385.14 368.05 380.47C368.24 375.8 368.25 373.66 368.25 373.66L334 369L330.32 370.55Z" fill="white" stroke="#313131" stroke-linecap="round" stroke-linejoin="round"/>
<path d="M315.15 449.32L314.83 449.85C313.215 452.428 311.371 454.854 309.32 457.1C306.01 460.6 300.57 463.52 300.76 464.68C300.95 465.84 304.65 466.63 317.29 462.74C322.98 460.99 327.21 460.99 327.79 459.04C328.37 457.09 323.71 448.74 323.71 448.74L315.15 449.32Z" fill="white" stroke="#313131" stroke-linecap="round" stroke-linejoin="round"/>
<path d="M327.79 459C327.863 458.059 327.69 457.115 327.29 456.26C323.016 458.292 318.564 459.926 313.99 461.14C309.855 462.285 305.64 463.118 301.38 463.63C300.96 464.04 300.72 464.39 300.76 464.63C300.95 465.8 304.65 466.58 317.29 462.69C323 461 327.21 461 327.79 459Z" fill="white" stroke="#313131" stroke-linecap="round" stroke-linejoin="round"/>
<path d="M342.58 378.91C342.58 378.91 337.91 374.83 337.52 377.16C337.13 379.49 336.35 380.08 336.35 380.08C336.35 380.08 303.68 384 300 386.3C296.32 388.6 295.14 391.75 297.28 396.42C299.42 401.09 313.81 452.24 313.81 452.24C315.308 452.917 316.873 453.436 318.48 453.79C320.62 454.18 325.09 452.04 325.09 452.04C325.09 452.04 324.55 442.51 323.19 439.4C321.83 436.29 316.26 400.4 316.26 400.4C316.26 400.4 339.87 400.49 347.85 400.49C355.83 400.49 364.57 393.88 366.32 388.43C368.07 382.98 367.32 381.82 367.32 381.82" fill="white"/>
<path d="M342.58 378.91C342.58 378.91 337.91 374.83 337.52 377.16C337.13 379.49 336.35 380.08 336.35 380.08C336.35 380.08 303.68 384 300 386.3C296.32 388.6 295.14 391.75 297.28 396.42C299.42 401.09 313.81 452.24 313.81 452.24C315.308 452.917 316.873 453.436 318.48 453.79C320.62 454.18 325.09 452.04 325.09 452.04C325.09 452.04 324.55 442.51 323.19 439.4C321.83 436.29 316.26 400.4 316.26 400.4C316.26 400.4 339.87 400.49 347.85 400.49C355.83 400.49 364.57 393.88 366.32 388.43C368.07 382.98 367.32 381.82 367.32 381.82" stroke="#313131" stroke-linecap="round" stroke-linejoin="round"/>
<path d="M316.24 400.41L315.11 394.29" stroke="#313131" stroke-linecap="round" stroke-linejoin="round"/>
<path d="M353.37 387.51C353.996 388.383 354.503 389.334 354.88 390.34" stroke="#313131" stroke-linecap="round" stroke-linejoin="round"/>
<path d="M344.48 380.76C347.358 381.948 349.959 383.718 352.12 385.96" stroke="#313131" stroke-linecap="round" stroke-linejoin="round"/>
<path d="M351.87 381.86C354.877 383.238 357.37 385.535 358.99 388.42" stroke="#313131" stroke-linecap="round" stroke-linejoin="round"/>
<path d="M330.8 322.82C330.8 322.82 330.8 323.1 330.75 323.58C330.58 326.33 327.53 330.42 329.35 335.58C333.48 347.22 332.64 355.77 332.27 353.28C332.85 357.17 329.35 365.53 329.35 368.28C329.35 371.03 322.15 371.41 338.49 376.28C354.83 381.15 360.49 380.93 364.55 379.37C368.61 377.81 371.55 376.45 371.94 373.15C372.33 369.85 368.83 364.01 368.64 358.95C368.45 353.89 367.75 338.06 362.89 327.95C358.03 317.84 345.19 310.83 345.19 310.83L330.8 322.82Z" fill="white" stroke="#313131" stroke-linecap="round" stroke-linejoin="round"/>
<path d="M356.4 361C357.25 360.35 358.04 359.69 358.77 359" stroke="#313131" stroke-linecap="round" stroke-linejoin="round"/>
<path d="M335.9 372.44C341.924 369.793 347.737 366.69 353.29 363.16" stroke="#313131" stroke-linecap="round" stroke-linejoin="round"/>
<path d="M342.17 371.32C339.859 372.476 337.441 373.404 334.95 374.09" stroke="#313131" stroke-linecap="round" stroke-linejoin="round"/>
<path d="M345.33 369.61C345.33 369.61 344.78 369.95 343.86 370.45" stroke="#313131" stroke-linecap="round" stroke-linejoin="round"/>
<path d="M348.02 343.9L353.27 337.49" stroke="#313131" stroke-linecap="round" stroke-linejoin="round"/>
<path d="M329 279.69C327.684 281.064 326.511 282.568 325.5 284.18C324.65 285.86 324.5 287.08 323.05 288.18C321.6 289.28 318.6 288.57 318.68 290.3C318.76 292.03 320.56 293.68 320.56 293.68C320.56 293.68 319.1 304.24 319.65 305.92C320.2 307.6 327.76 307.92 327.76 307.92L331.61 320.46L345.2 311.25L345.56 307.6C345.9 306.12 348.34 301.54 350.36 298.1C352.38 294.66 351.48 285.6 346.6 281.7C341.72 277.8 335.26 278.2 333.27 278.06C331.28 277.92 329 279.69 329 279.69Z" fill="white" stroke="#313131" stroke-linecap="round" stroke-linejoin="round"/>
<path d="M321.44 295.72C322.082 296.361 322.891 296.808 323.776 297.01C324.66 297.212 325.584 297.16 326.44 296.86" stroke="#313131" stroke-linecap="round" stroke-linejoin="round"/>
<path d="M327.22 289.37C326.89 290.14 326.37 290.65 326.06 290.52C325.75 290.39 325.77 289.65 326.11 288.88C326.45 288.11 326.96 287.6 327.26 287.73C327.56 287.86 327.55 288.6 327.22 289.37Z" fill="#313131"/>
<path d="M326.69 285.55C326.69 285.55 329.62 284.97 330.06 287.87" stroke="#313131" stroke-linecap="round" stroke-linejoin="round"/>
<path d="M327.71 307.87L332.42 307.69L329.19 311.63L327.71 307.87Z" fill="#313131" stroke="#313131" stroke-linecap="round" stroke-linejoin="round"/>
<path d="M338.46 302.99L336.42 302.38L335.21 304.28" stroke="#313131" stroke-linecap="round" stroke-linejoin="round"/>
<path d="M337.32 275.05C337.32 275.05 340.26 271.67 336.73 270.05C333.2 268.43 321.19 271.36 322.48 276.63C323.77 281.9 334.98 282.57 336.05 282.63C337.12 282.69 333.91 283.85 334.79 285.45C335.67 287.05 337.79 287.85 337.9 289.58C338.01 291.31 335.9 293.63 336.9 294.64C337.9 295.65 339.5 294.14 340.52 293.75C341.54 293.36 344.33 296.17 342.13 299.75C339.93 303.33 338.45 302.96 338.45 302.96C338.191 303.619 338.149 304.343 338.328 305.028C338.508 305.713 338.901 306.323 339.45 306.77C341.45 308.46 345.45 307.96 346.45 306.32C347.45 304.68 349.18 303.2 352.78 299.66C356.38 296.12 358.09 287.18 355.6 281.01C353.11 274.84 341.82 272.33 337.32 275.05Z" fill="#313131" stroke="#313131" stroke-linecap="round" stroke-linejoin="round"/>
<path d="M345.15 307.89L326.62 321.54L327.68 327.43L348.54 312.06L345.15 307.89Z" fill="white" stroke="#313131" stroke-linecap="round" stroke-linejoin="round"/>
<path d="M298.89 387.48L331.53 380.33L323.9 375.8L292.93 382.71L298.89 387.48Z" fill="white" stroke="#313131" stroke-linecap="round" stroke-linejoin="round"/>
<path d="M284.36 356.51L298.89 387.48L292.93 382.71L278.16 353.65L284.36 356.51Z" fill="#313131" stroke="#313131" stroke-linecap="round" stroke-linejoin="round"/>
<path d="M310.61 374.31L303.09 376.25L298.43 383C298.617 383.181 298.84 383.321 299.084 383.411C299.329 383.5 299.59 383.538 299.85 383.52C300.63 383.39 302.7 381.57 302.7 381.57L308.15 380.14C308.15 380.14 305.3 381.83 305.3 382.22C305.3 382.61 305.82 382.74 307.11 382.61C308.4 382.48 311.52 379.61 311.52 379.61L313.6 377.01L310.61 374.31Z" fill="white" stroke="#313131" stroke-linecap="round" stroke-linejoin="round"/>
<path d="M330.93 340.54L327.08 358.1L310.61 374.31L314.5 377.94L328.18 371.72L329.13 369.25L332.43 354.54L330.93 340.54Z" fill="white" stroke="#313131" stroke-linecap="round" stroke-linejoin="round"/>
<path d="M306.05 370.77C306.05 370.77 300.8 371.55 298.86 371.55C296.92 371.55 292.25 371.94 291.47 372.33C290.69 372.72 286.99 375.05 287.19 376.8C287.39 378.55 290.69 377 290.69 377C291.376 378.574 292.224 380.072 293.22 381.47C294.77 383.61 295.55 382.83 298.66 381.67C301.77 380.51 306.44 377 306.44 377L309.17 374.47L306.05 370.77Z" fill="white" stroke="#313131" stroke-linecap="round" stroke-linejoin="round"/>
<path d="M351.72 316.09C351.72 316.09 343.72 314.92 340.83 318.81C337.51 323.502 335.314 328.894 334.41 334.57C333.82 339.62 330.13 349.74 330.13 349.74L305.4 370.33L309.68 376.74C309.68 376.74 339.68 362.74 340.44 361.8C341.2 360.86 351.13 335.15 351.13 335.15" fill="white"/>
<path d="M351.72 316.09C351.72 316.09 343.72 314.92 340.83 318.81C337.51 323.502 335.314 328.894 334.41 334.57C333.82 339.62 330.13 349.74 330.13 349.74L305.4 370.33L309.68 376.74C309.68 376.74 339.68 362.74 340.44 361.8C341.2 360.86 351.13 335.15 351.13 335.15" stroke="#313131" stroke-linecap="round" stroke-linejoin="round"/>
<path d="M28.5 479.14H488.61" stroke="white" stroke-linecap="round" stroke-linejoin="round"/>
</svg>
