<svg width="500" height="500" viewBox="0 0 500 500" fill="none" xmlns="http://www.w3.org/2000/svg">
<path d="M500 382.4H0V382.65H500V382.4Z" fill="#EBEBEB"/>
<path d="M449.9 398.49H416.78V398.74H449.9V398.49Z" fill="#EBEBEB"/>
<path d="M331.22 401.21H322.53V401.46H331.22V401.21Z" fill="#EBEBEB"/>
<path d="M415.78 389.21H396.59V389.46H415.78V389.21Z" fill="#EBEBEB"/>
<path d="M95.65 390.89H52.46V391.14H95.65V390.89Z" fill="#EBEBEB"/>
<path d="M110.89 390.89H104.56V391.14H110.89V390.89Z" fill="#EBEBEB"/>
<path d="M225.15 395.11H131.47V395.36H225.15V395.11Z" fill="#EBEBEB"/>
<path d="M237 337.8H43.91C42.3973 337.797 40.9475 337.195 39.8788 336.124C38.8102 335.053 38.21 333.603 38.21 332.09V60.66C38.2231 59.156 38.8292 57.718 39.8964 56.6582C40.9637 55.5985 42.4059 55.0026 43.91 55H237C238.514 55 239.967 55.6016 241.038 56.6724C242.108 57.7433 242.71 59.1956 242.71 60.71V332.09C242.71 333.604 242.108 335.057 241.038 336.128C239.967 337.198 238.514 337.8 237 337.8ZM43.91 55.2C42.4636 55.2026 41.0774 55.7791 40.0556 56.8027C39.0338 57.8264 38.46 59.2136 38.46 60.66V332.09C38.46 333.536 39.0338 334.924 40.0556 335.947C41.0774 336.971 42.4636 337.547 43.91 337.55H237C238.447 337.547 239.834 336.971 240.858 335.948C241.881 334.924 242.457 333.537 242.46 332.09V60.66C242.457 59.2127 241.881 57.8255 240.858 56.8021C239.834 55.7787 238.447 55.2026 237 55.2H43.91Z" fill="#EBEBEB"/>
<path d="M453.31 337.8H260.21C258.696 337.797 257.246 337.195 256.175 336.125C255.105 335.054 254.503 333.604 254.5 332.09V60.66C254.516 59.1551 255.124 57.7171 256.193 56.6576C257.262 55.5981 258.705 55.0025 260.21 55H453.31C454.812 55.0052 456.252 55.6022 457.317 56.6617C458.382 57.7212 458.987 59.1578 459 60.66V332.09C459 333.601 458.401 335.05 457.335 336.121C456.268 337.191 454.821 337.795 453.31 337.8ZM260.21 55.2C258.763 55.2026 257.375 55.7787 256.352 56.8021C255.329 57.8255 254.753 59.2127 254.75 60.66V332.09C254.753 333.537 255.329 334.924 256.352 335.948C257.375 336.971 258.763 337.547 260.21 337.55H453.31C454.757 337.547 456.145 336.971 457.168 335.948C458.191 334.924 458.767 333.537 458.77 332.09V60.66C458.767 59.2127 458.191 57.8255 457.168 56.8021C456.145 55.7787 454.757 55.2026 453.31 55.2H260.21Z" fill="#EBEBEB"/>
<path d="M285.78 58.2801C270.81 60.4745 256.928 67.382 246.15 78.0001C234.6 89.4001 227.47 104.57 215.9 116C204.437 127.348 190.107 135.37 174.44 139.21C161.55 142.34 149.34 139.91 136.6 143.73C116.227 149.78 98.036 161.588 84.2144 177.731C70.3928 193.875 61.5293 213.668 58.6901 234.73C56.3001 252.27 58.3201 270.73 66.6901 286.36C73.3292 298.659 83.5515 308.647 96.0001 315C116.62 325.42 140.79 324.75 163.73 327.47C185.197 330.004 206.177 335.67 226 344.29C250.78 355.09 273.75 370.5 299.92 377.29C331.24 385.41 366.46 379.74 392.01 359.88C417.56 340.02 431.89 305.69 425.4 273.99C421.4 254.54 410.4 237.32 403.77 218.63C398.047 202.556 395.552 185.51 396.43 168.47C397.26 152.41 401.06 136 396.86 120.47C393.71 108.76 386.21 98.6401 377.59 90.1101C354.94 67.6501 318.33 53.1601 285.78 58.2801Z" fill="white" fill-opacity="0.44"/>
<path d="M211.98 176.89H206.87L205.6 172.88L204.36 176.89H199.11L203.25 180.47L201.27 186.88L205.6 182.49L210.04 186.88L207.98 180.4L211.98 176.89Z" fill="white"/>
<path d="M304.91 340.47H299.79L298.52 336.46L297.28 340.47H292.03L296.17 344.05L294.19 350.46L298.52 346.07L302.96 350.46L300.91 343.98L304.91 340.47Z" fill="white"/>
<path d="M212.38 246.62H210.19L209.65 244.9L209.12 246.62H206.87L208.64 248.15L207.8 250.89L209.65 249.02L211.55 250.89L210.67 248.12L212.38 246.62Z" fill="white"/>
<path d="M349.7 231.33H347.51L346.97 229.61L346.44 231.33H344.19L345.96 232.86L345.12 235.6L346.97 233.72L348.87 235.6L347.99 232.83L349.7 231.33Z" fill="white"/>
<path d="M213.59 222.6H211.41L210.86 220.88L210.33 222.6H208.09L209.86 224.13L209.01 226.87L210.86 225L212.76 226.87L211.88 224.1L213.59 222.6Z" fill="white"/>
<path d="M136.92 230.01H134.73L134.19 228.3L133.66 230.01H131.41L133.18 231.54L132.34 234.29L134.19 232.41L136.09 234.29L135.21 231.52L136.92 230.01Z" fill="white"/>
<path d="M145.91 271.72H143.73L143.18 270L142.65 271.72H140.41L142.18 273.25L141.33 275.99L143.18 274.11L145.08 275.99L144.2 273.22L145.91 271.72Z" fill="white"/>
<path d="M339.87 188.27H337.68L337.14 186.55L336.61 188.27H334.36L336.13 189.8L335.29 192.54L337.14 190.67L339.04 192.54L338.16 189.77L339.87 188.27Z" fill="white"/>
<path d="M323.62 129.86H322.04L321.65 128.61L321.26 129.86H319.64L320.92 130.96L320.31 132.94L321.65 131.59L323.02 132.94L322.38 130.94L323.62 129.86Z" fill="white"/>
<path d="M231.72 188.63H230.14L229.75 187.38L229.36 188.63H227.74L229.02 189.73L228.41 191.71L229.75 190.36L231.12 191.71L230.49 189.71L231.72 188.63Z" fill="white"/>
<path d="M172.42 201.41H170.84L170.44 200.17L170.06 201.41H168.44L169.72 202.51L169.11 204.5L170.44 203.14L171.81 204.5L171.18 202.5L172.42 201.41Z" fill="white"/>
<path d="M257.68 129.71H256.1L255.71 128.47L255.32 129.71H253.7L254.98 130.81L254.37 132.79L255.71 131.44L257.08 132.79L256.44 130.79L257.68 129.71Z" fill="white"/>
<path d="M376.29 206.99H374.71L374.32 205.75L373.93 206.99H372.31L373.59 208.1L372.98 210.08L374.32 208.72L375.69 210.08L375.05 208.08L376.29 206.99Z" fill="white"/>
<path d="M335.13 157.99H333.56L333.16 156.75L332.78 157.99H331.15L332.44 159.1L331.82 161.08L333.16 159.72L334.53 161.08L333.9 159.08L335.13 157.99Z" fill="white"/>
<path d="M383.99 237.92H382.41L382.01 236.68L381.63 237.92H380.01L381.29 239.03L380.68 241.01L382.01 239.65L383.39 241.01L382.75 239L383.99 237.92Z" fill="white"/>
<path d="M347.56 300.01H345.98L345.58 298.77L345.2 300.01H343.58L344.86 301.11L344.25 303.09L345.58 301.74L346.95 303.09L346.32 301.09L347.56 300.01Z" fill="white"/>
<path d="M320.7 233.84H319.12L318.73 232.6L318.34 233.84H316.72L318 234.95L317.39 236.93L318.73 235.58L320.1 236.93L319.46 234.93L320.7 233.84Z" fill="white"/>
<path d="M230.84 243.5H229.26L228.86 242.26L228.48 243.5H226.86L228.14 244.61L227.53 246.59L228.86 245.24L230.24 246.59L229.6 244.59L230.84 243.5Z" fill="white"/>
<path d="M159.52 319.29H157.33L156.79 317.57L156.25 319.29H154.01L155.78 320.82L154.94 323.56L156.79 321.68L158.69 323.56L157.81 320.79L159.52 319.29Z" fill="white"/>
<path d="M342.62 368.64H340.44L339.89 366.93L339.36 368.64H337.11L338.89 370.17L338.04 372.91L339.89 371.04L341.79 372.91L340.91 370.14L342.62 368.64Z" fill="white"/>
<path d="M210.38 275.3H208.19L207.65 273.58L207.12 275.3H204.87L206.65 276.83L205.8 279.57L207.65 277.7L209.55 279.57L208.67 276.8L210.38 275.3Z" fill="white"/>
<path d="M372.957 325.974C377.6 324.051 379.805 318.727 377.882 314.084C375.958 309.441 370.635 307.236 365.992 309.159C361.349 311.082 359.144 316.406 361.067 321.049C362.99 325.692 368.314 327.897 372.957 325.974Z" fill="white"/>
<path d="M285.75 102.71C285.75 103.727 285.449 104.72 284.884 105.566C284.319 106.411 283.516 107.07 282.577 107.459C281.638 107.848 280.604 107.95 279.607 107.751C278.61 107.553 277.694 107.063 276.975 106.345C276.257 105.626 275.767 104.71 275.569 103.713C275.37 102.716 275.472 101.682 275.861 100.743C276.25 99.8039 276.909 99.0011 277.754 98.4363C278.6 97.8715 279.593 97.5701 280.61 97.5701C281.973 97.5701 283.281 98.1116 284.245 99.0755C285.208 100.039 285.75 101.347 285.75 102.71Z" fill="white"/>
<path d="M99.69 213.66L95.46 215C94.2463 214.792 92.9981 215.022 91.9378 215.648C90.8775 216.275 90.0739 217.257 89.67 218.42L86.4 221.47C86.3297 221.535 86.2835 221.621 86.269 221.716C86.2545 221.81 86.2727 221.907 86.3205 221.989C86.3682 222.072 86.4427 222.136 86.5317 222.171C86.6207 222.205 86.7189 222.209 86.81 222.18L91.05 220.9C92.2897 221.156 93.5802 220.948 94.6769 220.316C95.7735 219.684 96.6001 218.671 97 217.47L100.16 214.41C100.238 214.339 100.288 214.243 100.302 214.139C100.316 214.035 100.293 213.929 100.237 213.839C100.181 213.75 100.096 213.684 99.9961 213.651C99.8961 213.618 99.7878 213.621 99.69 213.66Z" fill="white"/>
<path d="M250 427.56C357.083 427.56 443.89 422.492 443.89 416.24C443.89 409.988 357.083 404.92 250 404.92C142.918 404.92 56.1101 409.988 56.1101 416.24C56.1101 422.492 142.918 427.56 250 427.56Z" fill="#F5F5F5"/>
<path d="M405.99 353.04L419.86 344.1L415.56 355.84H405.19L405.99 353.04Z" fill="#263238"/>
<path opacity="0.2" d="M405.99 353.04L419.86 344.1L415.56 355.84H405.19L405.99 353.04Z" fill="white"/>
<path opacity="0.4" d="M406.27 353.17L419.71 344.51L415.56 355.84H405.44L406.27 353.17Z" fill="white"/>
<path d="M419.89 361.27L430.58 336.24H423.72L413.87 361.73L419.89 361.27Z" fill="#263238"/>
<path opacity="0.2" d="M419.89 361.27L430.58 336.24H423.72L413.87 361.73L419.89 361.27Z" fill="white"/>
<path opacity="0.4" d="M419.89 361.27L430.49 336.45H423.83L414.08 361.71L419.89 361.27Z" fill="white"/>
<path d="M420.31 361.18L430.92 336.08L436.84 335.93L426.63 360.28L420.31 361.18Z" fill="#263238"/>
<path opacity="0.2" d="M420.31 361.18L430.92 336.08L436.84 335.93L426.63 360.28L420.31 361.18Z" fill="white"/>
<path opacity="0.4" d="M420.43 361.16L431.08 336.24L436.78 336.08L426.63 360.28L420.43 361.16Z" fill="white"/>
<path d="M437.18 335.78L442.86 335.66L432.68 359.27L427 360.09L437.18 335.78Z" fill="#263238"/>
<path opacity="0.2" d="M437.18 335.78L442.86 335.66L432.68 359.27L427 360.09L437.18 335.78Z" fill="white"/>
<path opacity="0.4" d="M437.28 335.93L442.81 335.77L432.68 359.27L427.13 360.07L437.28 335.93Z" fill="white"/>
<path d="M443.22 335.66L448.2 335.51L438.42 358.44L432.98 359.24L443.22 335.66Z" fill="#263238"/>
<path opacity="0.2" d="M443.22 335.66L448.2 335.51L438.42 358.44L432.98 359.24L443.22 335.66Z" fill="white"/>
<path opacity="0.4" d="M443.33 335.77L448.17 335.59L438.42 358.44L433.14 359.21L443.33 335.77Z" fill="white"/>
<path d="M400.17 355.92L391.42 379.99L407.79 375.45L415.89 352.12L400.17 355.92Z" fill="#ECEFF1"/>
<path opacity="0.2" d="M400.17 355.92L391.42 379.99L407.79 375.45L415.89 352.12L400.17 355.92Z" fill="black"/>
<path d="M377.32 342.56L400.17 355.92L391.42 379.99L369.15 365.19L377.32 342.56Z" fill="#ECEFF1"/>
<path opacity="0.05" d="M377.32 342.56L400.17 355.92L391.42 379.99L369.15 365.19L377.32 342.56Z" fill="black"/>
<path d="M377.32 342.56L394.18 341.26L415.89 352.12L400.17 355.92L377.32 342.56Z" fill="#ECEFF1"/>
<path opacity="0.4" d="M377.32 342.56L394.18 341.26L415.89 352.12L400.17 355.92L377.32 342.56Z" fill="white"/>
<path d="M406.42 333.64L407.06 333.97L401.63 348.56L400.82 348.31L406.42 333.64Z" fill="#263238"/>
<path opacity="0.4" d="M406.42 333.64L406.67 333.77L401.09 348.39L400.82 348.31L406.42 333.64Z" fill="white"/>
<path opacity="0.2" d="M407.06 333.97L406.67 333.77L401.09 348.39L401.63 348.56L407.06 333.97Z" fill="white"/>
<path d="M327.66 339.96L316.4 376.58L329.36 374.56L340.79 339.48L327.66 339.96Z" fill="#263238"/>
<path opacity="0.2" d="M327.66 339.96L316.4 376.58L329.36 374.56L340.79 339.48L327.66 339.96Z" fill="white"/>
<path opacity="0.4" d="M327.86 340.17L316.68 376.54L329.36 374.56L340.69 339.77L327.86 340.17Z" fill="white"/>
<path d="M341.35 339.48L330.09 374.56L342.32 372.77L353.5 338.99L341.35 339.48Z" fill="#263238"/>
<path opacity="0.2" d="M341.35 339.48L330.09 374.56L342.32 372.77L353.5 338.99L341.35 339.48Z" fill="white"/>
<path opacity="0.4" d="M341.56 339.77L330.38 374.51L342.32 372.77L353.44 339.2L341.56 339.77Z" fill="white"/>
<path d="M353.99 339L342.85 372.49L353.99 371.07L365.13 338.71L353.99 339Z" fill="#263238"/>
<path opacity="0.2" d="M353.99 339L342.85 372.49L353.99 371.07L365.13 338.71L353.99 339Z" fill="white"/>
<path opacity="0.4" d="M354.14 339.2L343.15 372.45L353.99 371.07L365.03 338.99L354.14 339.2Z" fill="white"/>
<path d="M365.58 338.42L354.32 370.91L364.89 369.41L375.82 338.06L365.58 338.42Z" fill="#263238"/>
<path opacity="0.2" d="M365.58 338.42L354.32 370.91L364.89 369.41L375.82 338.06L365.58 338.42Z" fill="white"/>
<path opacity="0.4" d="M365.7 338.63L354.57 370.88L364.89 369.41L375.75 338.26L365.7 338.63Z" fill="white"/>
<path d="M385.49 355.6L384.16 359.45L367.68 362.73L373.44 346.69L385.49 355.6Z" fill="#263238"/>
<path opacity="0.2" d="M385.49 355.6L384.16 359.45L367.68 362.73L373.44 346.69L385.49 355.6Z" fill="white"/>
<path opacity="0.4" d="M385.37 355.92L384.16 359.45L367.98 362.67L373.56 347.01L385.37 355.92Z" fill="white"/>
<path d="M416.25 353.81L400.54 383.08C396.34 381.08 396.31 369.17 399.44 362.33C403.31 355.69 411.9 352.43 416.25 353.81Z" fill="#263238"/>
<g opacity="0.2">
<path d="M401.8 380.72L401.12 381.99C397.23 378.32 397.56 367.8 399.44 362.33C396.48 374.06 401.8 380.72 401.8 380.72Z" fill="black"/>
</g>
<g opacity="0.3">
<path d="M416.25 353.81L400.54 383.08C396.34 381.08 396.31 369.17 399.44 362.33C403.31 355.69 411.9 352.43 416.25 353.81Z" fill="white"/>
</g>
<path opacity="0.2" d="M400.42 361.42C406.63 356 411.05 355.15 414.94 356.25L415.57 355.07C410.76 354.47 406.27 355.63 400.42 361.42Z" fill="white"/>
<path d="M402.33 364.87C397.73 372.87 396.71 380.87 400.05 382.79C403.39 384.71 409.82 379.79 414.42 371.85C419.02 363.91 420.04 355.85 416.7 353.94C413.36 352.03 406.93 356.91 402.33 364.87Z" fill="#ECEFF1"/>
<path opacity="0.4" d="M402.33 364.87C397.73 372.87 396.71 380.87 400.05 382.79C403.39 384.71 409.82 379.79 414.42 371.85C419.02 363.91 420.04 355.85 416.7 353.94C413.36 352.03 406.93 356.91 402.33 364.87Z" fill="white"/>
<path opacity="0.2" d="M402.35 364.57C401.464 366.146 400.724 367.799 400.14 369.51C399.895 370.159 399.872 370.872 400.074 371.536C400.277 372.2 400.694 372.778 401.26 373.18C402.86 374.1 405.95 371.75 408.16 367.93C410.37 364.11 410.86 360.25 409.26 359.32C408.32 358.78 406.51 359.13 405.2 360.63C404.13 361.853 403.176 363.172 402.35 364.57Z" fill="black"/>
<path d="M410.76 367.28L406.58 365.59L404.21 363C403.639 363.178 403.151 363.556 402.837 364.065C402.523 364.574 402.403 365.18 402.5 365.77L405.72 366.83L408.92 370.44L410.76 367.28Z" fill="#263238"/>
<path opacity="0.2" d="M410.76 367.28L406.58 365.59L404.21 363C403.639 363.178 403.151 363.556 402.837 364.065C402.523 364.574 402.403 365.18 402.5 365.77L405.72 366.83L408.92 370.44L410.76 367.28Z" fill="white"/>
<path d="M409.17 368.49C408.66 369.38 408.55 370.26 408.92 370.49C409.29 370.72 410 370.16 410.51 369.28C411.02 368.4 411.13 367.51 410.76 367.28C410.39 367.05 409.68 367.61 409.17 368.49Z" fill="#263238"/>
<path opacity="0.4" d="M409.17 368.49C408.66 369.38 408.55 370.26 408.92 370.49C409.29 370.72 410 370.16 410.51 369.28C411.02 368.4 411.13 367.51 410.76 367.28C410.39 367.05 409.68 367.61 409.17 368.49Z" fill="white"/>
<path opacity="0.2" d="M402.87 364.06C402.576 364.594 402.447 365.203 402.5 365.81L405.72 366.87L408.92 370.48C408.52 370.18 408.8 368.98 409.26 368.35C409.26 368.35 408 367.56 402.87 364.06Z" fill="black"/>
<path opacity="0.2" d="M410.48 367.25L406.47 365.74L403.98 363.13L403.82 363.19L406.4 365.77L410.25 367.33L410.48 367.25Z" fill="white"/>
<g opacity="0.2">
<path d="M409.37 368.61C408.94 369.36 408.84 370.12 409.15 370.3C409.46 370.48 410.08 370.02 410.51 369.3C410.94 368.58 411.04 367.79 410.73 367.6C410.42 367.41 409.8 367.85 409.37 368.61Z" fill="black"/>
<path opacity="0.4" d="M409.37 368.61C408.94 369.36 408.84 370.12 409.15 370.3C409.46 370.48 410.08 370.02 410.51 369.3C410.94 368.58 411.04 367.79 410.73 367.6C410.42 367.41 409.8 367.85 409.37 368.61Z" fill="black"/>
</g>
<path d="M402.75 380.94L402.95 381.26L414.41 375.67L414.26 375.37L402.75 380.94Z" fill="#263238"/>
<path opacity="0.1" d="M402.75 380.94L402.95 381.26L414.41 375.67L414.26 375.37L402.75 380.94Z" fill="white"/>
<path d="M417.71 359.69H418.01L418.33 369.73H417.93L417.71 359.69Z" fill="#263238"/>
<path opacity="0.1" d="M417.71 359.69H418.01L418.33 369.73H417.93L417.71 359.69Z" fill="white"/>
<path d="M404.26 362.14L418.33 369.73L418.16 369.96L404 362.4L404.26 362.14Z" fill="#263238"/>
<path opacity="0.1" d="M404.26 362.14L418.33 369.73L418.16 369.96L404 362.4L404.26 362.14Z" fill="white"/>
<path d="M403.65 363.11L403.89 362.81L414.51 375.23L414.35 375.47L403.65 363.11Z" fill="#263238"/>
<path opacity="0.1" d="M403.65 363.11L403.89 362.81L414.51 375.23L414.35 375.47L403.65 363.11Z" fill="white"/>
<path d="M415.1 372.19C414.1 373.98 413.84 375.78 414.59 376.19C415.34 376.6 416.79 375.53 417.82 373.74C418.85 371.95 419.08 370.15 418.33 369.74C417.58 369.33 416.14 370.4 415.1 372.19Z" fill="#263238"/>
<path opacity="0.2" d="M415.1 372.19C414.1 373.98 413.84 375.78 414.59 376.19C415.34 376.6 416.79 375.53 417.82 373.74C418.85 371.95 419.08 370.15 418.33 369.74C417.58 369.33 416.14 370.4 415.1 372.19Z" fill="white"/>
<path opacity="0.1" d="M415.38 372.35C414.45 373.96 414.25 375.57 414.92 375.96C415.59 376.35 416.92 375.36 417.82 373.76C418.72 372.16 418.95 370.53 418.28 370.14C417.61 369.75 416.31 370.74 415.38 372.35Z" fill="black"/>
<path opacity="0.2" d="M384.16 359.45L369.15 365.19L370.25 362.14L384.16 359.45Z" fill="black"/>
<path d="M397.23 157.26C411.937 157.26 423.86 145.337 423.86 130.63C423.86 115.923 411.937 104 397.23 104C382.523 104 370.6 115.923 370.6 130.63C370.6 145.337 382.523 157.26 397.23 157.26Z" fill="#ECEFF1"/>
<path opacity="0.4" d="M397.23 157.26C411.937 157.26 423.86 145.337 423.86 130.63C423.86 115.923 411.937 104 397.23 104C382.523 104 370.6 115.923 370.6 130.63C370.6 145.337 382.523 157.26 397.23 157.26Z" fill="white"/>
<path opacity="0.4" d="M397.23 157.26C411.937 157.26 423.86 145.337 423.86 130.63C423.86 115.923 411.937 104 397.23 104C382.523 104 370.6 115.923 370.6 130.63C370.6 145.337 382.523 157.26 397.23 157.26Z" fill="white"/>
<path opacity="0.2" d="M373.77 118C373.17 121 375.25 122.26 379.82 122C390.652 121.395 401.24 118.541 410.91 113.62C413.03 112.17 413.24 110.52 412.44 108.76C425.37 119.03 426.27 132.76 420.64 143.31C419.269 145.388 417.213 146.92 414.83 147.64C407.927 150.358 400.688 152.131 393.31 152.91C386.48 153.91 382.47 153.46 380.93 151.68C369.28 142.65 368.3 128.8 373.77 118Z" fill="white"/>
<path opacity="0.2" d="M370.6 130.63C370.573 135.756 372.108 140.768 375 145C376.4 147 380.93 147.4 388 146.41C397.189 145.463 406.203 143.256 414.79 139.85C419.47 138.01 422.57 135.66 423.9 132.71C424.211 127.984 423.273 123.259 421.18 119.01C420.77 122.69 418.25 125.74 413.18 128.01C403.265 131.722 392.953 134.269 382.45 135.6C375.76 136.37 371.15 135.27 370.6 130.63Z" fill="white"/>
<path opacity="0.1" d="M386.52 107.19C389.06 106.208 391.694 105.488 394.38 105.04C397.91 104.68 398.52 105.28 398.13 106.21C397.081 107.285 395.839 108.153 394.47 108.77C392.341 109.693 390.08 110.277 387.77 110.5C386.16 110.57 384.45 110.61 383.48 109.87C383 109 384.44 108.08 386.52 107.19Z" fill="black"/>
<path d="M440.24 117.55C438.91 113.45 430.16 112.3 417.95 113.91C419.041 115.224 419.986 116.652 420.77 118.17C425.14 118.34 428.03 119.38 428.66 121.31C430.2 126.08 417.39 134.5 400.04 140.11C382.69 145.72 367.38 146.42 365.84 141.65C365.17 139.65 366.78 137.18 370.62 134.3C370.57 134.3 370.89 134.09 370.84 134.12C370.627 132.462 370.566 130.789 370.66 129.12C359.52 135.06 352.88 141.25 354.23 145.41C356.35 151.94 377.32 151 401.08 143.3C424.84 135.6 442.36 124.08 440.24 117.55Z" fill="#ECEFF1"/>
<path opacity="0.3" d="M440.24 117.55C438.91 113.45 430.16 112.3 417.95 113.91C419.041 115.224 419.986 116.652 420.77 118.17C425.14 118.34 428.03 119.38 428.66 121.31C430.2 126.08 417.39 134.5 400.04 140.11C382.69 145.72 367.38 146.42 365.84 141.65C365.17 139.65 366.78 137.18 370.62 134.3C370.57 134.3 370.89 134.09 370.84 134.12C370.627 132.462 370.566 130.789 370.66 129.12C359.52 135.06 352.88 141.25 354.23 145.41C356.35 151.94 377.32 151 401.08 143.3C424.84 135.6 442.36 124.08 440.24 117.55Z" fill="white"/>
<path d="M141.283 206.147C156.518 190.913 156.518 166.213 141.283 150.979C126.049 135.744 101.349 135.744 86.1147 150.979C70.8804 166.213 70.8804 190.913 86.1147 206.147C101.349 221.382 126.049 221.382 141.283 206.147Z" fill="#ECEFF1"/>
<path opacity="0.4" d="M141.283 206.147C156.518 190.913 156.518 166.213 141.283 150.979C126.049 135.744 101.349 135.744 86.1147 150.979C70.8804 166.213 70.8804 190.913 86.1147 206.147C101.349 221.382 126.049 221.382 141.283 206.147Z" fill="white"/>
<path opacity="0.2" d="M141.7 181.57L140.81 181.7C140.695 181.719 140.578 181.712 140.465 181.681C140.353 181.65 140.249 181.595 140.16 181.52L138.72 180.31C138.657 180.261 138.59 180.218 138.52 180.18L134.32 178.37C134.178 178.308 134.057 178.208 133.97 178.08L131.6 174.73C131.495 174.577 131.35 174.455 131.18 174.38L129.79 173.74C129.727 173.71 129.659 173.689 129.59 173.68L128.12 173.46C127.917 173.424 127.726 173.342 127.56 173.22L124.44 170.86C124.314 170.767 124.166 170.709 124.01 170.69L121.72 170.39C121.571 170.37 121.418 170.39 121.28 170.45L120.66 170.72C120.556 170.765 120.443 170.788 120.33 170.788C120.217 170.788 120.104 170.765 120 170.72L117.27 169.46C117.109 169.381 116.925 169.36 116.75 169.4L114.33 169.94C114.178 169.978 114.042 170.062 113.94 170.18L112.94 171.28C112.855 171.374 112.746 171.445 112.625 171.483C112.503 171.522 112.374 171.528 112.25 171.5L110.25 171.08L106.04 169.2L104.67 167.06C104.568 166.892 104.533 166.693 104.57 166.5L104.87 164.84L105.87 162.46C105.881 162.437 105.886 162.411 105.884 162.385C105.882 162.359 105.872 162.335 105.857 162.314C105.841 162.293 105.82 162.277 105.796 162.268C105.772 162.258 105.745 162.256 105.72 162.26L103.95 162.47C103.838 162.484 103.731 162.524 103.638 162.587C103.544 162.649 103.466 162.733 103.41 162.83L102.89 163.73C102.83 163.831 102.751 163.918 102.656 163.987C102.562 164.056 102.454 164.104 102.34 164.13L99.92 164.67C99.8087 164.698 99.6907 164.683 99.5904 164.627C99.49 164.572 99.4147 164.48 99.38 164.37L99.08 163.46L98.34 162.1C98.2719 161.989 98.2359 161.861 98.2359 161.73C98.2359 161.6 98.2719 161.472 98.34 161.36L99.54 159.61L100.01 158.4C100.069 158.243 100.178 158.11 100.32 158.02L101.91 157.02C102.072 156.921 102.262 156.879 102.45 156.9L103.96 157.11C104.055 157.124 104.153 157.118 104.246 157.092C104.339 157.067 104.425 157.021 104.5 156.96L105.11 156.48C105.221 156.399 105.353 156.35 105.49 156.34L107.18 156.22C107.318 156.213 107.455 156.24 107.58 156.3L108.49 156.72C108.578 156.763 108.651 156.83 108.703 156.913C108.754 156.997 108.781 157.092 108.78 157.19V158C108.78 158.127 108.831 158.249 108.921 158.34C109.011 158.43 109.133 158.48 109.26 158.48H109.53C109.616 158.479 109.701 158.46 109.78 158.425C109.859 158.39 109.929 158.338 109.987 158.275C110.046 158.211 110.09 158.136 110.118 158.054C110.146 157.973 110.157 157.886 110.15 157.8L110.07 157.1L109.91 155.68C109.894 155.545 109.919 155.408 109.984 155.288C110.048 155.168 110.148 155.071 110.27 155.01L111.89 154.2L114.01 151.87L115.45 149.7L118.11 148.87C118.222 148.836 118.32 148.767 118.39 148.674C118.46 148.58 118.499 148.467 118.5 148.35V147.05C118.499 146.935 118.537 146.823 118.608 146.732C118.679 146.641 118.778 146.577 118.89 146.55L120.65 146.12C120.807 146.082 120.945 145.99 121.04 145.86L121.77 144.78C121.796 144.744 121.813 144.702 121.819 144.657C121.826 144.613 121.823 144.568 121.809 144.525C121.796 144.483 121.772 144.444 121.741 144.412C121.71 144.38 121.672 144.355 121.63 144.34L118.42 143.16L116.07 142.02C115.968 141.971 115.856 141.95 115.743 141.959C115.631 141.968 115.523 142.006 115.43 142.07L112.43 144.16C112.325 144.231 112.204 144.273 112.078 144.284C111.952 144.294 111.825 144.272 111.71 144.22L109.54 143.22L107.91 142.47C107.878 142.456 107.851 142.433 107.831 142.404C107.812 142.374 107.802 142.34 107.802 142.305C107.802 142.27 107.812 142.236 107.831 142.206C107.851 142.177 107.878 142.154 107.91 142.14L109.56 141.59C109.633 141.568 109.702 141.53 109.76 141.48L112 139.6C106.411 139.894 100.953 141.395 96 144C94.0118 149.065 92.6028 154.339 91.8 159.72C91.7852 159.845 91.8001 159.972 91.8436 160.09C91.887 160.208 91.9577 160.314 92.05 160.4L98.19 166.28C98.2993 166.383 98.4402 166.447 98.59 166.46L100.87 166.71C100.984 166.719 101.094 166.757 101.19 166.82L109.99 172.11C110.096 172.17 110.182 172.26 110.237 172.368C110.292 172.477 110.314 172.599 110.3 172.72L109.45 181.61C109.411 181.943 109.489 182.278 109.67 182.56L113.97 189.39C114.027 189.478 114.098 189.556 114.18 189.62L117.48 192.16C117.559 192.222 117.621 192.303 117.657 192.396C117.694 192.49 117.706 192.591 117.69 192.69L116.51 199.91L114.26 211.06C114.48 212.56 116.43 211.64 119.26 209.54L122.07 204.92L124.54 203.92L130.86 199.41L135.21 194.48L137.55 189.3C137.591 189.218 137.641 189.14 137.7 189.07L140.08 186.34L141.67 184.69C141.814 184.539 141.897 184.339 141.9 184.13V181.75C141.902 181.724 141.898 181.698 141.888 181.674C141.879 181.65 141.863 181.628 141.844 181.611C141.825 181.594 141.802 181.581 141.777 181.574C141.752 181.567 141.726 181.565 141.7 181.57Z" fill="black"/>
<path d="M131.08 147.84H131.03C131.035 147.82 131.035 147.8 131.03 147.78L131.08 147.84Z" fill="white"/>
<path d="M281.61 248.5C284.87 250.22 310.21 278.8 303.45 292.39C298.45 302.39 267.2 307.04 267.2 307.04L263.35 298.51C263.35 298.51 286.23 290.41 287.58 286.86C288.93 283.31 263.22 264.41 263.22 264.41L281.61 248.5Z" fill="#E1E1E1"/>
<path opacity="0.3" d="M281.61 248.5C284.87 250.22 310.21 278.8 303.45 292.39C298.45 302.39 267.2 307.04 267.2 307.04L263.35 298.51C263.35 298.51 286.23 290.41 287.58 286.86C288.93 283.31 263.22 264.41 263.22 264.41L281.61 248.5Z" fill="white"/>
<path opacity="0.2" d="M278.13 292.63C277.31 295.95 274.93 298.51 270.07 299.89L273.07 305.96L272.45 306.09L267.71 296.89L278.13 292.63Z" fill="black"/>
<path d="M266.78 295L273.41 307.88L260.64 310.77C260.458 310.808 260.286 310.883 260.135 310.991C259.984 311.099 259.857 311.238 259.763 311.398C259.669 311.558 259.609 311.736 259.588 311.921C259.567 312.106 259.584 312.293 259.64 312.47L261.16 317.16C261.286 317.579 261.272 318.028 261.118 318.438C260.965 318.849 260.681 319.197 260.31 319.43L259.31 320.03C259.008 320.209 258.649 320.266 258.306 320.187C257.964 320.109 257.664 319.903 257.47 319.61L246.47 303C246.401 302.895 246.356 302.776 246.34 302.652C246.324 302.527 246.337 302.4 246.377 302.282C246.418 302.163 246.485 302.055 246.574 301.966C246.663 301.877 246.771 301.81 246.89 301.77L266.78 295Z" fill="#E1E1E1"/>
<g opacity="0.2">
<path d="M266.78 295L273.41 307.88L260.64 310.77C260.458 310.808 260.286 310.883 260.135 310.991C259.984 311.099 259.857 311.238 259.763 311.398C259.669 311.558 259.609 311.736 259.588 311.921C259.567 312.106 259.584 312.293 259.64 312.47L261.16 317.16C261.286 317.579 261.272 318.028 261.118 318.438C260.965 318.849 260.681 319.197 260.31 319.43L259.31 320.03C259.008 320.209 258.649 320.266 258.306 320.187C257.964 320.109 257.664 319.903 257.47 319.61L246.47 303C246.401 302.895 246.356 302.776 246.34 302.652C246.324 302.527 246.337 302.4 246.377 302.282C246.418 302.163 246.485 302.055 246.574 301.966C246.663 301.877 246.771 301.81 246.89 301.77L266.78 295Z" fill="white"/>
</g>
<path opacity="0.2" d="M255 299C259.695 300.193 264.565 300.532 269.38 300L266.78 294.95L255 299Z" fill="black"/>
<path opacity="0.2" d="M280.34 278.08L282.44 280C284.58 272.27 280.72 264.87 279.44 255L277.59 255.52C279.352 262.913 280.274 270.481 280.34 278.08Z" fill="black"/>
<path d="M224.16 331.24L206 338.21L202.6 311.5L220.54 304.31L224.16 331.24Z" fill="#E1E1E1"/>
<path opacity="0.2" d="M224.16 331.24L206 338.21L202.6 311.5L220.54 304.31L224.16 331.24Z" fill="black"/>
<path d="M212.72 305C223.53 282.87 234.37 266.92 245.29 264.8L328 241C347.84 238 365.74 243.86 381.59 259.18C378.66 284.04 366.59 297.09 349.27 303.27L263.73 325.75C255.92 327.69 239.88 321.67 212.72 305Z" fill="#E1E1E1"/>
<path d="M189.65 307.71L218.78 294C226.4 299 227.21 306.46 224.85 312.34L195.29 322.07C188.94 318.29 187.64 314.13 189.65 307.71Z" fill="#E1E1E1"/>
<path d="M169.23 301.11L157.32 302.18C153.65 302.509 150.186 304.022 147.45 306.49L110.64 339.77L160.45 344C163.127 344.23 165.821 343.822 168.31 342.81L177.85 338.91C180.438 337.853 182.726 336.174 184.511 334.021C186.295 331.869 187.521 329.309 188.08 326.57L188.46 324.71C189.032 321.873 188.87 318.937 187.99 316.18L186.91 312.81C186.228 310.673 185.131 308.691 183.68 306.98C181.915 304.919 179.682 303.311 177.168 302.29C174.654 301.269 171.932 300.864 169.23 301.11Z" fill="#E1E1E1"/>
<path opacity="0.19" d="M169.23 301.11L157.32 302.18C153.65 302.509 150.186 304.022 147.45 306.49L110.64 339.77L160.45 344C163.127 344.23 165.821 343.822 168.31 342.81L177.85 338.91C180.438 337.853 182.726 336.174 184.511 334.021C186.295 331.869 187.521 329.309 188.08 326.57L188.46 324.71C189.032 321.873 188.87 318.937 187.99 316.18L186.91 312.81C186.228 310.673 185.131 308.691 183.68 306.98C181.915 304.919 179.682 303.311 177.168 302.29C174.654 301.269 171.932 300.864 169.23 301.11Z" fill="white"/>
<path opacity="0.29" d="M176.66 309.59L170.59 310.14C168.73 310.311 166.976 311.079 165.59 312.33L146.84 329.28L172.21 331.46C173.573 331.575 174.943 331.366 176.21 330.85L181.07 328.85C182.389 328.311 183.554 327.455 184.463 326.358C185.372 325.261 185.996 323.956 186.28 322.56L186.47 321.61C186.765 320.167 186.686 318.673 186.24 317.27L185.69 315.55C185.344 314.45 184.784 313.43 184.04 312.55C183.137 311.502 181.995 310.686 180.711 310.171C179.426 309.655 178.037 309.456 176.66 309.59Z" fill="white"/>
<path d="M179 313.22L175.2 313.56C174.032 313.669 172.93 314.153 172.06 314.94L160.34 325.54L176.2 326.9C177.055 326.97 177.914 326.84 178.71 326.52L181.71 325.28C182.534 324.941 183.261 324.404 183.828 323.717C184.395 323.029 184.784 322.213 184.96 321.34L185.08 320.75C185.26 319.848 185.209 318.916 184.93 318.04L184.59 316.96C184.38 316.284 184.041 315.655 183.59 315.11C183.031 314.452 182.322 313.937 181.524 313.608C180.726 313.28 179.86 313.146 179 313.22Z" fill="#E1E1E1"/>
<path opacity="0.1" d="M212.72 305C223.53 282.87 234.37 266.92 245.95 264.61L328.6 240.85C347.79 238 365.69 243.9 381.54 259.22C378.61 284.08 366.54 297.13 349.22 303.31L263.68 325.79C255.92 327.69 239.88 321.67 212.72 305Z" fill="black"/>
<path d="M189.65 307.71L218.78 294C216.93 302.05 220.97 308.49 224.85 312.34L195.29 322.07C188.94 318.29 187.64 314.13 189.65 307.71Z" fill="#E1E1E1"/>
<path d="M185.14 352.34L212.97 341.71L218.01 308.16L197.18 316.18L185.14 352.34Z" fill="#E1E1E1"/>
<path opacity="0.3" d="M185.14 352.34L212.97 341.71L218.01 308.16L197.18 316.18L185.14 352.34Z" fill="white"/>
<path d="M160.96 285.79L191.29 276.57L216.04 298.4L192.11 308.25L160.96 285.79Z" fill="#E1E1E1"/>
<path opacity="0.3" d="M160.96 285.79L191.29 276.57L216.04 298.4L192.11 308.25L160.96 285.79Z" fill="white"/>
<path opacity="0.7" d="M315.33 244.67L319.51 243.47C318.065 244.455 316.849 245.741 315.947 247.239C315.044 248.737 314.476 250.412 314.28 252.15C310.61 271.47 315.42 289.15 327.64 304.46C329.64 306.52 332.91 307.03 335.7 306.86L332.12 307.8C328.34 308.05 326.59 306.8 324.4 304.8C312.09 293.01 306.67 269.51 310.93 252.42C311.71 248.38 313.59 245.17 315.33 244.67Z" fill="white"/>
<path opacity="0.7" d="M305.8 247.41L309.8 246.26C307.26 247.36 305.12 251.41 304.57 254.9C300.91 274.22 305.75 291.67 317.93 307.21C319.65 309.12 323.12 309.6 325.93 309.44L322.19 310.39C318.41 310.64 316.76 309.74 314.71 307.57C302.4 295.78 296.97 272.28 301.23 255.19C301.83 251.16 304.61 247.75 305.8 247.41Z" fill="white"/>
<path d="M378.75 257.93C377.98 260 378.33 261.58 380.28 262.43L406.09 254.63C409.96 253.04 411.39 252.03 405.63 252.76L378.75 257.93Z" fill="#E1E1E1"/>
<path opacity="0.3" d="M378.75 257.93C377.98 260 378.33 261.58 380.28 262.43L406.09 254.63C409.96 253.04 411.39 252.03 405.63 252.76L378.75 257.93Z" fill="black"/>
<path opacity="0.2" d="M222.44 309.57C239.01 315.57 257.65 323.64 265.56 321.26L350 298.81C361.13 297.16 371.36 275.51 379.08 261.63C370.08 274.41 360.98 293.24 347.75 295.96L265.56 318C256 321.17 237.79 313.59 222.44 309.57Z" fill="black"/>
<path opacity="0.4" d="M319.52 245.56C317.896 246.758 316.785 248.527 316.41 250.51L330.41 246.63C343.6 243.76 366.86 252.46 378.41 259.63C368.41 250.75 343.59 240.01 331.41 242.94L319.52 245.56Z" fill="white"/>
<path opacity="0.3" d="M378.65 261.02L379.77 262.17L409.21 253.12L378.65 261.02Z" fill="black"/>
<path opacity="0.2" d="M274.07 256.53L273.35 296.41L245.2 296.56C259.87 302.21 274.5 303.9 278.31 298.21C284.9 287.21 284.61 272.07 280.31 254.72L274.07 256.53Z" fill="black"/>
<path opacity="0.2" d="M280.77 256.48L303.09 250.24C302.249 251.334 301.693 252.619 301.47 253.98L281.47 259.66L280.77 256.48Z" fill="#E6E6E6"/>
<path opacity="0.2" d="M255.57 264.68L244.26 268.29C241.62 269.546 239.245 271.294 237.26 273.44L231.14 280.53L235.35 281.45L240.43 275.53C241.974 273.737 243.87 272.28 246 271.25L256.79 267.42L255.57 264.68Z" fill="#E0E0E0"/>
<path d="M233.89 211L249.07 222.66L273.54 225.78L288.71 190.7L281.56 180.86L249.07 169.25C240.9 180.87 237.08 195.32 233.89 211Z" fill="#E1E1E1"/>
<path opacity="0.2" d="M233.89 211L249.07 222.66L273.54 225.78L288.71 190.7L281.56 180.86L249.07 169.25C242 179.45 237.06 193.65 233.89 211Z" fill="white"/>
<path opacity="0.3" d="M233.89 211L249.07 222.65L264.78 183.83C259.7 180.92 254.47 176.12 249.07 169.25C242.71 177.59 237.72 191.83 233.89 211Z" fill="black"/>
<path d="M275.41 248.53C277.47 251.53 286.23 288.84 273.85 297.62C264.75 304.07 234.98 293.39 234.98 293.39L235.61 284.05C235.61 284.05 259.61 287.74 262.48 285.25C265.35 282.76 252.32 260.05 251.63 253.95C250.94 247.85 275.41 248.53 275.41 248.53Z" fill="#E1E1E1"/>
<path opacity="0.3" d="M275.41 248.53C277.47 251.53 286.23 288.84 273.85 297.62C264.75 304.07 234.98 293.39 234.98 293.39L235.61 284.05C235.61 284.05 259.61 287.74 262.48 285.25C265.35 282.76 252.32 260.05 251.63 253.95C250.94 247.85 275.41 248.53 275.41 248.53Z" fill="white"/>
<path d="M246.06 283.75L245.14 298.2L232.69 294.13C232.513 294.073 232.325 294.054 232.14 294.074C231.955 294.095 231.776 294.154 231.615 294.248C231.455 294.343 231.316 294.47 231.208 294.622C231.1 294.774 231.026 294.947 230.99 295.13L229.89 299.93C229.782 300.355 229.538 300.733 229.195 301.006C228.852 301.279 228.428 301.431 227.99 301.44H226.83C226.478 301.44 226.14 301.306 225.885 301.064C225.63 300.822 225.478 300.491 225.46 300.14L224.54 280.23C224.534 280.104 224.557 279.977 224.607 279.862C224.658 279.746 224.735 279.643 224.831 279.562C224.928 279.48 225.043 279.423 225.165 279.393C225.288 279.363 225.416 279.362 225.54 279.39L246.06 283.75Z" fill="#E1E1E1"/>
<path d="M297.11 191.64C297.11 191.64 301.66 213.91 304.77 218.38C307.88 222.85 323.77 237.85 323.77 237.85L322.27 242.51C322.27 242.51 298.41 227.2 296.77 225.05C295.13 222.9 284 202 284 202L297.11 191.64Z" fill="#E1E1E1"/>
<path d="M304.77 166.76C304.77 166.76 303.47 173.09 298.57 174.48C293.67 175.87 298.65 162.3 298.65 162.3L303.13 161.2L304.77 166.76Z" fill="#263238"/>
<path d="M304.175 182.124C311.126 175.173 311.126 163.902 304.175 156.951C297.223 150 285.953 150 279.002 156.951C272.05 163.902 272.05 175.173 279.002 182.124C285.953 189.075 297.223 189.075 304.175 182.124Z" fill="#263238"/>
<path opacity="0.2" d="M304.175 182.124C311.126 175.173 311.126 163.902 304.175 156.951C297.223 150 285.953 150 279.002 156.951C272.05 163.902 272.05 175.173 279.002 182.124C285.953 189.075 297.223 189.075 304.175 182.124Z" fill="white"/>
<path opacity="0.7" d="M296 183.27C299.715 182.519 303.001 180.372 305.18 177.27L303.81 176.46C301.348 179.094 298.327 181.144 294.97 182.46L296 183.27Z" fill="white"/>
<path opacity="0.7" d="M305.65 176.33L304.23 175.66C304.557 175.291 304.781 174.843 304.88 174.36L306.21 175.04C306.17 175.52 305.973 175.973 305.65 176.33Z" fill="white"/>
<path d="M278.33 182.74C277.33 186.41 287.89 191.57 291.59 187.9C289.59 186.39 289.07 184.81 289.32 183.27C289.505 182.336 289.875 181.448 290.41 180.66C290.689 180.208 290.996 179.774 291.33 179.36L286.83 170.04C285.9 174.14 283.82 183.4 278.33 182.74Z" fill="#E4897B"/>
<path opacity="0.2" d="M286.71 174.4C284.71 178.97 287.71 182.09 289.32 183.27C289.505 182.336 289.875 181.448 290.41 180.66L286.71 174.4Z" fill="black"/>
<path d="M285.22 176.16C285.583 177.66 286.433 178.998 287.635 179.966C288.838 180.933 290.327 181.476 291.87 181.51C293.868 181.602 295.825 180.925 297.34 179.62C297.552 179.443 297.752 179.253 297.94 179.05C301.48 175.29 304.94 167.72 301.3 163.05C300.503 162.015 299.454 161.203 298.253 160.69C297.052 160.176 295.739 159.98 294.441 160.12C293.142 160.259 291.901 160.73 290.836 161.486C289.772 162.243 288.919 163.26 288.36 164.44C285.87 169.46 284.18 172.29 285.22 176.16Z" fill="#E4897B"/>
<path d="M294.94 170C294.875 170.068 294.825 170.148 294.793 170.236C294.76 170.324 294.745 170.417 294.75 170.511C294.755 170.604 294.778 170.696 294.82 170.78C294.861 170.864 294.919 170.939 294.99 171C295.26 171.15 295.65 171 295.87 170.55C296.09 170.1 296.07 169.72 295.81 169.55C295.55 169.38 295.17 169.63 294.94 170Z" fill="#263238"/>
<path d="M299.39 172.59C299.266 172.731 299.202 172.915 299.213 173.102C299.225 173.29 299.31 173.465 299.45 173.59C299.71 173.73 300.1 173.53 300.33 173.14C300.56 172.75 300.53 172.3 300.27 172.14C300.01 171.98 299.61 172.21 299.39 172.59Z" fill="#263238"/>
<path d="M297.87 172C297.643 173.474 297.626 174.972 297.82 176.45C297.438 176.489 297.052 176.444 296.689 176.318C296.326 176.192 295.995 175.988 295.72 175.72L297.87 172Z" fill="#DE5753"/>
<path d="M294.38 167.8C294.422 167.824 294.471 167.837 294.52 167.837C294.569 167.837 294.617 167.824 294.66 167.8C294.964 167.662 295.296 167.597 295.629 167.611C295.963 167.625 296.288 167.717 296.58 167.88C296.638 167.907 296.703 167.912 296.765 167.895C296.826 167.878 296.88 167.84 296.916 167.787C296.952 167.734 296.968 167.67 296.961 167.607C296.955 167.543 296.926 167.484 296.88 167.44C296.515 167.225 296.104 167.101 295.681 167.078C295.258 167.056 294.836 167.135 294.45 167.31C294.384 167.337 294.331 167.388 294.303 167.454C294.274 167.52 294.273 167.594 294.3 167.66C294.318 167.711 294.345 167.759 294.38 167.8Z" fill="#263238"/>
<path d="M293.91 177.36C293.296 177.124 292.749 176.743 292.314 176.251C291.879 175.758 291.569 175.168 291.41 174.53C291.404 174.491 291.413 174.452 291.436 174.421C291.458 174.389 291.492 174.367 291.53 174.36C291.566 174.354 291.602 174.362 291.632 174.383C291.662 174.403 291.683 174.434 291.69 174.47C291.846 175.057 292.136 175.599 292.537 176.055C292.938 176.512 293.438 176.869 294 177.1C294.017 177.105 294.032 177.114 294.045 177.126C294.058 177.138 294.069 177.152 294.076 177.168C294.084 177.184 294.088 177.201 294.089 177.218C294.089 177.236 294.086 177.253 294.08 177.27C294.066 177.304 294.04 177.332 294.006 177.347C293.973 177.362 293.934 177.363 293.9 177.35L293.91 177.36Z" fill="#263238"/>
<path d="M302.19 172.15C302.222 172.191 302.268 172.22 302.32 172.23C302.355 172.234 302.39 172.231 302.424 172.221C302.458 172.211 302.489 172.195 302.516 172.172C302.543 172.15 302.566 172.122 302.582 172.091C302.598 172.059 302.607 172.025 302.61 171.99C302.647 171.568 302.582 171.143 302.42 170.751C302.258 170.36 302.004 170.013 301.68 169.74C301.653 169.718 301.621 169.703 301.587 169.693C301.554 169.684 301.519 169.682 301.484 169.687C301.45 169.691 301.417 169.703 301.387 169.721C301.357 169.738 301.331 169.762 301.31 169.79C301.27 169.847 301.254 169.918 301.265 169.987C301.276 170.056 301.314 170.118 301.37 170.16C301.616 170.387 301.808 170.667 301.929 170.979C302.05 171.291 302.099 171.626 302.07 171.96C302.076 171.998 302.089 172.035 302.11 172.068C302.131 172.1 302.158 172.128 302.19 172.15Z" fill="#263238"/>
<path d="M285.14 167.4C286.24 162.46 288.01 158.85 289.78 158.03C291.55 157.21 295.93 163.27 295.93 163.27C295.663 163.038 295.339 162.881 294.992 162.815C294.644 162.749 294.285 162.777 293.952 162.895C293.619 163.013 293.322 163.217 293.094 163.487C292.865 163.756 292.712 164.082 292.65 164.43C292.42 166.63 289.91 168.95 287.91 169.37C287.91 169.37 288.28 168.55 287.51 168.37C286.74 168.19 284.8 172.47 285.1 175.13C285.1 175.15 284 172.34 285.14 167.4Z" fill="#263238"/>
<path d="M284 167.23C283.911 168.633 284.382 170.014 285.31 171.07C286.54 172.46 288.17 171.6 288.67 169.9C289.1 168.39 289.01 165.81 287.35 165.06C286.988 164.895 286.59 164.825 286.194 164.854C285.798 164.884 285.415 165.012 285.081 165.229C284.748 165.445 284.474 165.741 284.285 166.091C284.096 166.441 283.998 166.832 284 167.23Z" fill="#E4897B"/>
<path d="M288.24 160.41C288.24 160.41 291.69 156.41 298.42 156.95C306.65 157.64 305.55 169.05 304.15 169.54C303.06 169.72 303.91 164.71 302.74 165.18C301.84 165.85 301.84 166.38 300.9 166.29C300.37 166.29 299.74 165.11 299.11 163.86C297.88 162.58 295.06 166.68 292.97 167.53C291.07 167 289.48 163 288.24 160.41Z" fill="#263238"/>
<path d="M248.87 228.54C248.29 238 249.5 249.99 252.47 257.11L277.61 255.53L286.44 252.97C284.78 251.26 280.99 242.25 283.57 228.13L248.87 228.54Z" fill="#E1E1E1"/>
<g opacity="0.3">
<path d="M248.87 228.54C248.29 238 249.5 249.99 252.47 257.11L277.61 255.53L286.44 252.97C284.58 250.97 281.14 242.26 283.57 228.13L248.87 228.54Z" fill="white"/>
</g>
<path opacity="0.2" d="M277.61 255.53L279 250.72L283.91 253.71L277.61 255.53Z" fill="black"/>
<path d="M286.71 170.61L286.39 172.95C286.29 173.674 286.379 174.411 286.65 175.09L286.8 175.46C287.072 176.14 287.516 176.738 288.09 177.194C288.663 177.65 289.346 177.949 290.07 178.06L291.58 178.29V179L289.58 178.62C288.895 178.487 288.253 178.186 287.712 177.745C287.171 177.303 286.748 176.735 286.48 176.09L286.13 175.24C285.817 174.477 285.733 173.64 285.89 172.83L286.34 170.49L286.71 170.61Z" fill="#263238"/>
<path opacity="0.2" d="M286.71 170.61L286.39 172.95C286.29 173.674 286.379 174.411 286.65 175.09L286.8 175.46C287.072 176.14 287.516 176.738 288.09 177.194C288.663 177.65 289.346 177.949 290.07 178.06L291.58 178.29V179L289.58 178.62C288.895 178.487 288.253 178.186 287.712 177.745C287.171 177.303 286.748 176.735 286.48 176.09L286.13 175.24C285.817 174.477 285.733 173.64 285.89 172.83L286.34 170.49L286.71 170.61Z" fill="white"/>
<path d="M292.73 177.87H291.66C291.34 177.87 291.08 178.13 291.08 178.45V179.17C291.08 179.49 291.34 179.75 291.66 179.75H292.73C293.05 179.75 293.31 179.49 293.31 179.17V178.45C293.31 178.13 293.05 177.87 292.73 177.87Z" fill="#263238"/>
<path d="M286.98 167.48H286.19C285.842 167.48 285.56 167.762 285.56 168.11V170.3C285.56 170.648 285.842 170.93 286.19 170.93H286.98C287.328 170.93 287.61 170.648 287.61 170.3V168.11C287.61 167.762 287.328 167.48 286.98 167.48Z" fill="#263238"/>
<path opacity="0.15" d="M297.11 191.64C297.11 191.64 301.66 213.91 304.77 218.38C307.88 222.85 324.48 238.53 324.48 238.53L321.65 242.07C321.65 242.07 298.43 227.2 296.79 225.07C295.15 222.94 284 202 284 202L297.11 191.64Z" fill="white"/>
<path opacity="0.2" d="M289.28 207.41L292.94 218.47L288.35 210.11L289.28 207.41Z" fill="black"/>
<path d="M248.69 231.49L283 233.67C283 233.67 287 202.34 298 192.3L292.35 187.65L277.35 182.45C277.35 182.45 269.69 182.24 265.19 183.2C263.797 184.915 262.527 186.726 261.39 188.62C259.137 192.296 257.183 196.149 255.55 200.14C251.469 210.115 249.148 220.722 248.69 231.49Z" fill="#E1E1E1"/>
<path opacity="0.2" d="M283.2 232.28L272.2 224.48C270.2 222.56 264.62 209.17 260.44 200.3L283.88 228.54L283.2 232.28Z" fill="black"/>
<path opacity="0.2" d="M271.93 182.5H273.19L295.49 190.24L296.42 191C296.141 191.729 295.588 192.321 294.88 192.65L293.59 193.27C285.41 190.29 277.79 187.43 271.93 182.5Z" fill="#263238"/>
<path d="M273.64 189.64C273.64 189.64 279.85 211.29 282.96 215.76C286.07 220.23 307.09 240.81 307.09 240.81L303.73 244.6C303.73 244.6 275.82 225.89 274.18 223.74C272.54 221.59 260.6 200.93 260.6 200.93C257.4 192.12 269 178.38 273.64 189.64Z" fill="#E1E1E1"/>
<path opacity="0.15" d="M273.64 189.64C273.64 189.64 279.85 211.29 282.96 215.76C286.07 220.23 307.09 240.81 307.09 240.81L303.73 244.6C303.73 244.6 275.82 225.89 274.18 223.74C272.54 221.59 260.6 200.93 260.6 200.93C257.4 192.12 269 178.38 273.64 189.64Z" fill="white"/>
<path d="M263.57 198.93L265.85 203.61C266.85 199.85 268.65 197.61 271.33 196.99L268.67 191.64C266.083 193.311 264.253 195.927 263.57 198.93Z" fill="#E1E1E1"/>
<g opacity="0.2">
<path d="M246.06 283.75L245.14 298.2L232.69 294.13C232.513 294.073 232.325 294.054 232.14 294.074C231.955 294.095 231.776 294.154 231.615 294.248C231.455 294.343 231.316 294.47 231.208 294.622C231.1 294.774 231.026 294.947 230.99 295.13L229.89 299.93C229.782 300.355 229.538 300.733 229.195 301.006C228.852 301.279 228.428 301.431 227.99 301.44H226.83C226.478 301.44 226.14 301.306 225.885 301.064C225.63 300.822 225.478 300.491 225.46 300.14L224.54 280.23C224.534 280.104 224.557 279.977 224.607 279.862C224.658 279.746 224.735 279.643 224.831 279.562C224.928 279.48 225.043 279.423 225.165 279.393C225.288 279.363 225.416 279.362 225.54 279.39L246.06 283.75Z" fill="white"/>
</g>
<path d="M300.56 231.88L292.21 240.34L303.94 245.65L306.64 251.8C306.691 251.915 306.769 252.016 306.868 252.095C306.967 252.173 307.083 252.226 307.207 252.25C307.331 252.274 307.459 252.267 307.579 252.23C307.7 252.194 307.81 252.128 307.9 252.04L313.73 246.3C313.804 246.229 313.861 246.143 313.899 246.048C313.937 245.953 313.954 245.851 313.949 245.749C313.944 245.646 313.918 245.546 313.872 245.455C313.825 245.364 313.76 245.284 313.68 245.22L308.23 240.69L300.56 231.88Z" fill="#E1E1E1"/>
<path opacity="0.3" d="M300.56 231.88L292.21 240.34L303.94 245.65L306.64 251.8C306.691 251.915 306.769 252.016 306.868 252.095C306.967 252.173 307.083 252.226 307.207 252.25C307.331 252.274 307.459 252.267 307.579 252.23C307.7 252.194 307.81 252.128 307.9 252.04L313.73 246.3C313.804 246.229 313.861 246.143 313.899 246.048C313.937 245.953 313.954 245.851 313.949 245.749C313.944 245.646 313.918 245.546 313.872 245.455C313.825 245.364 313.76 245.284 313.68 245.22L308.23 240.69L300.56 231.88Z" fill="white"/>
<path d="M308.92 237.79L317.28 228.54L324.7 237.11L329.79 239.69C329.861 239.727 329.925 239.779 329.975 239.842C330.026 239.905 330.063 239.977 330.085 240.055C330.106 240.133 330.112 240.214 330.101 240.294C330.089 240.374 330.062 240.451 330.02 240.52L329.88 240.76L321.24 242.96L320.62 242.22L308.92 237.79Z" fill="#E1E1E1"/>
<g opacity="0.3">
<path d="M308.92 237.79L317.28 228.54L324.7 237.11L329.79 239.69C329.861 239.727 329.925 239.779 329.975 239.842C330.026 239.905 330.063 239.977 330.085 240.055C330.106 240.133 330.112 240.214 330.101 240.294C330.089 240.374 330.062 240.451 330.02 240.52L329.88 240.76L321.24 242.96L320.62 242.22L308.92 237.79Z" fill="white"/>
</g>
<path d="M309.39 169.54C309.393 166.876 308.799 164.245 307.651 161.841C306.502 159.438 304.829 157.322 302.754 155.651C300.679 153.981 298.255 152.797 295.662 152.187C293.069 151.578 290.372 151.558 287.77 152.13C285.168 152.702 282.727 153.85 280.628 155.491C278.529 157.131 276.825 159.222 275.642 161.609C274.459 163.996 273.826 166.618 273.791 169.281C273.756 171.945 274.32 174.583 275.44 177L274.72 176.42C273 177.42 272.1 179.11 272.16 181.66C278.653 186.536 286.019 190.127 293.86 192.24C294.621 191.587 295.241 190.785 295.681 189.884C296.121 188.983 296.373 188.002 296.42 187L295.67 186.84C299.57 185.921 303.046 183.714 305.536 180.574C308.026 177.435 309.384 173.547 309.39 169.54ZM294.39 184.35C291.832 184.35 289.333 183.591 287.206 182.171C285.08 180.75 283.423 178.731 282.444 176.368C281.465 174.005 281.209 171.405 281.708 168.897C282.207 166.389 283.439 164.085 285.247 162.277C287.055 160.469 289.359 159.237 291.867 158.738C294.375 158.239 296.975 158.495 299.338 159.474C301.701 160.453 303.72 162.11 305.141 164.236C306.561 166.363 307.32 168.862 307.32 171.42C307.322 174.843 305.967 178.127 303.55 180.551C301.133 182.976 297.853 184.342 294.43 184.35H294.39Z" fill="#E1E1E1"/>
<path opacity="0.3" d="M309.39 169.54C309.393 166.876 308.799 164.245 307.651 161.841C306.502 159.438 304.829 157.322 302.754 155.651C300.679 153.981 298.255 152.797 295.662 152.187C293.069 151.578 290.372 151.558 287.77 152.13C285.168 152.702 282.727 153.85 280.628 155.491C278.529 157.131 276.825 159.222 275.642 161.609C274.459 163.996 273.826 166.618 273.791 169.281C273.756 171.945 274.32 174.583 275.44 177L274.72 176.42C273 177.42 272.1 179.11 272.16 181.66C278.653 186.536 286.019 190.127 293.86 192.24C294.621 191.587 295.241 190.785 295.681 189.884C296.121 188.983 296.373 188.002 296.42 187L295.67 186.84C299.57 185.921 303.046 183.714 305.536 180.574C308.026 177.435 309.384 173.547 309.39 169.54ZM294.39 184.35C291.832 184.35 289.333 183.591 287.206 182.171C285.08 180.75 283.423 178.731 282.444 176.368C281.465 174.005 281.209 171.405 281.708 168.897C282.207 166.389 283.439 164.085 285.247 162.277C287.055 160.469 289.359 159.237 291.867 158.738C294.375 158.239 296.975 158.495 299.338 159.474C301.701 160.453 303.72 162.11 305.141 164.236C306.561 166.363 307.32 168.862 307.32 171.42C307.322 174.843 305.967 178.127 303.55 180.551C301.133 182.976 297.853 184.342 294.43 184.35H294.39Z" fill="white"/>
<path opacity="0.2" d="M276.18 177.38L281.56 180.86C277.56 177.96 275.27 173.72 274.83 167.95C274.356 171.158 274.825 174.434 276.18 177.38Z" fill="black"/>
<path opacity="0.2" d="M296 154.14C298.687 154.88 301.167 156.23 303.248 158.083C305.33 159.937 306.955 162.246 308 164.83C307.154 162.374 305.819 160.116 304.074 158.193C302.329 156.269 300.212 154.72 297.85 153.64L296 154.14Z" fill="white"/>
<path opacity="0.2" d="M296.79 153.22L295.02 153.92L293.48 153.64L293.88 152.43C294.9 152.455 295.898 152.726 296.79 153.22Z" fill="white"/>
<path opacity="0.2" d="M245.95 285.38L245.19 296.51L245.82 296.68L246.67 285.45L245.95 285.38Z" fill="#263238"/>
</svg>
