<svg width="61" height="60" viewBox="0 0 61 60" fill="none" xmlns="http://www.w3.org/2000/svg">
<path d="M33.7845 0.0500221C33.5825 0.0945457 33.3763 0.118899 33.1693 0.122706C31.5514 0.325995 29.9641 0.716384 28.4407 1.28565L27.8502 1.52309C26.9987 1.8606 26.1701 2.25065 25.3693 2.69088C25.2322 2.77661 25.0836 2.84347 24.9277 2.88955C24.8037 2.91863 24.7045 2.97677 24.7045 3.01069C24.7045 3.04461 24.635 3.09307 24.5606 3.12699C24.4174 3.18333 24.2809 3.25483 24.1537 3.3402C24.0105 3.43199 23.8613 3.51454 23.7071 3.58732C23.5389 3.66388 23.3806 3.75986 23.2358 3.87321C23.1369 3.95699 23.0267 4.0271 22.9083 4.08158C21.6209 4.85598 20.3951 5.7242 19.2415 6.67883C18.597 7.24403 18.0028 7.86164 17.4652 8.52501C17.4207 8.61681 17.3603 8.70042 17.2866 8.77213C16.825 9.37065 16.4103 10.0024 16.0461 10.6619C15.9568 10.8654 15.7683 11.2289 15.6492 11.476C15.2316 12.3367 15.0471 13.2877 15.1133 14.238C15.1011 14.6636 15.1835 15.0867 15.3548 15.4781C15.5262 15.8696 15.7823 16.2202 16.1057 16.5057C16.4727 16.8672 16.9105 17.1526 17.3931 17.3449C17.8756 17.5372 18.3929 17.6325 18.9141 17.6251C19.711 17.6749 20.5106 17.5863 21.2759 17.3634C21.5488 17.2859 21.9209 17.1987 22.0995 17.1454C22.2591 17.1119 22.4141 17.0598 22.561 16.9903C22.7545 16.8934 23.8411 16.4137 23.8907 16.4137C25.1274 15.7809 26.3208 15.0703 27.4632 14.2864C28.5449 13.579 29.4975 12.9636 29.5819 12.92C29.6662 12.8764 30.1723 12.5759 30.7181 12.2561C31.2639 11.9363 31.9387 11.5632 32.2067 11.4275L33.0899 10.972C33.3032 10.8751 33.6952 10.6958 33.9731 10.5941C34.2509 10.4923 34.5983 10.347 34.7322 10.2888C34.8662 10.2307 35.0795 10.1434 35.1937 10.095C35.7762 9.91551 36.3798 9.80965 36.9898 9.78002C37.6811 9.69053 38.3827 9.84088 38.9721 10.2048C39.5615 10.5688 40.0014 11.1233 40.215 11.7716C40.3753 12.2908 40.4292 12.8358 40.3738 13.3755C40.4298 14.2668 40.2876 15.1595 39.957 15.9921L39.7436 16.4767C39.1313 17.7864 38.3654 19.0222 37.4612 20.1593C36.1714 21.744 34.7292 23.2043 33.1544 24.5204L32.0181 25.4411C31.6609 25.7269 31.249 26.0128 30.7975 26.3133C30.609 26.4247 30.3013 26.6234 30.1227 26.7542C29.2579 27.2796 28.3577 27.7474 27.4285 28.1546L26.7388 28.4502C26.6012 28.522 26.4517 28.5695 26.2972 28.5907C26.1517 28.6046 26.0084 28.6355 25.8705 28.6828C25.7491 28.73 25.6178 28.7477 25.4878 28.7342C25.3579 28.7207 25.2333 28.6765 25.1248 28.6054C25.0163 28.5343 24.9272 28.4384 24.8652 28.3261C24.8032 28.2138 24.7701 28.0884 24.769 27.9608C24.769 27.2872 25.0964 26.856 27.1655 24.8499C29.4033 22.6839 29.6464 22.3592 29.6464 21.5403C29.6464 20.7214 29.2346 20.1157 28.3067 19.6554C27.9192 19.4535 27.4772 19.374 27.0415 19.4276C26.3718 19.3916 25.7073 19.5611 25.1411 19.9122C25.0071 19.9946 24.7938 20.1012 24.6796 20.1593C24.5902 20.2007 24.5054 20.251 24.4266 20.3095C24.4266 20.3095 24.2331 20.4549 24.0445 20.5954C23.4278 21.0947 22.8673 21.6568 22.3724 22.272C21.9776 22.8089 21.6306 23.378 21.3354 23.9728C20.842 24.963 20.552 26.038 20.482 27.137C20.482 28.9057 21.4247 30.3206 22.8835 30.7228C23.8257 30.8396 24.7794 30.8396 25.7216 30.7228C26.5003 30.5526 27.2649 30.3259 28.009 30.0444C28.0676 30.0005 28.1386 29.9751 28.2124 29.9717C29.4506 29.469 30.6467 28.8728 31.7899 28.1885C31.9834 28.0625 32.2017 27.922 32.2861 27.8736C32.3704 27.8251 32.7822 27.5974 33.1693 27.3502C33.5563 27.1031 33.9284 26.8657 33.9532 26.8657C34.1549 26.7046 34.3652 26.5541 34.5834 26.415L35.4269 25.8481C35.5708 25.7463 35.9627 25.4507 36.3101 25.1794C38.2396 23.7207 40.0014 22.0618 41.5646 20.232C41.7482 20.014 41.9169 19.8056 41.9417 19.7814C42.3127 19.3145 42.6588 18.8293 42.9787 18.3277C43.1949 18.0037 43.3937 17.6689 43.5741 17.3246C43.7329 17.0291 43.9562 16.6269 44.0703 16.4185C44.1844 16.2102 44.4127 15.682 44.5962 15.2265C44.7798 14.771 44.9535 14.3301 44.9833 14.2574C45.3302 13.2262 45.5842 12.1675 45.7424 11.0932C45.9077 9.64796 45.8052 8.18548 45.4398 6.77574C45.3095 6.3653 45.1435 5.9665 44.9436 5.58372C44.2803 4.17353 43.2547 2.95494 41.9665 2.04642C41.7929 1.93808 41.6271 1.81828 41.4703 1.68784C40.6181 1.17292 39.7007 0.768935 38.7413 0.486128C38.2196 0.339482 37.6894 0.222985 37.1536 0.137243C36.6127 0.0548678 35.6353 0.00156597 34.8662 0.00156597H34.4742C34.2432 -0.00539122 34.0121 0.0108461 33.7845 0.0500221ZM18.0854 44.9398C17.8074 45.0067 17.5258 45.0585 17.2419 45.0949C16.9244 45.1336 16.3339 45.216 15.937 45.2742C15.6715 45.3008 15.4091 45.351 15.153 45.4244C15.0786 45.4874 15.0687 59.4767 15.153 59.5784C15.7383 59.6549 16.3294 59.6808 16.9194 59.656C18.6362 59.656 18.6461 59.656 18.6908 59.467C18.6908 59.3652 18.7205 56.046 18.6908 52.0919C18.6908 44.964 18.6908 44.8962 18.4973 44.8817C18.3543 44.8779 18.2118 44.8976 18.0755 44.9398H18.0854ZM16.0213 39.0039C15.5663 39.1761 15.1778 39.4827 14.9099 39.881C14.642 40.2832 14.632 40.3171 14.632 41.1554V42.0276L14.9545 42.454C15.2265 42.8774 15.6487 43.1879 16.1404 43.3262C16.4977 43.4466 16.8795 43.4812 17.2534 43.4272C17.6273 43.3733 17.9825 43.2323 18.2889 43.0161C19.187 42.454 19.4995 41.0246 18.9537 39.9731C18.7665 39.6044 18.4618 39.3052 18.0854 39.1202C17.4394 38.8196 16.6985 38.7779 16.0213 39.0039ZM46.834 47.4062C47.1863 47.4935 47.9256 48.0798 47.9256 48.2591C47.9502 48.3719 47.9938 48.48 48.0546 48.5789C48.2481 48.952 48.397 50.1682 48.263 50.3233C48.129 50.4784 47.8512 50.4444 46.1493 50.4444H44.1596L44.11 50.2409C44.0632 49.5462 44.2364 48.8543 44.6062 48.2591C44.8821 47.8394 45.3028 47.53 45.792 47.3869C45.983 47.3255 46.1817 47.2897 46.3825 47.2803C46.4321 47.2803 46.6355 47.3578 46.829 47.4062H46.834ZM45.023 44.7896C44.8223 44.8112 44.6264 44.8635 44.4424 44.9447C44.3855 44.9921 44.3138 45.0195 44.239 45.0222C44.007 45.0817 43.7836 45.1696 43.5741 45.2839C42.7513 45.7506 42.046 46.3913 41.51 47.1591C41.1505 47.7178 40.8606 48.3164 40.6467 48.9423C40.6146 49.0811 40.5715 49.2172 40.5177 49.3493C40.4879 49.4414 40.3837 49.7951 40.2993 50.1343C40.0763 51.6464 40.0763 53.1819 40.2993 54.6941C40.463 55.3681 40.7131 56.0193 41.0436 56.6323C41.0547 56.6335 41.0655 56.6368 41.0752 56.6421C41.085 56.6474 41.0936 56.6546 41.1005 56.6631C41.1075 56.6717 41.1126 56.6815 41.1156 56.692C41.1186 56.7025 41.1194 56.7135 41.118 56.7244C41.118 57.0345 42.1104 58.275 42.8249 58.8371C43.2947 59.1587 43.8071 59.4163 44.3482 59.6027C45.1183 59.8256 45.9127 59.959 46.7149 60C47.9107 60 50.0641 59.5154 50.7786 59.0309C50.9348 58.9333 51.1012 58.8521 51.2748 58.7886C51.5985 58.6701 51.8952 58.4906 52.1481 58.2604C51.927 57.5526 51.592 56.8836 51.1557 56.2786C51.0346 56.3071 50.9224 56.3636 50.8283 56.4433C50.7347 56.5238 50.6222 56.5804 50.5008 56.6081C50.3996 56.6233 50.304 56.6633 50.2229 56.7244C49.9005 56.8704 49.5691 56.9966 49.2306 57.1023C48.5992 57.3411 47.9203 57.4356 47.2458 57.3785C46.2039 57.3785 46.0252 57.3785 45.6878 57.2089C44.5119 56.6565 43.8371 55.2707 43.8371 53.3954C43.8205 53.1453 43.8205 52.8944 43.8371 52.6444C43.8371 52.6444 45.7126 52.6056 47.9802 52.5814L52.1034 52.5378V51.714C52.0538 50.1053 51.6072 47.9344 51.2351 47.4402C51.2004 47.3917 51.0863 47.1882 50.9771 46.9556C50.4178 45.9956 49.5063 45.2787 48.4267 44.9495C47.2945 44.6546 46.1123 44.5903 44.9535 44.7605L45.023 44.7896ZM26.714 44.7896C25.0769 45.1547 23.5705 45.943 22.3526 47.0719L22.0003 47.3869V59.53C22.0003 59.6608 22.1243 59.6705 23.8361 59.6511H25.6621L25.6869 53.9236V48.2009L26.0094 47.9538C26.3152 47.6978 26.674 47.5093 27.0613 47.4014C27.776 47.1816 28.5275 47.0993 29.2743 47.1591C29.5074 47.1938 29.7438 47.2019 29.9788 47.1833C30.1337 46.9981 30.2515 46.786 30.3262 46.5583C30.4502 46.2288 30.6536 45.8023 30.7529 45.5891C31.0307 45.0707 31.0059 44.9398 30.6338 44.8574L29.9094 44.6927C28.8552 44.5567 27.7859 44.5796 26.7388 44.7605L26.714 44.7896ZM8.19164 52.5038C8.27327 53.2424 8.30145 53.9856 8.27599 54.728C8.27599 57.0636 8.31072 56.9182 7.68554 57.238C7.267 57.3877 6.81867 57.4408 6.37563 57.3931H5.3535L4.93671 57.112C4.71152 56.9669 4.51209 56.7868 4.34626 56.579C4.03916 56.0824 3.88309 55.5106 3.89627 54.9306C3.90945 54.3506 4.09134 53.7862 4.42068 53.3034C4.72587 52.9925 5.08982 52.7424 5.49243 52.5668C5.57372 52.5665 5.65248 52.5392 5.71571 52.4893C5.83479 52.3682 6.21189 52.3342 7.20424 52.3488C7.90882 52.3488 8.12714 52.3827 8.1966 52.4844L8.19164 52.5038ZM5.71075 44.5812C4.82205 44.6989 3.9477 44.9035 3.10085 45.1918C3.00658 45.2306 2.83787 45.2887 2.71879 45.3226C2.15407 45.5144 1.61706 45.7767 1.1211 46.1028C1.16194 46.2489 1.21504 46.3915 1.27987 46.5292C1.50375 47.0893 1.77425 47.6306 2.08864 48.1476C2.15664 48.1334 2.22194 48.1089 2.28215 48.0749C2.72212 47.8603 3.17829 47.6788 3.64665 47.5322C3.8997 47.4595 4.20236 47.3626 4.32145 47.319C5.07536 47.1362 5.85623 47.0837 6.62868 47.164C7.76989 47.3432 8.19164 47.8617 8.2611 49.1846C8.29584 49.9163 8.29584 49.9357 8.10233 49.9841C7.53004 50.0358 6.95517 50.0553 6.38059 50.0423C4.39587 50.0423 3.76573 50.1537 2.4707 50.7739C1.90277 51.0552 1.4017 51.4499 0.999962 51.9323C0.598223 52.4148 0.304783 52.9744 0.138664 53.5747C-0.0617197 54.4445 -0.0447008 55.3487 0.188282 56.2107C0.942473 58.4494 2.74856 59.7529 5.25426 59.8837C7.4522 60.0342 9.63369 59.4196 11.4118 58.149L11.9576 57.7129L11.9824 53.3518C12.0072 48.3124 11.9824 48.1379 11.3771 46.9071C10.9446 46.1967 10.3264 45.6114 9.5859 45.2112C9.31796 45.09 9.02026 44.964 8.92598 44.9253C7.88677 44.6102 6.79517 44.4934 5.71075 44.5812ZM34.8811 40.8695C33.0105 41.1409 32.4002 41.2571 32.3109 41.3541C32.2216 41.451 32.2513 44.0337 32.2513 49.0489C32.291 56.0557 32.3059 56.6856 32.4448 57.0248C32.6182 57.5908 32.9337 58.1056 33.3628 58.5221C34.246 59.3846 35.3475 59.7383 37.223 59.7383C38.2501 59.7383 38.394 59.7383 38.4635 59.5881C38.5627 58.9467 38.5827 58.296 38.523 57.6499C38.4684 57.4415 38.4387 57.4367 37.8036 57.3834C37.485 57.3968 37.1688 57.3244 36.8896 57.1739C36.6104 57.0235 36.379 56.8009 36.2208 56.5305L36.0124 56.1623L35.9826 51.903C35.9826 48.7291 35.9826 47.6098 36.062 47.5419C36.1414 47.4741 36.4242 47.4305 37.3223 47.4305C38.7116 47.4305 38.5925 47.5613 38.5627 45.9768V44.9059L37.3818 44.8671C36.953 44.8626 36.5251 44.827 36.1017 44.7605C36.0173 44.7121 35.9925 44.2081 35.9925 42.7205V40.7435H35.8089C35.6998 40.7435 35.3127 40.8017 34.9009 40.8598L34.8811 40.8695ZM58.2015 40.7048C58.2015 40.7048 57.7896 40.7968 57.3282 40.8695C56.8667 40.9422 56.1076 41.0585 55.6461 41.1409L54.8026 41.2814V48.8454C54.8026 57.0829 54.8026 56.7098 55.2988 57.7371C55.4822 58.1083 55.7423 58.4382 56.0629 58.7062C56.956 59.5057 57.7896 59.7529 59.5659 59.7577C61.0793 59.7577 61.0197 59.8159 60.99 58.4542V57.4851L60.34 57.427C59.1889 57.3301 58.6331 56.8746 58.5041 55.9394C58.4694 55.6583 58.4446 52.1404 58.4545 48.1282C58.4545 41.1845 58.4545 40.5158 58.2411 40.7144L58.2015 40.7048Z" fill="#D40000"/>
</svg>
