<svg width="63" height="60" viewBox="0 0 63 60" fill="none" xmlns="http://www.w3.org/2000/svg">
<g clip-path="url(#clip0_965_798)">
<path fill-rule="evenodd" clip-rule="evenodd" d="M21.7935 27.4879H23.8858V23.0697C23.8858 20.6861 24.8617 18.5194 26.4312 16.9489V16.9469C28.0012 15.3769 30.1689 14.4015 32.5535 14.4015C34.937 14.4015 37.1037 15.3769 38.6737 16.9469L38.6757 16.9489C40.2452 18.5189 41.2211 20.6866 41.2211 23.0692V27.4874L42.8882 27.4879C43.2593 27.4879 43.5632 27.7918 43.5632 28.1629V42.4235C43.5632 42.7946 43.2588 43.0985 42.8877 43.0985H21.7935C21.4224 43.0985 21.118 42.7941 21.118 42.4235V28.1629C21.118 27.7918 21.4218 27.4879 21.7935 27.4879ZM8.43504 11.2271C7.5345 12.3431 6.70273 13.5283 5.87601 14.9977C2.84876 20.3802 1.56646 26.4913 2.08878 32.4639C2.59948 38.2975 4.83541 44.0061 8.85169 48.7813C10.2943 50.4965 11.842 52.0083 13.4692 53.3159C19.0878 57.8338 25.744 60.0616 32.3826 59.9984C39.0236 59.9352 45.6348 57.5794 51.1645 52.9291C52.777 51.573 54.2888 50.0333 55.6722 48.3126C58.9063 44.2893 60.9875 39.5701 61.7758 34.5906C62.5504 29.7001 62.0766 24.5643 60.224 19.5959C58.4608 14.8657 55.7673 10.6537 52.2476 7.35645C48.8926 4.21341 44.796 1.8986 40.0445 0.74979C38.5564 0.389776 37.0415 0.154654 35.4983 0.0550437C33.95 -0.044567 32.3669 -0.0111949 30.7448 0.168307C29.728 0.280558 28.9958 1.19475 29.1075 2.21159C29.2198 3.22792 30.134 3.96059 31.1503 3.84834C32.5575 3.6926 33.9288 3.66328 35.2667 3.74974C36.6087 3.8362 37.9112 4.03694 39.1758 4.34336C43.2745 5.3339 46.813 7.3337 49.7123 10.051C52.8159 12.9589 55.1969 16.6875 56.7614 20.8853C58.3855 25.2404 58.8016 29.7365 58.1246 34.0112C57.4369 38.3541 55.6181 42.475 52.7886 45.9943C51.5402 47.5471 50.1992 48.9169 48.788 50.1036C43.9384 54.1826 38.1539 56.2486 32.3537 56.3042C26.5526 56.3593 20.7236 54.402 15.787 50.4338C14.3232 49.2566 12.9448 47.9142 11.6767 46.4059C8.17919 42.2475 6.23046 37.2579 5.78348 32.1459C5.32436 26.8999 6.4494 21.5335 9.10653 16.8094C9.90847 15.3835 10.7301 14.2453 11.6413 13.148L11.9108 20.5789C11.9467 21.5993 12.8032 22.3972 13.8231 22.3608C14.843 22.3243 15.6414 21.4683 15.605 20.4484L15.1752 8.6069C15.1393 7.58601 14.2827 6.78862 13.2629 6.82452C13.1992 6.82705 13.1365 6.83261 13.0748 6.8407V6.83919L1.59629 8.45167C0.584511 8.59173 -0.122371 9.52615 0.0176911 10.5379C0.157247 11.5502 1.09167 12.2571 2.10395 12.117L8.43504 11.2271ZM27.2534 27.4879H37.8531V23.0211C37.8531 21.5634 37.2564 20.2381 36.2972 19.2779L36.2962 19.2784C35.336 18.3182 34.0102 17.721 32.5535 17.721C31.0957 17.721 29.7704 18.3177 28.8097 19.2774C27.85 20.2376 27.2539 21.5634 27.2539 23.0211V27.4879H27.2534ZM32.5959 35.2909L33.6659 40.228L30.7337 40.2401L31.5938 35.2368C30.7928 34.9795 30.2119 34.2291 30.2119 33.3422C30.2119 32.2445 31.1018 31.3545 32.2 31.3545C33.2973 31.3545 34.1877 32.2445 34.1877 33.3422C34.1872 34.3049 33.5041 35.1079 32.5959 35.2909Z" fill="white"/>
</g>
<defs>
<clipPath id="clip0_965_798">
<rect width="62.1323" height="60" fill="white"/>
</clipPath>
</defs>
</svg>
