<svg width="16" height="16" viewBox="0 0 16 16" fill="none" xmlns="http://www.w3.org/2000/svg">
<circle cx="8" cy="8" r="8" fill="#D40000"/>
<path d="M11.1391 8.41685C11.7138 6.95541 11.2437 6.23085 10.196 6.22477C8.51345 6.21486 6.82707 8.00834 5.32253 8.53298C3.94976 9.01172 2.84209 8.81928 2.53335 7.75888C1.66053 4.76054 10.7048 -0.344001 13.0937 4.66285C14.9012 8.54775 9.2818 13.455 5.83135 13.5252C3.08111 13.5812 4.79964 9.38043 6.75111 9.38704C7.20586 9.3886 7.66305 9.56696 7.6933 10.0201C7.72337 10.4695 7.17683 10.8464 6.74867 11.2523C6.02309 11.9402 5.81344 12.4412 6.00883 12.6797C6.20422 12.918 6.81334 12.8719 7.84818 12.1757C9.51022 11.0574 10.6132 9.75922 11.1394 8.41703L11.1391 8.41685Z" fill="white"/>
</svg>
