<svg width="29" height="38" viewBox="0 0 29 38" fill="none" xmlns="http://www.w3.org/2000/svg">
<path fill-rule="evenodd" clip-rule="evenodd" d="M0.871523 17.312H3.58546V11.4727C3.58609 9.96606 3.87676 8.47443 4.44081 7.08333C5.00486 5.69224 5.83117 4.42907 6.87235 3.36631C7.90892 2.29931 9.14067 1.4527 10.497 0.875032C11.8532 0.297362 13.3074 0 14.7759 0C16.2445 0 17.6987 0.297362 19.0549 0.875032C20.4112 1.4527 21.643 2.29931 22.6795 3.36631C23.7207 4.42907 24.547 5.69224 25.1111 7.08333C25.6751 8.47443 25.9658 9.96606 25.9664 11.4727V11.7448H21.609V11.4077C21.6047 9.55055 20.8825 7.77096 19.6007 6.45916C18.6444 5.48004 17.4269 4.81328 16.1016 4.54293C14.7763 4.27258 13.4027 4.41075 12.1538 4.94003C10.905 5.46931 9.83697 6.36598 9.08435 7.517C8.33172 8.66801 7.92823 10.0218 7.92475 11.4077V17.312H28.1285C28.3594 17.3128 28.5806 17.4072 28.7439 17.5746C28.9071 17.7421 28.9992 17.969 29 18.2058V37.1062C28.9992 37.343 28.9071 37.5699 28.7439 37.7373C28.5806 37.9048 28.3594 37.9992 28.1285 38H0.871523C0.640638 37.9992 0.419436 37.9048 0.256174 37.7373C0.0929128 37.5699 0.000841642 37.343 4.68492e-05 37.1062V18.2182C-0.00114711 18.0999 0.0204909 17.9825 0.0637148 17.8728C0.106939 17.7631 0.170894 17.6633 0.251898 17.579C0.332901 17.4948 0.429352 17.4278 0.535695 17.382C0.642038 17.3362 0.756172 17.3124 0.871523 17.312ZM14.8212 27.6575L16.2023 34.1958H12.4148L13.5275 27.5709C12.933 27.3764 12.4279 26.9664 12.1068 26.4176C11.7858 25.8688 11.6707 25.2187 11.7831 24.5892C11.8955 23.9596 12.2278 23.3936 12.7177 22.9971C13.2076 22.6007 13.8215 22.4009 14.4447 22.4351C15.0678 22.4694 15.6574 22.7354 16.1032 23.1833C16.5489 23.6312 16.8203 24.2304 16.8664 24.8687C16.9126 25.507 16.7304 26.1407 16.3539 26.6511C15.9775 27.1616 15.4326 27.5139 14.8212 27.6421V27.6575Z" fill="white"/>
</svg>
